%TF.GenerationSoftware,KiCad,Pcbnew,6.0.9*%
%TF.CreationDate,2022-11-23T21:17:41-08:00*%
%TF.ProjectId,shitpad,73686974-7061-4642-9e6b-696361645f70,rev?*%
%TF.SameCoordinates,Original*%
%TF.FileFunction,Drillmap*%
%TF.FilePolarity,Positive*%
%FSLAX45Y45*%
G04 Gerber Fmt 4.5, Leading zero omitted, Abs format (unit mm)*
G04 Created by KiCad (PCBNEW 6.0.9) date 2022-11-23 21:17:41*
%MOMM*%
%LPD*%
G01*
G04 APERTURE LIST*
%ADD10C,0.150000*%
%ADD11C,0.200000*%
G04 APERTURE END LIST*
D10*
X7500000Y-3000000D02*
X10600000Y-3000000D01*
X10700000Y-3100000D02*
X10700000Y-9700000D01*
X10600000Y-9800000D02*
X7500000Y-9800000D01*
X7400000Y-9700000D02*
X7400000Y-3100000D01*
X7400000Y-9700000D02*
G75*
G03*
X7500000Y-9800000I100000J0D01*
G01*
X10600000Y-9800000D02*
G75*
G03*
X10700000Y-9700000I0J100000D01*
G01*
X7500000Y-3000000D02*
G75*
G03*
X7400000Y-3100000I0J-100000D01*
G01*
X10700000Y-3100000D02*
G75*
G03*
X10600000Y-3000000I-100000J0D01*
G01*
D11*
X7650119Y-10117976D02*
X7650119Y-9917976D01*
X7697738Y-9917976D01*
X7726309Y-9927500D01*
X7745357Y-9946548D01*
X7754881Y-9965595D01*
X7764405Y-10003690D01*
X7764405Y-10032262D01*
X7754881Y-10070357D01*
X7745357Y-10089405D01*
X7726309Y-10108452D01*
X7697738Y-10117976D01*
X7650119Y-10117976D01*
X7850119Y-10117976D02*
X7850119Y-9984643D01*
X7850119Y-10022738D02*
X7859643Y-10003690D01*
X7869167Y-9994167D01*
X7888214Y-9984643D01*
X7907262Y-9984643D01*
X7973928Y-10117976D02*
X7973928Y-9984643D01*
X7973928Y-9917976D02*
X7964405Y-9927500D01*
X7973928Y-9937024D01*
X7983452Y-9927500D01*
X7973928Y-9917976D01*
X7973928Y-9937024D01*
X8097738Y-10117976D02*
X8078690Y-10108452D01*
X8069167Y-10089405D01*
X8069167Y-9917976D01*
X8202500Y-10117976D02*
X8183452Y-10108452D01*
X8173928Y-10089405D01*
X8173928Y-9917976D01*
X8431071Y-10117976D02*
X8431071Y-9917976D01*
X8497738Y-10060833D01*
X8564405Y-9917976D01*
X8564405Y-10117976D01*
X8745357Y-10117976D02*
X8745357Y-10013214D01*
X8735833Y-9994167D01*
X8716786Y-9984643D01*
X8678690Y-9984643D01*
X8659643Y-9994167D01*
X8745357Y-10108452D02*
X8726310Y-10117976D01*
X8678690Y-10117976D01*
X8659643Y-10108452D01*
X8650119Y-10089405D01*
X8650119Y-10070357D01*
X8659643Y-10051310D01*
X8678690Y-10041786D01*
X8726310Y-10041786D01*
X8745357Y-10032262D01*
X8840595Y-9984643D02*
X8840595Y-10184643D01*
X8840595Y-9994167D02*
X8859643Y-9984643D01*
X8897738Y-9984643D01*
X8916786Y-9994167D01*
X8926310Y-10003690D01*
X8935833Y-10022738D01*
X8935833Y-10079881D01*
X8926310Y-10098929D01*
X8916786Y-10108452D01*
X8897738Y-10117976D01*
X8859643Y-10117976D01*
X8840595Y-10108452D01*
X9021548Y-10098929D02*
X9031071Y-10108452D01*
X9021548Y-10117976D01*
X9012024Y-10108452D01*
X9021548Y-10098929D01*
X9021548Y-10117976D01*
X9021548Y-9994167D02*
X9031071Y-10003690D01*
X9021548Y-10013214D01*
X9012024Y-10003690D01*
X9021548Y-9994167D01*
X9021548Y-10013214D01*
M02*
