G04 #@! TF.GenerationSoftware,KiCad,Pcbnew,6.0.9*
G04 #@! TF.CreationDate,2022-11-23T21:17:52-08:00*
G04 #@! TF.ProjectId,shitpad,73686974-7061-4642-9e6b-696361645f70,rev?*
G04 #@! TF.SameCoordinates,Original*
G04 #@! TF.FileFunction,Copper,L2,Bot*
G04 #@! TF.FilePolarity,Positive*
%FSLAX46Y46*%
G04 Gerber Fmt 4.6, Leading zero omitted, Abs format (unit mm)*
G04 Created by KiCad (PCBNEW 6.0.9) date 2022-11-23 21:17:52*
%MOMM*%
%LPD*%
G01*
G04 APERTURE LIST*
G04 Aperture macros list*
%AMRoundRect*
0 Rectangle with rounded corners*
0 $1 Rounding radius*
0 $2 $3 $4 $5 $6 $7 $8 $9 X,Y pos of 4 corners*
0 Add a 4 corners polygon primitive as box body*
4,1,4,$2,$3,$4,$5,$6,$7,$8,$9,$2,$3,0*
0 Add four circle primitives for the rounded corners*
1,1,$1+$1,$2,$3*
1,1,$1+$1,$4,$5*
1,1,$1+$1,$6,$7*
1,1,$1+$1,$8,$9*
0 Add four rect primitives between the rounded corners*
20,1,$1+$1,$2,$3,$4,$5,0*
20,1,$1+$1,$4,$5,$6,$7,0*
20,1,$1+$1,$6,$7,$8,$9,0*
20,1,$1+$1,$8,$9,$2,$3,0*%
G04 Aperture macros list end*
G04 #@! TA.AperFunction,ComponentPad*
%ADD10R,1.700000X1.700000*%
G04 #@! TD*
G04 #@! TA.AperFunction,ComponentPad*
%ADD11O,1.700000X1.700000*%
G04 #@! TD*
G04 #@! TA.AperFunction,ComponentPad*
%ADD12R,1.800000X1.800000*%
G04 #@! TD*
G04 #@! TA.AperFunction,ComponentPad*
%ADD13C,1.800000*%
G04 #@! TD*
G04 #@! TA.AperFunction,SMDPad,CuDef*
%ADD14RoundRect,0.250000X0.337500X0.475000X-0.337500X0.475000X-0.337500X-0.475000X0.337500X-0.475000X0*%
G04 #@! TD*
G04 #@! TA.AperFunction,ComponentPad*
%ADD15C,1.879600*%
G04 #@! TD*
G04 #@! TA.AperFunction,SMDPad,CuDef*
%ADD16R,1.000000X3.000000*%
G04 #@! TD*
G04 #@! TA.AperFunction,ComponentPad*
%ADD17C,1.600000*%
G04 #@! TD*
G04 #@! TA.AperFunction,ComponentPad*
%ADD18O,1.600000X1.600000*%
G04 #@! TD*
G04 #@! TA.AperFunction,Conductor*
%ADD19C,1.000000*%
G04 #@! TD*
G04 APERTURE END LIST*
D10*
X86690000Y-36000000D03*
D11*
X89230000Y-36000000D03*
X91770000Y-36000000D03*
X94310000Y-36000000D03*
D12*
X93218000Y-31750000D03*
D13*
X90678000Y-31750000D03*
D14*
X102987500Y-61990000D03*
X100912500Y-61990000D03*
D15*
X80000000Y-54350000D03*
X80000000Y-51810000D03*
X80000000Y-49270000D03*
X80000000Y-46730000D03*
X80000000Y-44190000D03*
X80000000Y-41650000D03*
X87750000Y-56850000D03*
X90290000Y-56850000D03*
X92830000Y-56850000D03*
D16*
X93540000Y-78480000D03*
X93540000Y-83520000D03*
X91000000Y-78480000D03*
X91000000Y-83520000D03*
X88460000Y-78480000D03*
X88460000Y-83520000D03*
D17*
X75438000Y-32250000D03*
D18*
X85598000Y-32250000D03*
D19*
X88460000Y-83520000D02*
X88460000Y-88360000D01*
X88460000Y-88360000D02*
X88460000Y-89460000D01*
X88460000Y-89460000D02*
X88500000Y-89500000D01*
X93510000Y-61990000D02*
X100912500Y-61990000D01*
X89230000Y-37202081D02*
X88882081Y-37550000D01*
X75438000Y-52107028D02*
X81820772Y-58489800D01*
X75438000Y-32250000D02*
X75438000Y-52107028D01*
X95772500Y-56850000D02*
X100912500Y-61990000D01*
X89230000Y-36000000D02*
X89230000Y-37202081D01*
X88460000Y-67040000D02*
X93510000Y-61990000D01*
X80738000Y-37550000D02*
X75438000Y-32250000D01*
X92830000Y-56850000D02*
X95772500Y-56850000D01*
X88460000Y-78480000D02*
X88460000Y-67040000D01*
X88882081Y-37550000D02*
X80738000Y-37550000D01*
X81820772Y-58489800D02*
X91190200Y-58489800D01*
X91190200Y-58489800D02*
X92830000Y-56850000D01*
X91000000Y-78480000D02*
X91000000Y-73850000D01*
X91000000Y-73850000D02*
X91060000Y-73790000D01*
X91000000Y-78480000D02*
X91000000Y-71500000D01*
X91000000Y-88000000D02*
X91000000Y-88240000D01*
X91000000Y-83520000D02*
X91000000Y-88000000D01*
X91000000Y-88000000D02*
X91000000Y-89500000D01*
X94310000Y-40040000D02*
X94310000Y-36000000D01*
X80000000Y-54350000D02*
X94310000Y-40040000D01*
X91770000Y-37500000D02*
X91770000Y-36000000D01*
X80000000Y-49270000D02*
X91770000Y-37500000D01*
X90178000Y-32250000D02*
X90678000Y-31750000D01*
X85598000Y-32250000D02*
X90178000Y-32250000D01*
X93540000Y-78480000D02*
X93540000Y-71460000D01*
X93540000Y-73360000D02*
X93560000Y-73340000D01*
X93540000Y-78480000D02*
X93540000Y-73360000D01*
X93540000Y-86540000D02*
X93540000Y-89460000D01*
X93540000Y-83520000D02*
X93540000Y-86540000D01*
X93540000Y-88230000D02*
X93530000Y-88240000D01*
X93540000Y-86540000D02*
X93540000Y-88230000D01*
G04 #@! TA.AperFunction,Conductor*
G36*
X89689510Y-30528502D02*
G01*
X89736003Y-30582158D01*
X89746107Y-30652432D01*
X89712483Y-30721551D01*
X89579639Y-30860564D01*
X89576725Y-30864836D01*
X89576724Y-30864837D01*
X89568271Y-30877229D01*
X89449119Y-31051899D01*
X89446943Y-31056586D01*
X89446940Y-31056592D01*
X89394971Y-31168550D01*
X89348147Y-31221917D01*
X89280683Y-31241500D01*
X86478740Y-31241500D01*
X86406469Y-31218713D01*
X86361631Y-31187317D01*
X86254749Y-31112477D01*
X86249767Y-31110154D01*
X86249762Y-31110151D01*
X86052225Y-31018039D01*
X86052224Y-31018039D01*
X86047243Y-31015716D01*
X86041935Y-31014294D01*
X86041933Y-31014293D01*
X85831402Y-30957881D01*
X85831400Y-30957881D01*
X85826087Y-30956457D01*
X85598000Y-30936502D01*
X85369913Y-30956457D01*
X85364600Y-30957881D01*
X85364598Y-30957881D01*
X85154067Y-31014293D01*
X85154065Y-31014294D01*
X85148757Y-31015716D01*
X85143776Y-31018039D01*
X85143775Y-31018039D01*
X84946238Y-31110151D01*
X84946233Y-31110154D01*
X84941251Y-31112477D01*
X84861171Y-31168550D01*
X84758211Y-31240643D01*
X84758208Y-31240645D01*
X84753700Y-31243802D01*
X84591802Y-31405700D01*
X84588645Y-31410208D01*
X84588643Y-31410211D01*
X84533902Y-31488389D01*
X84460477Y-31593251D01*
X84458154Y-31598233D01*
X84458151Y-31598238D01*
X84447071Y-31622000D01*
X84363716Y-31800757D01*
X84304457Y-32021913D01*
X84284502Y-32250000D01*
X84304457Y-32478087D01*
X84363716Y-32699243D01*
X84366039Y-32704224D01*
X84366039Y-32704225D01*
X84458151Y-32901762D01*
X84458154Y-32901767D01*
X84460477Y-32906749D01*
X84502149Y-32966262D01*
X84572945Y-33067369D01*
X84591802Y-33094300D01*
X84753700Y-33256198D01*
X84758208Y-33259355D01*
X84758211Y-33259357D01*
X84836389Y-33314098D01*
X84941251Y-33387523D01*
X84946233Y-33389846D01*
X84946238Y-33389849D01*
X85143775Y-33481961D01*
X85148757Y-33484284D01*
X85154065Y-33485706D01*
X85154067Y-33485707D01*
X85364598Y-33542119D01*
X85364600Y-33542119D01*
X85369913Y-33543543D01*
X85598000Y-33563498D01*
X85826087Y-33543543D01*
X85831400Y-33542119D01*
X85831402Y-33542119D01*
X86041933Y-33485707D01*
X86041935Y-33485706D01*
X86047243Y-33484284D01*
X86052225Y-33481961D01*
X86249762Y-33389849D01*
X86249767Y-33389846D01*
X86254749Y-33387523D01*
X86406469Y-33281287D01*
X86478740Y-33258500D01*
X90116157Y-33258500D01*
X90129764Y-33259237D01*
X90161262Y-33262659D01*
X90161267Y-33262659D01*
X90167388Y-33263324D01*
X90193638Y-33261027D01*
X90217388Y-33258950D01*
X90222214Y-33258621D01*
X90224686Y-33258500D01*
X90227769Y-33258500D01*
X90239738Y-33257326D01*
X90270506Y-33254310D01*
X90271819Y-33254188D01*
X90316084Y-33250315D01*
X90364413Y-33246087D01*
X90369532Y-33244600D01*
X90374833Y-33244080D01*
X90463834Y-33217209D01*
X90464967Y-33216874D01*
X90548414Y-33192630D01*
X90548418Y-33192628D01*
X90554336Y-33190909D01*
X90559068Y-33188456D01*
X90564169Y-33186916D01*
X90569604Y-33184026D01*
X90569607Y-33184025D01*
X90589798Y-33173289D01*
X90653567Y-33158625D01*
X90700376Y-33160342D01*
X90736949Y-33161683D01*
X90736953Y-33161683D01*
X90742113Y-33161872D01*
X90747233Y-33161216D01*
X90747235Y-33161216D01*
X90846668Y-33148478D01*
X90971847Y-33132442D01*
X90976795Y-33130957D01*
X90976802Y-33130956D01*
X91188747Y-33067369D01*
X91193690Y-33065886D01*
X91290856Y-33018285D01*
X91397049Y-32966262D01*
X91397052Y-32966260D01*
X91401684Y-32963991D01*
X91590243Y-32829494D01*
X91593898Y-32825852D01*
X91593906Y-32825845D01*
X91635697Y-32784199D01*
X91698068Y-32750282D01*
X91768875Y-32755470D01*
X91825637Y-32798116D01*
X91842619Y-32829218D01*
X91864677Y-32888056D01*
X91873214Y-32903649D01*
X91949715Y-33005724D01*
X91962276Y-33018285D01*
X92064351Y-33094786D01*
X92079946Y-33103324D01*
X92200394Y-33148478D01*
X92215649Y-33152105D01*
X92266514Y-33157631D01*
X92273328Y-33158000D01*
X92945885Y-33158000D01*
X92961124Y-33153525D01*
X92962329Y-33152135D01*
X92964000Y-33144452D01*
X92964000Y-33139884D01*
X93472000Y-33139884D01*
X93476475Y-33155123D01*
X93477865Y-33156328D01*
X93485548Y-33157999D01*
X94162669Y-33157999D01*
X94169490Y-33157629D01*
X94220352Y-33152105D01*
X94235604Y-33148479D01*
X94356054Y-33103324D01*
X94371649Y-33094786D01*
X94473724Y-33018285D01*
X94486285Y-33005724D01*
X94562786Y-32903649D01*
X94571324Y-32888054D01*
X94616478Y-32767606D01*
X94620105Y-32752351D01*
X94625631Y-32701486D01*
X94626000Y-32694672D01*
X94626000Y-32022115D01*
X94621525Y-32006876D01*
X94620135Y-32005671D01*
X94612452Y-32004000D01*
X93490115Y-32004000D01*
X93474876Y-32008475D01*
X93473671Y-32009865D01*
X93472000Y-32017548D01*
X93472000Y-33139884D01*
X92964000Y-33139884D01*
X92964000Y-31622000D01*
X92984002Y-31553879D01*
X93037658Y-31507386D01*
X93090000Y-31496000D01*
X94607884Y-31496000D01*
X94623123Y-31491525D01*
X94624328Y-31490135D01*
X94625999Y-31482452D01*
X94625999Y-30805331D01*
X94625629Y-30798510D01*
X94620105Y-30747648D01*
X94616479Y-30732397D01*
X94596360Y-30678730D01*
X94591177Y-30607923D01*
X94625097Y-30545554D01*
X94687352Y-30511425D01*
X94714342Y-30508500D01*
X105950633Y-30508500D01*
X105970018Y-30510000D01*
X105984852Y-30512310D01*
X105984855Y-30512310D01*
X105993724Y-30513691D01*
X106002626Y-30512527D01*
X106002750Y-30512511D01*
X106033192Y-30512240D01*
X106040621Y-30513077D01*
X106095264Y-30519234D01*
X106122771Y-30525513D01*
X106199853Y-30552485D01*
X106225274Y-30564727D01*
X106294426Y-30608178D01*
X106316485Y-30625770D01*
X106374230Y-30683515D01*
X106391822Y-30705574D01*
X106435273Y-30774726D01*
X106447515Y-30800147D01*
X106474487Y-30877228D01*
X106480766Y-30904736D01*
X106487018Y-30960226D01*
X106486923Y-30975868D01*
X106487800Y-30975879D01*
X106487690Y-30984851D01*
X106486309Y-30993724D01*
X106487473Y-31002626D01*
X106487473Y-31002628D01*
X106490436Y-31025283D01*
X106491500Y-31041621D01*
X106491500Y-96950633D01*
X106490000Y-96970018D01*
X106486309Y-96993724D01*
X106487473Y-97002626D01*
X106487489Y-97002750D01*
X106487760Y-97033192D01*
X106485430Y-97053870D01*
X106480766Y-97095264D01*
X106474487Y-97122771D01*
X106447515Y-97199853D01*
X106435273Y-97225274D01*
X106391822Y-97294426D01*
X106374230Y-97316485D01*
X106316485Y-97374230D01*
X106294426Y-97391822D01*
X106225274Y-97435273D01*
X106199853Y-97447515D01*
X106122772Y-97474487D01*
X106095264Y-97480766D01*
X106039774Y-97487018D01*
X106024132Y-97486923D01*
X106024121Y-97487800D01*
X106015149Y-97487690D01*
X106006276Y-97486309D01*
X105997374Y-97487473D01*
X105997372Y-97487473D01*
X105986385Y-97488910D01*
X105974714Y-97490436D01*
X105958379Y-97491500D01*
X75049367Y-97491500D01*
X75029982Y-97490000D01*
X75015148Y-97487690D01*
X75015145Y-97487690D01*
X75006276Y-97486309D01*
X74997374Y-97487473D01*
X74997250Y-97487489D01*
X74966808Y-97487760D01*
X74946130Y-97485430D01*
X74904736Y-97480766D01*
X74877229Y-97474487D01*
X74800147Y-97447515D01*
X74774726Y-97435273D01*
X74705574Y-97391822D01*
X74683515Y-97374230D01*
X74625770Y-97316485D01*
X74608178Y-97294426D01*
X74564727Y-97225274D01*
X74552485Y-97199853D01*
X74525513Y-97122772D01*
X74519234Y-97095266D01*
X74513170Y-97041451D01*
X74512888Y-97016640D01*
X74513576Y-97012552D01*
X74513729Y-97000000D01*
X74509773Y-96972376D01*
X74508500Y-96954514D01*
X74508500Y-89549769D01*
X89991500Y-89549769D01*
X89991800Y-89552825D01*
X89991800Y-89552832D01*
X89992530Y-89560273D01*
X90005920Y-89696833D01*
X90063084Y-89886169D01*
X90155934Y-90060796D01*
X90226291Y-90147062D01*
X90277040Y-90209287D01*
X90277043Y-90209290D01*
X90280935Y-90214062D01*
X90285682Y-90217989D01*
X90285684Y-90217991D01*
X90428575Y-90336201D01*
X90428579Y-90336203D01*
X90433325Y-90340130D01*
X90607299Y-90434198D01*
X90796232Y-90492682D01*
X90802357Y-90493326D01*
X90802358Y-90493326D01*
X90986796Y-90512711D01*
X90986798Y-90512711D01*
X90992925Y-90513355D01*
X91075424Y-90505847D01*
X91183749Y-90495989D01*
X91183752Y-90495988D01*
X91189888Y-90495430D01*
X91195794Y-90493692D01*
X91195798Y-90493691D01*
X91332947Y-90453326D01*
X91379619Y-90439590D01*
X91385077Y-90436737D01*
X91385081Y-90436735D01*
X91475853Y-90389280D01*
X91554890Y-90347960D01*
X91709025Y-90224032D01*
X91836154Y-90072526D01*
X91839121Y-90067128D01*
X91839125Y-90067123D01*
X91928467Y-89904608D01*
X91931433Y-89899213D01*
X91933846Y-89891608D01*
X91989373Y-89716564D01*
X91989373Y-89716563D01*
X91991235Y-89710694D01*
X92008500Y-89556773D01*
X92008500Y-88236462D01*
X92516626Y-88236462D01*
X92521489Y-88287904D01*
X92530941Y-88387896D01*
X92531500Y-88399754D01*
X92531500Y-89509769D01*
X92531800Y-89512825D01*
X92531800Y-89512832D01*
X92532530Y-89520273D01*
X92545920Y-89656833D01*
X92603084Y-89846169D01*
X92695934Y-90020796D01*
X92766291Y-90107062D01*
X92817040Y-90169287D01*
X92817043Y-90169290D01*
X92820935Y-90174062D01*
X92825682Y-90177989D01*
X92825684Y-90177991D01*
X92968575Y-90296201D01*
X92968579Y-90296203D01*
X92973325Y-90300130D01*
X93147299Y-90394198D01*
X93336232Y-90452682D01*
X93342357Y-90453326D01*
X93342358Y-90453326D01*
X93526796Y-90472711D01*
X93526798Y-90472711D01*
X93532925Y-90473355D01*
X93615424Y-90465847D01*
X93723749Y-90455989D01*
X93723752Y-90455988D01*
X93729888Y-90455430D01*
X93735794Y-90453692D01*
X93735798Y-90453691D01*
X93840924Y-90422751D01*
X93919619Y-90399590D01*
X93925077Y-90396737D01*
X93925081Y-90396735D01*
X94015853Y-90349280D01*
X94094890Y-90307960D01*
X94249025Y-90184032D01*
X94376154Y-90032526D01*
X94379121Y-90027128D01*
X94379125Y-90027123D01*
X94468467Y-89864608D01*
X94471433Y-89859213D01*
X94473846Y-89851608D01*
X94529373Y-89676564D01*
X94529373Y-89676563D01*
X94531235Y-89670694D01*
X94548500Y-89516773D01*
X94548500Y-88287904D01*
X94549145Y-88275171D01*
X94552752Y-88239666D01*
X94552752Y-88239661D01*
X94553374Y-88233538D01*
X94549059Y-88187891D01*
X94548500Y-88176033D01*
X94548500Y-81971866D01*
X94541745Y-81909684D01*
X94490615Y-81773295D01*
X94403261Y-81656739D01*
X94286705Y-81569385D01*
X94150316Y-81518255D01*
X94088134Y-81511500D01*
X92991866Y-81511500D01*
X92929684Y-81518255D01*
X92793295Y-81569385D01*
X92676739Y-81656739D01*
X92589385Y-81773295D01*
X92538255Y-81909684D01*
X92531500Y-81971866D01*
X92531500Y-88083650D01*
X92530855Y-88096383D01*
X92517546Y-88227407D01*
X92516626Y-88236462D01*
X92008500Y-88236462D01*
X92008500Y-81971866D01*
X92001745Y-81909684D01*
X91950615Y-81773295D01*
X91863261Y-81656739D01*
X91746705Y-81569385D01*
X91610316Y-81518255D01*
X91548134Y-81511500D01*
X90451866Y-81511500D01*
X90389684Y-81518255D01*
X90253295Y-81569385D01*
X90136739Y-81656739D01*
X90049385Y-81773295D01*
X89998255Y-81909684D01*
X89991500Y-81971866D01*
X89991500Y-89549769D01*
X74508500Y-89549769D01*
X74508500Y-85064669D01*
X87452001Y-85064669D01*
X87452371Y-85071490D01*
X87457895Y-85122352D01*
X87461521Y-85137604D01*
X87506676Y-85258054D01*
X87515214Y-85273649D01*
X87591715Y-85375724D01*
X87604276Y-85388285D01*
X87706351Y-85464786D01*
X87721946Y-85473324D01*
X87842394Y-85518478D01*
X87857649Y-85522105D01*
X87908514Y-85527631D01*
X87915328Y-85528000D01*
X88187885Y-85528000D01*
X88203124Y-85523525D01*
X88204329Y-85522135D01*
X88206000Y-85514452D01*
X88206000Y-85509884D01*
X88714000Y-85509884D01*
X88718475Y-85525123D01*
X88719865Y-85526328D01*
X88727548Y-85527999D01*
X89004669Y-85527999D01*
X89011490Y-85527629D01*
X89062352Y-85522105D01*
X89077604Y-85518479D01*
X89198054Y-85473324D01*
X89213649Y-85464786D01*
X89315724Y-85388285D01*
X89328285Y-85375724D01*
X89404786Y-85273649D01*
X89413324Y-85258054D01*
X89458478Y-85137606D01*
X89462105Y-85122351D01*
X89467631Y-85071486D01*
X89468000Y-85064672D01*
X89468000Y-83792115D01*
X89463525Y-83776876D01*
X89462135Y-83775671D01*
X89454452Y-83774000D01*
X88732115Y-83774000D01*
X88716876Y-83778475D01*
X88715671Y-83779865D01*
X88714000Y-83787548D01*
X88714000Y-85509884D01*
X88206000Y-85509884D01*
X88206000Y-83792115D01*
X88201525Y-83776876D01*
X88200135Y-83775671D01*
X88192452Y-83774000D01*
X87470116Y-83774000D01*
X87454877Y-83778475D01*
X87453672Y-83779865D01*
X87452001Y-83787548D01*
X87452001Y-85064669D01*
X74508500Y-85064669D01*
X74508500Y-83247885D01*
X87452000Y-83247885D01*
X87456475Y-83263124D01*
X87457865Y-83264329D01*
X87465548Y-83266000D01*
X88187885Y-83266000D01*
X88203124Y-83261525D01*
X88204329Y-83260135D01*
X88206000Y-83252452D01*
X88206000Y-83247885D01*
X88714000Y-83247885D01*
X88718475Y-83263124D01*
X88719865Y-83264329D01*
X88727548Y-83266000D01*
X89449884Y-83266000D01*
X89465123Y-83261525D01*
X89466328Y-83260135D01*
X89467999Y-83252452D01*
X89467999Y-81975331D01*
X89467629Y-81968510D01*
X89462105Y-81917648D01*
X89458479Y-81902396D01*
X89413324Y-81781946D01*
X89404786Y-81766351D01*
X89328285Y-81664276D01*
X89315724Y-81651715D01*
X89213649Y-81575214D01*
X89198054Y-81566676D01*
X89077606Y-81521522D01*
X89062351Y-81517895D01*
X89011486Y-81512369D01*
X89004672Y-81512000D01*
X88732115Y-81512000D01*
X88716876Y-81516475D01*
X88715671Y-81517865D01*
X88714000Y-81525548D01*
X88714000Y-83247885D01*
X88206000Y-83247885D01*
X88206000Y-81530116D01*
X88201525Y-81514877D01*
X88200135Y-81513672D01*
X88192452Y-81512001D01*
X87915331Y-81512001D01*
X87908510Y-81512371D01*
X87857648Y-81517895D01*
X87842396Y-81521521D01*
X87721946Y-81566676D01*
X87706351Y-81575214D01*
X87604276Y-81651715D01*
X87591715Y-81664276D01*
X87515214Y-81766351D01*
X87506676Y-81781946D01*
X87461522Y-81902394D01*
X87457895Y-81917649D01*
X87452369Y-81968514D01*
X87452000Y-81975328D01*
X87452000Y-83247885D01*
X74508500Y-83247885D01*
X74508500Y-52914026D01*
X74528502Y-52845905D01*
X74582158Y-52799412D01*
X74652432Y-52789308D01*
X74717012Y-52818802D01*
X74717251Y-52819026D01*
X74718935Y-52821090D01*
X74723526Y-52824888D01*
X74754262Y-52850315D01*
X74763042Y-52858305D01*
X81063917Y-59159179D01*
X81073019Y-59169322D01*
X81096740Y-59198825D01*
X81108705Y-59208865D01*
X81135193Y-59231091D01*
X81138841Y-59234272D01*
X81140653Y-59235915D01*
X81142847Y-59238109D01*
X81176121Y-59265442D01*
X81176919Y-59266104D01*
X81248246Y-59325954D01*
X81252916Y-59328522D01*
X81257033Y-59331903D01*
X81338892Y-59375795D01*
X81340052Y-59376424D01*
X81416161Y-59418266D01*
X81416166Y-59418268D01*
X81421559Y-59421233D01*
X81426637Y-59422844D01*
X81431335Y-59425363D01*
X81520270Y-59452553D01*
X81521474Y-59452928D01*
X81610078Y-59481035D01*
X81615369Y-59481628D01*
X81620470Y-59483188D01*
X81713083Y-59492595D01*
X81714203Y-59492715D01*
X81763999Y-59498300D01*
X81767528Y-59498300D01*
X81768511Y-59498355D01*
X81774198Y-59498803D01*
X81794455Y-59500860D01*
X81811108Y-59502552D01*
X81811111Y-59502552D01*
X81817235Y-59503174D01*
X81862884Y-59498859D01*
X81874741Y-59498300D01*
X91128357Y-59498300D01*
X91141964Y-59499037D01*
X91173462Y-59502459D01*
X91173467Y-59502459D01*
X91179588Y-59503124D01*
X91205838Y-59500827D01*
X91229588Y-59498750D01*
X91234414Y-59498421D01*
X91236886Y-59498300D01*
X91239969Y-59498300D01*
X91251938Y-59497126D01*
X91282706Y-59494110D01*
X91284019Y-59493988D01*
X91328284Y-59490115D01*
X91376613Y-59485887D01*
X91381732Y-59484400D01*
X91387033Y-59483880D01*
X91476034Y-59457009D01*
X91477167Y-59456674D01*
X91560614Y-59432430D01*
X91560618Y-59432428D01*
X91566536Y-59430709D01*
X91571268Y-59428256D01*
X91576369Y-59426716D01*
X91592262Y-59418266D01*
X91658460Y-59383069D01*
X91659626Y-59382457D01*
X91736653Y-59342529D01*
X91742126Y-59339692D01*
X91746289Y-59336369D01*
X91750996Y-59333866D01*
X91823118Y-59275045D01*
X91823974Y-59274354D01*
X91863173Y-59243062D01*
X91865677Y-59240558D01*
X91866395Y-59239916D01*
X91870728Y-59236215D01*
X91904262Y-59208865D01*
X91933491Y-59173533D01*
X91941472Y-59164763D01*
X92768869Y-58337365D01*
X92831182Y-58303340D01*
X92862580Y-58300545D01*
X92879424Y-58301163D01*
X92890761Y-58301579D01*
X92890765Y-58301579D01*
X92895924Y-58301768D01*
X92901044Y-58301112D01*
X92901046Y-58301112D01*
X93127023Y-58272164D01*
X93127024Y-58272164D01*
X93132151Y-58271507D01*
X93360262Y-58203070D01*
X93574133Y-58098295D01*
X93578336Y-58095297D01*
X93578341Y-58095294D01*
X93763816Y-57962996D01*
X93763818Y-57962994D01*
X93768020Y-57959997D01*
X93832995Y-57895248D01*
X93895365Y-57861333D01*
X93921934Y-57858500D01*
X95302575Y-57858500D01*
X95370696Y-57878502D01*
X95391670Y-57895405D01*
X96914532Y-59418266D01*
X98262671Y-60766405D01*
X98296697Y-60828717D01*
X98291632Y-60899532D01*
X98249085Y-60956368D01*
X98182565Y-60981179D01*
X98173576Y-60981500D01*
X93571840Y-60981500D01*
X93558232Y-60980763D01*
X93526736Y-60977341D01*
X93526732Y-60977341D01*
X93520611Y-60976676D01*
X93502611Y-60978251D01*
X93470609Y-60981050D01*
X93465784Y-60981379D01*
X93463313Y-60981500D01*
X93460231Y-60981500D01*
X93437763Y-60983703D01*
X93417489Y-60985691D01*
X93416174Y-60985813D01*
X93383913Y-60988636D01*
X93323587Y-60993913D01*
X93318468Y-60995400D01*
X93313167Y-60995920D01*
X93224133Y-61022801D01*
X93223000Y-61023136D01*
X93139578Y-61047373D01*
X93139574Y-61047375D01*
X93133663Y-61049092D01*
X93128934Y-61051543D01*
X93123831Y-61053084D01*
X93041669Y-61096770D01*
X93040627Y-61097317D01*
X92958074Y-61140108D01*
X92953911Y-61143431D01*
X92949204Y-61145934D01*
X92944430Y-61149828D01*
X92944428Y-61149829D01*
X92877105Y-61204737D01*
X92876160Y-61205500D01*
X92837027Y-61236739D01*
X92834536Y-61239230D01*
X92833809Y-61239880D01*
X92829463Y-61243592D01*
X92810588Y-61258987D01*
X92795938Y-61270935D01*
X92792015Y-61275677D01*
X92792013Y-61275679D01*
X92766703Y-61306273D01*
X92758713Y-61315053D01*
X87790621Y-66283145D01*
X87780478Y-66292247D01*
X87750975Y-66315968D01*
X87747008Y-66320696D01*
X87718709Y-66354421D01*
X87715528Y-66358069D01*
X87713885Y-66359881D01*
X87711691Y-66362075D01*
X87684358Y-66395349D01*
X87683696Y-66396147D01*
X87623846Y-66467474D01*
X87621278Y-66472144D01*
X87617897Y-66476261D01*
X87586860Y-66534145D01*
X87574023Y-66558086D01*
X87573394Y-66559245D01*
X87531538Y-66635381D01*
X87531535Y-66635389D01*
X87528567Y-66640787D01*
X87526955Y-66645869D01*
X87524438Y-66650563D01*
X87497238Y-66739531D01*
X87496918Y-66740559D01*
X87468765Y-66829306D01*
X87468171Y-66834602D01*
X87466613Y-66839698D01*
X87465990Y-66845834D01*
X87457218Y-66932187D01*
X87457089Y-66933393D01*
X87451500Y-66983227D01*
X87451500Y-66986754D01*
X87451445Y-66987739D01*
X87450998Y-66993419D01*
X87446626Y-67036462D01*
X87447206Y-67042593D01*
X87450941Y-67082109D01*
X87451500Y-67093967D01*
X87451500Y-80028134D01*
X87458255Y-80090316D01*
X87509385Y-80226705D01*
X87596739Y-80343261D01*
X87713295Y-80430615D01*
X87849684Y-80481745D01*
X87911866Y-80488500D01*
X89008134Y-80488500D01*
X89070316Y-80481745D01*
X89206705Y-80430615D01*
X89323261Y-80343261D01*
X89410615Y-80226705D01*
X89461745Y-80090316D01*
X89468500Y-80028134D01*
X89468500Y-73846462D01*
X89986626Y-73846462D01*
X89987206Y-73852593D01*
X89990941Y-73892109D01*
X89991500Y-73903967D01*
X89991500Y-80028134D01*
X89998255Y-80090316D01*
X90049385Y-80226705D01*
X90136739Y-80343261D01*
X90253295Y-80430615D01*
X90389684Y-80481745D01*
X90451866Y-80488500D01*
X91548134Y-80488500D01*
X91610316Y-80481745D01*
X91746705Y-80430615D01*
X91863261Y-80343261D01*
X91950615Y-80226705D01*
X92001745Y-80090316D01*
X92008500Y-80028134D01*
X92008500Y-74155952D01*
X92014006Y-74119113D01*
X92051585Y-73996200D01*
X92051585Y-73996198D01*
X92053388Y-73990302D01*
X92055969Y-73964888D01*
X92072752Y-73799666D01*
X92072752Y-73799661D01*
X92073374Y-73793538D01*
X92054761Y-73596638D01*
X92013751Y-73459071D01*
X92008500Y-73423075D01*
X92008500Y-73356462D01*
X92526626Y-73356462D01*
X92527206Y-73362593D01*
X92530941Y-73402109D01*
X92531500Y-73413967D01*
X92531500Y-80028134D01*
X92538255Y-80090316D01*
X92589385Y-80226705D01*
X92676739Y-80343261D01*
X92793295Y-80430615D01*
X92929684Y-80481745D01*
X92991866Y-80488500D01*
X94088134Y-80488500D01*
X94150316Y-80481745D01*
X94286705Y-80430615D01*
X94403261Y-80343261D01*
X94490615Y-80226705D01*
X94541745Y-80090316D01*
X94548500Y-80028134D01*
X94548500Y-73574072D01*
X94550986Y-73549166D01*
X94551585Y-73546196D01*
X94553387Y-73540302D01*
X94554010Y-73534170D01*
X94572752Y-73349666D01*
X94572752Y-73349661D01*
X94573374Y-73343538D01*
X94554761Y-73146638D01*
X94553002Y-73140737D01*
X94551825Y-73134682D01*
X94552483Y-73134554D01*
X94548500Y-73107253D01*
X94548500Y-71410231D01*
X94547814Y-71403227D01*
X94542463Y-71348660D01*
X94534080Y-71263167D01*
X94476916Y-71073831D01*
X94384066Y-70899204D01*
X94295583Y-70790713D01*
X94262960Y-70750713D01*
X94262957Y-70750710D01*
X94259065Y-70745938D01*
X94252724Y-70740692D01*
X94111425Y-70623799D01*
X94111421Y-70623797D01*
X94106675Y-70619870D01*
X93932701Y-70525802D01*
X93743768Y-70467318D01*
X93737643Y-70466674D01*
X93737642Y-70466674D01*
X93553204Y-70447289D01*
X93553202Y-70447289D01*
X93547075Y-70446645D01*
X93464576Y-70454153D01*
X93356251Y-70464011D01*
X93356248Y-70464012D01*
X93350112Y-70464570D01*
X93344206Y-70466308D01*
X93344202Y-70466309D01*
X93275106Y-70486645D01*
X93160381Y-70520410D01*
X93154923Y-70523263D01*
X93154919Y-70523265D01*
X93078407Y-70563265D01*
X92985110Y-70612040D01*
X92830975Y-70735968D01*
X92703846Y-70887474D01*
X92700879Y-70892872D01*
X92700875Y-70892877D01*
X92675407Y-70939204D01*
X92608567Y-71060787D01*
X92606706Y-71066654D01*
X92606705Y-71066656D01*
X92595878Y-71100787D01*
X92548765Y-71249306D01*
X92531500Y-71403227D01*
X92531500Y-73302096D01*
X92530855Y-73314829D01*
X92527939Y-73343538D01*
X92526626Y-73356462D01*
X92008500Y-73356462D01*
X92008500Y-71450231D01*
X92007814Y-71443227D01*
X91994681Y-71309301D01*
X91994080Y-71303167D01*
X91936916Y-71113831D01*
X91844066Y-70939204D01*
X91773709Y-70852938D01*
X91722960Y-70790713D01*
X91722957Y-70790710D01*
X91719065Y-70785938D01*
X91712724Y-70780692D01*
X91571425Y-70663799D01*
X91571421Y-70663797D01*
X91566675Y-70659870D01*
X91392701Y-70565802D01*
X91203768Y-70507318D01*
X91197643Y-70506674D01*
X91197642Y-70506674D01*
X91013204Y-70487289D01*
X91013202Y-70487289D01*
X91007075Y-70486645D01*
X90924576Y-70494153D01*
X90816251Y-70504011D01*
X90816248Y-70504012D01*
X90810112Y-70504570D01*
X90804206Y-70506308D01*
X90804202Y-70506309D01*
X90728015Y-70528732D01*
X90620381Y-70560410D01*
X90614923Y-70563263D01*
X90614919Y-70563265D01*
X90527080Y-70609187D01*
X90445110Y-70652040D01*
X90290975Y-70775968D01*
X90163846Y-70927474D01*
X90160879Y-70932872D01*
X90160875Y-70932877D01*
X90157397Y-70939204D01*
X90068567Y-71100787D01*
X90066706Y-71106654D01*
X90066705Y-71106656D01*
X90023316Y-71243436D01*
X90008765Y-71289306D01*
X89991500Y-71443227D01*
X89991500Y-73792096D01*
X89990855Y-73804829D01*
X89986626Y-73846462D01*
X89468500Y-73846462D01*
X89468500Y-67509925D01*
X89488502Y-67441804D01*
X89505405Y-67420830D01*
X93890830Y-63035405D01*
X93953142Y-63001379D01*
X93979925Y-62998500D01*
X99983650Y-62998500D01*
X100051771Y-63018502D01*
X100072667Y-63035326D01*
X100101697Y-63064305D01*
X100107927Y-63068145D01*
X100107928Y-63068146D01*
X100245288Y-63152816D01*
X100252262Y-63157115D01*
X100332005Y-63183564D01*
X100413611Y-63210632D01*
X100413613Y-63210632D01*
X100420139Y-63212797D01*
X100426975Y-63213497D01*
X100426978Y-63213498D01*
X100470031Y-63217909D01*
X100524600Y-63223500D01*
X101300400Y-63223500D01*
X101303646Y-63223163D01*
X101303650Y-63223163D01*
X101399308Y-63213238D01*
X101399312Y-63213237D01*
X101406166Y-63212526D01*
X101412702Y-63210345D01*
X101412704Y-63210345D01*
X101544806Y-63166272D01*
X101573946Y-63156550D01*
X101724348Y-63063478D01*
X101849305Y-62938303D01*
X101852102Y-62933765D01*
X101909353Y-62893176D01*
X101980276Y-62889946D01*
X102041687Y-62925572D01*
X102049062Y-62934068D01*
X102057098Y-62944207D01*
X102171829Y-63058739D01*
X102183240Y-63067751D01*
X102321243Y-63152816D01*
X102334424Y-63158963D01*
X102488710Y-63210138D01*
X102502086Y-63213005D01*
X102596438Y-63222672D01*
X102602854Y-63223000D01*
X102715385Y-63223000D01*
X102730624Y-63218525D01*
X102731829Y-63217135D01*
X102733500Y-63209452D01*
X102733500Y-63204884D01*
X103241500Y-63204884D01*
X103245975Y-63220123D01*
X103247365Y-63221328D01*
X103255048Y-63222999D01*
X103372095Y-63222999D01*
X103378614Y-63222662D01*
X103474206Y-63212743D01*
X103487600Y-63209851D01*
X103641784Y-63158412D01*
X103654962Y-63152239D01*
X103792807Y-63066937D01*
X103804208Y-63057901D01*
X103918739Y-62943171D01*
X103927751Y-62931760D01*
X104012816Y-62793757D01*
X104018963Y-62780576D01*
X104070138Y-62626290D01*
X104073005Y-62612914D01*
X104082672Y-62518562D01*
X104083000Y-62512146D01*
X104083000Y-62262115D01*
X104078525Y-62246876D01*
X104077135Y-62245671D01*
X104069452Y-62244000D01*
X103259615Y-62244000D01*
X103244376Y-62248475D01*
X103243171Y-62249865D01*
X103241500Y-62257548D01*
X103241500Y-63204884D01*
X102733500Y-63204884D01*
X102733500Y-61717885D01*
X103241500Y-61717885D01*
X103245975Y-61733124D01*
X103247365Y-61734329D01*
X103255048Y-61736000D01*
X104064884Y-61736000D01*
X104080123Y-61731525D01*
X104081328Y-61730135D01*
X104082999Y-61722452D01*
X104082999Y-61467905D01*
X104082662Y-61461386D01*
X104072743Y-61365794D01*
X104069851Y-61352400D01*
X104018412Y-61198216D01*
X104012239Y-61185038D01*
X103926937Y-61047193D01*
X103917901Y-61035792D01*
X103803171Y-60921261D01*
X103791760Y-60912249D01*
X103653757Y-60827184D01*
X103640576Y-60821037D01*
X103486290Y-60769862D01*
X103472914Y-60766995D01*
X103378562Y-60757328D01*
X103372145Y-60757000D01*
X103259615Y-60757000D01*
X103244376Y-60761475D01*
X103243171Y-60762865D01*
X103241500Y-60770548D01*
X103241500Y-61717885D01*
X102733500Y-61717885D01*
X102733500Y-60775116D01*
X102729025Y-60759877D01*
X102727635Y-60758672D01*
X102719952Y-60757001D01*
X102602905Y-60757001D01*
X102596386Y-60757338D01*
X102500794Y-60767257D01*
X102487400Y-60770149D01*
X102333216Y-60821588D01*
X102320038Y-60827761D01*
X102182193Y-60913063D01*
X102170792Y-60922099D01*
X102056262Y-61036828D01*
X102049206Y-61045762D01*
X101991288Y-61086823D01*
X101920365Y-61090053D01*
X101858954Y-61054426D01*
X101852154Y-61046593D01*
X101848478Y-61040652D01*
X101723303Y-60915695D01*
X101697082Y-60899532D01*
X101578968Y-60826725D01*
X101578966Y-60826724D01*
X101572738Y-60822885D01*
X101492995Y-60796436D01*
X101411389Y-60769368D01*
X101411387Y-60769368D01*
X101404861Y-60767203D01*
X101398025Y-60766503D01*
X101398022Y-60766502D01*
X101354969Y-60762091D01*
X101300400Y-60756500D01*
X101157424Y-60756500D01*
X101089303Y-60736498D01*
X101068329Y-60719595D01*
X96529355Y-56180621D01*
X96520253Y-56170478D01*
X96500397Y-56145782D01*
X96496532Y-56140975D01*
X96458078Y-56108708D01*
X96454431Y-56105528D01*
X96452619Y-56103885D01*
X96450425Y-56101691D01*
X96417151Y-56074358D01*
X96416353Y-56073696D01*
X96345026Y-56013846D01*
X96340356Y-56011278D01*
X96336239Y-56007897D01*
X96254414Y-55964023D01*
X96253255Y-55963394D01*
X96177119Y-55921538D01*
X96177111Y-55921535D01*
X96171713Y-55918567D01*
X96166631Y-55916955D01*
X96161937Y-55914438D01*
X96072969Y-55887238D01*
X96071941Y-55886918D01*
X95983194Y-55858765D01*
X95977898Y-55858171D01*
X95972802Y-55856613D01*
X95880243Y-55847210D01*
X95879107Y-55847089D01*
X95845492Y-55843319D01*
X95832770Y-55841892D01*
X95832766Y-55841892D01*
X95829273Y-55841500D01*
X95825746Y-55841500D01*
X95824761Y-55841445D01*
X95819081Y-55840998D01*
X95789675Y-55838011D01*
X95782163Y-55837248D01*
X95782161Y-55837248D01*
X95776038Y-55836626D01*
X95733759Y-55840623D01*
X95730391Y-55840941D01*
X95718533Y-55841500D01*
X93926283Y-55841500D01*
X93858162Y-55821498D01*
X93833091Y-55800301D01*
X93829493Y-55796347D01*
X93821124Y-55787150D01*
X93817073Y-55783951D01*
X93817069Y-55783947D01*
X93638278Y-55642747D01*
X93638273Y-55642744D01*
X93634224Y-55639546D01*
X93629708Y-55637053D01*
X93629705Y-55637051D01*
X93430250Y-55526946D01*
X93430246Y-55526944D01*
X93425726Y-55524449D01*
X93420857Y-55522725D01*
X93420853Y-55522723D01*
X93206105Y-55446676D01*
X93206101Y-55446675D01*
X93201230Y-55444950D01*
X93196140Y-55444043D01*
X93196135Y-55444042D01*
X93068814Y-55421364D01*
X92966764Y-55403186D01*
X92877637Y-55402097D01*
X92733795Y-55400339D01*
X92733793Y-55400339D01*
X92728625Y-55400276D01*
X92493209Y-55436300D01*
X92266838Y-55510289D01*
X92055590Y-55620258D01*
X92051457Y-55623361D01*
X92051454Y-55623363D01*
X91869275Y-55760147D01*
X91865140Y-55763252D01*
X91861568Y-55766990D01*
X91715770Y-55919559D01*
X91700602Y-55935431D01*
X91658064Y-55997790D01*
X91603155Y-56042790D01*
X91532631Y-56050961D01*
X91480940Y-56026588D01*
X91478940Y-56026307D01*
X91467755Y-56031456D01*
X90379095Y-57120115D01*
X90316783Y-57154141D01*
X90245967Y-57149076D01*
X90200905Y-57120115D01*
X89115224Y-56034435D01*
X89102801Y-56027651D01*
X89039899Y-56052699D01*
X88970210Y-56039135D01*
X88922360Y-55995688D01*
X88904216Y-55967642D01*
X88901406Y-55963298D01*
X88859104Y-55916808D01*
X88806288Y-55858765D01*
X88741124Y-55787150D01*
X88737073Y-55783951D01*
X88737069Y-55783947D01*
X88583018Y-55662285D01*
X89467081Y-55662285D01*
X89473825Y-55674614D01*
X90277189Y-56477979D01*
X90291132Y-56485592D01*
X90292966Y-56485461D01*
X90299580Y-56481210D01*
X91107331Y-55673458D01*
X91114348Y-55660607D01*
X91106574Y-55649937D01*
X91098004Y-55643169D01*
X91089417Y-55637464D01*
X90890055Y-55527410D01*
X90880643Y-55523180D01*
X90665971Y-55447160D01*
X90656014Y-55444530D01*
X90431805Y-55404591D01*
X90421554Y-55403622D01*
X90193830Y-55400840D01*
X90183546Y-55401560D01*
X89958437Y-55436006D01*
X89948410Y-55438395D01*
X89731951Y-55509144D01*
X89722442Y-55513141D01*
X89520451Y-55618292D01*
X89511716Y-55623793D01*
X89475535Y-55650958D01*
X89467081Y-55662285D01*
X88583018Y-55662285D01*
X88558278Y-55642747D01*
X88558273Y-55642744D01*
X88554224Y-55639546D01*
X88549708Y-55637053D01*
X88549705Y-55637051D01*
X88350250Y-55526946D01*
X88350246Y-55526944D01*
X88345726Y-55524449D01*
X88340857Y-55522725D01*
X88340853Y-55522723D01*
X88126105Y-55446676D01*
X88126101Y-55446675D01*
X88121230Y-55444950D01*
X88116140Y-55444043D01*
X88116135Y-55444042D01*
X87988814Y-55421364D01*
X87886764Y-55403186D01*
X87797637Y-55402097D01*
X87653795Y-55400339D01*
X87653793Y-55400339D01*
X87648625Y-55400276D01*
X87413209Y-55436300D01*
X87186838Y-55510289D01*
X86975590Y-55620258D01*
X86971457Y-55623361D01*
X86971454Y-55623363D01*
X86789275Y-55760147D01*
X86785140Y-55763252D01*
X86781568Y-55766990D01*
X86635770Y-55919559D01*
X86620602Y-55935431D01*
X86617693Y-55939696D01*
X86617687Y-55939704D01*
X86568558Y-56011725D01*
X86486394Y-56132172D01*
X86386122Y-56348191D01*
X86322477Y-56577685D01*
X86297170Y-56814494D01*
X86297467Y-56819646D01*
X86297467Y-56819650D01*
X86309053Y-57020592D01*
X86310879Y-57052255D01*
X86312016Y-57057301D01*
X86312017Y-57057307D01*
X86333840Y-57154141D01*
X86363237Y-57284585D01*
X86365181Y-57289372D01*
X86372702Y-57307894D01*
X86379799Y-57378535D01*
X86347578Y-57441799D01*
X86286269Y-57477600D01*
X86255960Y-57481300D01*
X82290696Y-57481300D01*
X82222575Y-57461298D01*
X82201601Y-57444395D01*
X80607965Y-55850759D01*
X80573939Y-55788447D01*
X80579004Y-55717632D01*
X80621551Y-55660796D01*
X80641627Y-55648513D01*
X80739491Y-55600569D01*
X80744133Y-55598295D01*
X80748336Y-55595297D01*
X80748341Y-55595294D01*
X80933816Y-55462996D01*
X80933818Y-55462994D01*
X80938020Y-55459997D01*
X81106716Y-55291889D01*
X81245690Y-55098486D01*
X81351211Y-54884982D01*
X81420443Y-54657111D01*
X81451529Y-54420992D01*
X81452710Y-54372674D01*
X81474370Y-54305062D01*
X81489577Y-54286658D01*
X94979379Y-40796855D01*
X94989522Y-40787753D01*
X95014218Y-40767897D01*
X95019025Y-40764032D01*
X95051292Y-40725578D01*
X95054472Y-40721931D01*
X95056115Y-40720119D01*
X95058309Y-40717925D01*
X95085642Y-40684651D01*
X95086348Y-40683800D01*
X95142195Y-40617244D01*
X95146154Y-40612526D01*
X95148722Y-40607856D01*
X95152103Y-40603739D01*
X95195977Y-40521914D01*
X95196606Y-40520755D01*
X95238462Y-40444619D01*
X95238465Y-40444611D01*
X95241433Y-40439213D01*
X95243045Y-40434131D01*
X95245562Y-40429437D01*
X95272762Y-40340469D01*
X95273108Y-40339358D01*
X95277046Y-40326946D01*
X95301235Y-40250694D01*
X95301829Y-40245398D01*
X95303387Y-40240302D01*
X95312790Y-40147743D01*
X95312911Y-40146607D01*
X95318500Y-40096773D01*
X95318500Y-40093246D01*
X95318555Y-40092261D01*
X95319002Y-40086581D01*
X95323374Y-40043538D01*
X95319059Y-39997891D01*
X95318500Y-39986033D01*
X95318500Y-36963970D01*
X95338502Y-36895849D01*
X95346460Y-36885120D01*
X95348096Y-36883489D01*
X95478453Y-36702077D01*
X95499320Y-36659857D01*
X95575136Y-36506453D01*
X95575137Y-36506451D01*
X95577430Y-36501811D01*
X95642370Y-36288069D01*
X95671529Y-36066590D01*
X95673156Y-36000000D01*
X95654852Y-35777361D01*
X95600431Y-35560702D01*
X95511354Y-35355840D01*
X95390014Y-35168277D01*
X95239670Y-35003051D01*
X95235619Y-34999852D01*
X95235615Y-34999848D01*
X95068414Y-34867800D01*
X95068410Y-34867798D01*
X95064359Y-34864598D01*
X94868789Y-34756638D01*
X94863920Y-34754914D01*
X94863916Y-34754912D01*
X94663087Y-34683795D01*
X94663083Y-34683794D01*
X94658212Y-34682069D01*
X94653119Y-34681162D01*
X94653116Y-34681161D01*
X94443373Y-34643800D01*
X94443367Y-34643799D01*
X94438284Y-34642894D01*
X94364452Y-34641992D01*
X94220081Y-34640228D01*
X94220079Y-34640228D01*
X94214911Y-34640165D01*
X93994091Y-34673955D01*
X93781756Y-34743357D01*
X93583607Y-34846507D01*
X93579474Y-34849610D01*
X93579471Y-34849612D01*
X93409100Y-34977530D01*
X93404965Y-34980635D01*
X93250629Y-35142138D01*
X93143201Y-35299621D01*
X93088293Y-35344621D01*
X93017768Y-35352792D01*
X92954021Y-35321538D01*
X92933324Y-35297054D01*
X92852822Y-35172617D01*
X92852820Y-35172614D01*
X92850014Y-35168277D01*
X92699670Y-35003051D01*
X92695619Y-34999852D01*
X92695615Y-34999848D01*
X92528414Y-34867800D01*
X92528410Y-34867798D01*
X92524359Y-34864598D01*
X92328789Y-34756638D01*
X92323920Y-34754914D01*
X92323916Y-34754912D01*
X92123087Y-34683795D01*
X92123083Y-34683794D01*
X92118212Y-34682069D01*
X92113119Y-34681162D01*
X92113116Y-34681161D01*
X91903373Y-34643800D01*
X91903367Y-34643799D01*
X91898284Y-34642894D01*
X91824452Y-34641992D01*
X91680081Y-34640228D01*
X91680079Y-34640228D01*
X91674911Y-34640165D01*
X91454091Y-34673955D01*
X91241756Y-34743357D01*
X91043607Y-34846507D01*
X91039474Y-34849610D01*
X91039471Y-34849612D01*
X90869100Y-34977530D01*
X90864965Y-34980635D01*
X90710629Y-35142138D01*
X90603201Y-35299621D01*
X90548293Y-35344621D01*
X90477768Y-35352792D01*
X90414021Y-35321538D01*
X90393324Y-35297054D01*
X90312822Y-35172617D01*
X90312820Y-35172614D01*
X90310014Y-35168277D01*
X90159670Y-35003051D01*
X90155619Y-34999852D01*
X90155615Y-34999848D01*
X89988414Y-34867800D01*
X89988410Y-34867798D01*
X89984359Y-34864598D01*
X89788789Y-34756638D01*
X89783920Y-34754914D01*
X89783916Y-34754912D01*
X89583087Y-34683795D01*
X89583083Y-34683794D01*
X89578212Y-34682069D01*
X89573119Y-34681162D01*
X89573116Y-34681161D01*
X89363373Y-34643800D01*
X89363367Y-34643799D01*
X89358284Y-34642894D01*
X89284452Y-34641992D01*
X89140081Y-34640228D01*
X89140079Y-34640228D01*
X89134911Y-34640165D01*
X88914091Y-34673955D01*
X88701756Y-34743357D01*
X88503607Y-34846507D01*
X88499474Y-34849610D01*
X88499471Y-34849612D01*
X88329100Y-34977530D01*
X88324965Y-34980635D01*
X88321393Y-34984373D01*
X88243898Y-35065466D01*
X88182374Y-35100895D01*
X88111462Y-35097438D01*
X88053676Y-35056192D01*
X88034823Y-35022644D01*
X87993324Y-34911946D01*
X87984786Y-34896351D01*
X87908285Y-34794276D01*
X87895724Y-34781715D01*
X87793649Y-34705214D01*
X87778054Y-34696676D01*
X87657606Y-34651522D01*
X87642351Y-34647895D01*
X87591486Y-34642369D01*
X87584672Y-34642000D01*
X86962115Y-34642000D01*
X86946876Y-34646475D01*
X86945671Y-34647865D01*
X86944000Y-34655548D01*
X86944000Y-36128000D01*
X86923998Y-36196121D01*
X86870342Y-36242614D01*
X86818000Y-36254000D01*
X85350116Y-36254000D01*
X85334877Y-36258475D01*
X85333672Y-36259865D01*
X85332001Y-36267548D01*
X85332001Y-36415500D01*
X85311999Y-36483621D01*
X85258343Y-36530114D01*
X85206001Y-36541500D01*
X81207925Y-36541500D01*
X81139804Y-36521498D01*
X81118830Y-36504595D01*
X80342120Y-35727885D01*
X85332000Y-35727885D01*
X85336475Y-35743124D01*
X85337865Y-35744329D01*
X85345548Y-35746000D01*
X86417885Y-35746000D01*
X86433124Y-35741525D01*
X86434329Y-35740135D01*
X86436000Y-35732452D01*
X86436000Y-34660116D01*
X86431525Y-34644877D01*
X86430135Y-34643672D01*
X86422452Y-34642001D01*
X85795331Y-34642001D01*
X85788510Y-34642371D01*
X85737648Y-34647895D01*
X85722396Y-34651521D01*
X85601946Y-34696676D01*
X85586351Y-34705214D01*
X85484276Y-34781715D01*
X85471715Y-34794276D01*
X85395214Y-34896351D01*
X85386676Y-34911946D01*
X85341522Y-35032394D01*
X85337895Y-35047649D01*
X85332369Y-35098514D01*
X85332000Y-35105328D01*
X85332000Y-35727885D01*
X80342120Y-35727885D01*
X76773118Y-32158884D01*
X76739092Y-32096572D01*
X76736692Y-32080770D01*
X76732022Y-32027392D01*
X76731543Y-32021913D01*
X76672284Y-31800757D01*
X76588929Y-31622000D01*
X76577849Y-31598238D01*
X76577846Y-31598233D01*
X76575523Y-31593251D01*
X76502098Y-31488389D01*
X76447357Y-31410211D01*
X76447355Y-31410208D01*
X76444198Y-31405700D01*
X76282300Y-31243802D01*
X76277792Y-31240645D01*
X76277789Y-31240643D01*
X76174829Y-31168550D01*
X76094749Y-31112477D01*
X76089767Y-31110154D01*
X76089762Y-31110151D01*
X75892225Y-31018039D01*
X75892224Y-31018039D01*
X75887243Y-31015716D01*
X75881935Y-31014294D01*
X75881933Y-31014293D01*
X75671402Y-30957881D01*
X75671400Y-30957881D01*
X75666087Y-30956457D01*
X75438000Y-30936502D01*
X75209913Y-30956457D01*
X75204600Y-30957881D01*
X75204598Y-30957881D01*
X74994067Y-31014293D01*
X74994065Y-31014294D01*
X74988757Y-31015716D01*
X74983776Y-31018039D01*
X74983775Y-31018039D01*
X74786238Y-31110151D01*
X74786233Y-31110154D01*
X74781251Y-31112477D01*
X74706770Y-31164629D01*
X74639497Y-31187317D01*
X74570637Y-31170032D01*
X74522052Y-31118263D01*
X74508500Y-31061416D01*
X74508500Y-31053250D01*
X74510246Y-31032345D01*
X74512770Y-31017344D01*
X74512770Y-31017341D01*
X74513576Y-31012552D01*
X74513729Y-31000000D01*
X74513040Y-30995188D01*
X74512723Y-30990327D01*
X74513008Y-30990308D01*
X74512607Y-30963549D01*
X74519234Y-30904736D01*
X74525513Y-30877229D01*
X74552485Y-30800147D01*
X74564727Y-30774726D01*
X74608178Y-30705574D01*
X74625770Y-30683515D01*
X74683515Y-30625770D01*
X74705574Y-30608178D01*
X74774726Y-30564727D01*
X74800147Y-30552485D01*
X74877228Y-30525513D01*
X74904736Y-30519234D01*
X74960226Y-30512982D01*
X74975868Y-30513077D01*
X74975879Y-30512200D01*
X74984851Y-30512310D01*
X74993724Y-30513691D01*
X75002626Y-30512527D01*
X75002628Y-30512527D01*
X75017951Y-30510523D01*
X75025286Y-30509564D01*
X75041621Y-30508500D01*
X89621389Y-30508500D01*
X89689510Y-30528502D01*
G37*
G04 #@! TD.AperFunction*
M02*
