G04 #@! TF.GenerationSoftware,KiCad,Pcbnew,6.0.9*
G04 #@! TF.CreationDate,2022-11-23T21:17:52-08:00*
G04 #@! TF.ProjectId,shitpad,73686974-7061-4642-9e6b-696361645f70,rev?*
G04 #@! TF.SameCoordinates,Original*
G04 #@! TF.FileFunction,Legend,Top*
G04 #@! TF.FilePolarity,Positive*
%FSLAX46Y46*%
G04 Gerber Fmt 4.6, Leading zero omitted, Abs format (unit mm)*
G04 Created by KiCad (PCBNEW 6.0.9) date 2022-11-23 21:17:52*
%MOMM*%
%LPD*%
G01*
G04 APERTURE LIST*
G04 Aperture macros list*
%AMRoundRect*
0 Rectangle with rounded corners*
0 $1 Rounding radius*
0 $2 $3 $4 $5 $6 $7 $8 $9 X,Y pos of 4 corners*
0 Add a 4 corners polygon primitive as box body*
4,1,4,$2,$3,$4,$5,$6,$7,$8,$9,$2,$3,0*
0 Add four circle primitives for the rounded corners*
1,1,$1+$1,$2,$3*
1,1,$1+$1,$4,$5*
1,1,$1+$1,$6,$7*
1,1,$1+$1,$8,$9*
0 Add four rect primitives between the rounded corners*
20,1,$1+$1,$2,$3,$4,$5,0*
20,1,$1+$1,$4,$5,$6,$7,0*
20,1,$1+$1,$6,$7,$8,$9,0*
20,1,$1+$1,$8,$9,$2,$3,0*%
G04 Aperture macros list end*
%ADD10C,0.150000*%
%ADD11C,0.120000*%
%ADD12C,0.010000*%
%ADD13RoundRect,0.200000X0.850000X-0.850000X0.850000X0.850000X-0.850000X0.850000X-0.850000X-0.850000X0*%
%ADD14O,2.100000X2.100000*%
%ADD15RoundRect,0.200000X0.900000X0.900000X-0.900000X0.900000X-0.900000X-0.900000X0.900000X-0.900000X0*%
%ADD16C,2.200000*%
%ADD17C,2.279600*%
%ADD18C,2.000000*%
%ADD19O,2.000000X2.000000*%
G04 APERTURE END LIST*
D10*
X83372380Y-36333333D02*
X84086666Y-36333333D01*
X84229523Y-36380952D01*
X84324761Y-36476190D01*
X84372380Y-36619047D01*
X84372380Y-36714285D01*
X83467619Y-35904761D02*
X83420000Y-35857142D01*
X83372380Y-35761904D01*
X83372380Y-35523809D01*
X83420000Y-35428571D01*
X83467619Y-35380952D01*
X83562857Y-35333333D01*
X83658095Y-35333333D01*
X83800952Y-35380952D01*
X84372380Y-35952380D01*
X84372380Y-35333333D01*
D11*
X76500000Y-34000000D02*
X78500000Y-34000000D01*
X104500000Y-34000000D02*
X104500000Y-61000000D01*
X76500000Y-61000000D02*
X76500000Y-39000000D01*
X87960000Y-37330000D02*
X87960000Y-34670000D01*
X86360000Y-34670000D02*
X87690000Y-34670000D01*
X95640000Y-37330000D02*
X95640000Y-34670000D01*
X85360000Y-36000000D02*
X85360000Y-34670000D01*
X87960000Y-37330000D02*
X95640000Y-37330000D01*
X76500000Y-61000000D02*
X78500000Y-61000000D01*
X104500000Y-61000000D02*
X78500000Y-61000000D01*
X88960000Y-34670000D02*
X96640000Y-34670000D01*
X78500000Y-34000000D02*
X91500000Y-34000000D01*
X76500000Y-34000000D02*
X76500000Y-39000000D01*
X91500000Y-34000000D02*
X104500000Y-34000000D01*
X93508000Y-30670000D02*
X93508000Y-30514000D01*
X93508000Y-32986000D02*
X93508000Y-32830000D01*
X90906870Y-32829837D02*
G75*
G03*
X92988961Y-32830000I1041130J1079837D01*
G01*
X90275665Y-32828608D02*
G75*
G03*
X93508000Y-32985516I1672335J1078608D01*
G01*
X92988961Y-30670000D02*
G75*
G03*
X90906870Y-30670163I-1040961J-1080000D01*
G01*
X93508000Y-30514484D02*
G75*
G03*
X90275665Y-30671392I-1560000J-1235516D01*
G01*
G36*
X102186756Y-92479058D02*
G01*
X102294293Y-92483132D01*
X102383175Y-92490782D01*
X102422455Y-92496824D01*
X102548704Y-92542024D01*
X102655915Y-92622855D01*
X102738249Y-92734725D01*
X102747326Y-92752334D01*
X102766021Y-92791580D01*
X102780213Y-92827522D01*
X102790613Y-92866713D01*
X102797935Y-92915703D01*
X102802889Y-92981046D01*
X102806187Y-93069293D01*
X102808540Y-93186997D01*
X102810584Y-93334641D01*
X102812590Y-93494208D01*
X102812744Y-93618023D01*
X102809210Y-93712664D01*
X102800152Y-93784712D01*
X102783733Y-93840747D01*
X102758116Y-93887349D01*
X102721465Y-93931099D01*
X102671944Y-93978576D01*
X102617090Y-94027917D01*
X102531508Y-94091428D01*
X102433858Y-94135156D01*
X102314041Y-94162537D01*
X102182084Y-94175846D01*
X102097417Y-94181084D01*
X102112449Y-95482834D01*
X101621167Y-95482834D01*
X101619789Y-95234125D01*
X101618872Y-95166113D01*
X101616733Y-95060611D01*
X101613500Y-94922441D01*
X101609300Y-94756426D01*
X101604260Y-94567387D01*
X101598509Y-94360146D01*
X101592173Y-94139526D01*
X101585380Y-93910349D01*
X101581063Y-93768334D01*
X101574357Y-93544925D01*
X101568312Y-93333972D01*
X101563019Y-93139306D01*
X101558569Y-92964758D01*
X101555092Y-92815834D01*
X102038288Y-92815834D01*
X102051978Y-92977777D01*
X102056776Y-93056769D01*
X102060839Y-93166053D01*
X102063845Y-93293591D01*
X102065471Y-93427342D01*
X102065667Y-93488398D01*
X102065667Y-93837076D01*
X102184032Y-93827260D01*
X102258141Y-93816102D01*
X102308342Y-93798544D01*
X102321316Y-93787597D01*
X102326792Y-93757366D01*
X102330173Y-93691764D01*
X102331361Y-93597709D01*
X102330258Y-93482118D01*
X102327253Y-93366167D01*
X102322021Y-93223701D01*
X102316545Y-93116654D01*
X102309997Y-93038113D01*
X102301546Y-92981168D01*
X102290363Y-92938907D01*
X102275620Y-92904419D01*
X102270738Y-92895209D01*
X102239444Y-92845418D01*
X102206788Y-92822425D01*
X102155054Y-92816036D01*
X102132747Y-92815834D01*
X102038288Y-92815834D01*
X101555092Y-92815834D01*
X101555052Y-92814157D01*
X101552559Y-92691335D01*
X101551180Y-92600121D01*
X101551005Y-92544348D01*
X101551784Y-92527845D01*
X101576529Y-92514493D01*
X101635964Y-92502816D01*
X101722468Y-92493086D01*
X101828419Y-92485573D01*
X101946198Y-92480550D01*
X102068184Y-92478288D01*
X102186756Y-92479058D01*
G37*
D12*
X102186756Y-92479058D02*
X102294293Y-92483132D01*
X102383175Y-92490782D01*
X102422455Y-92496824D01*
X102548704Y-92542024D01*
X102655915Y-92622855D01*
X102738249Y-92734725D01*
X102747326Y-92752334D01*
X102766021Y-92791580D01*
X102780213Y-92827522D01*
X102790613Y-92866713D01*
X102797935Y-92915703D01*
X102802889Y-92981046D01*
X102806187Y-93069293D01*
X102808540Y-93186997D01*
X102810584Y-93334641D01*
X102812590Y-93494208D01*
X102812744Y-93618023D01*
X102809210Y-93712664D01*
X102800152Y-93784712D01*
X102783733Y-93840747D01*
X102758116Y-93887349D01*
X102721465Y-93931099D01*
X102671944Y-93978576D01*
X102617090Y-94027917D01*
X102531508Y-94091428D01*
X102433858Y-94135156D01*
X102314041Y-94162537D01*
X102182084Y-94175846D01*
X102097417Y-94181084D01*
X102112449Y-95482834D01*
X101621167Y-95482834D01*
X101619789Y-95234125D01*
X101618872Y-95166113D01*
X101616733Y-95060611D01*
X101613500Y-94922441D01*
X101609300Y-94756426D01*
X101604260Y-94567387D01*
X101598509Y-94360146D01*
X101592173Y-94139526D01*
X101585380Y-93910349D01*
X101581063Y-93768334D01*
X101574357Y-93544925D01*
X101568312Y-93333972D01*
X101563019Y-93139306D01*
X101558569Y-92964758D01*
X101555092Y-92815834D01*
X102038288Y-92815834D01*
X102051978Y-92977777D01*
X102056776Y-93056769D01*
X102060839Y-93166053D01*
X102063845Y-93293591D01*
X102065471Y-93427342D01*
X102065667Y-93488398D01*
X102065667Y-93837076D01*
X102184032Y-93827260D01*
X102258141Y-93816102D01*
X102308342Y-93798544D01*
X102321316Y-93787597D01*
X102326792Y-93757366D01*
X102330173Y-93691764D01*
X102331361Y-93597709D01*
X102330258Y-93482118D01*
X102327253Y-93366167D01*
X102322021Y-93223701D01*
X102316545Y-93116654D01*
X102309997Y-93038113D01*
X102301546Y-92981168D01*
X102290363Y-92938907D01*
X102275620Y-92904419D01*
X102270738Y-92895209D01*
X102239444Y-92845418D01*
X102206788Y-92822425D01*
X102155054Y-92816036D01*
X102132747Y-92815834D01*
X102038288Y-92815834D01*
X101555092Y-92815834D01*
X101555052Y-92814157D01*
X101552559Y-92691335D01*
X101551180Y-92600121D01*
X101551005Y-92544348D01*
X101551784Y-92527845D01*
X101576529Y-92514493D01*
X101635964Y-92502816D01*
X101722468Y-92493086D01*
X101828419Y-92485573D01*
X101946198Y-92480550D01*
X102068184Y-92478288D01*
X102186756Y-92479058D01*
G36*
X98069156Y-32289335D02*
G01*
X98274444Y-32128926D01*
X98332574Y-32083535D01*
X99647730Y-31056742D01*
X101867407Y-31022234D01*
X102189139Y-31017209D01*
X102511818Y-31012123D01*
X102831302Y-31007045D01*
X103143450Y-31002042D01*
X103444122Y-30997182D01*
X103729174Y-30992533D01*
X103994467Y-30988162D01*
X104235859Y-30984137D01*
X104449208Y-30980526D01*
X104630373Y-30977396D01*
X104775214Y-30974815D01*
X104827391Y-30973852D01*
X105567699Y-30959977D01*
X105515308Y-31022208D01*
X105492522Y-31048538D01*
X105444213Y-31103797D01*
X105372861Y-31185165D01*
X105280945Y-31289822D01*
X105170944Y-31414948D01*
X105045338Y-31557724D01*
X104906605Y-31715329D01*
X104757227Y-31884944D01*
X104599681Y-32063749D01*
X104535219Y-32136886D01*
X103607521Y-33189334D01*
X100270723Y-33189334D01*
X99831195Y-33189323D01*
X99432081Y-33189278D01*
X99071460Y-33189174D01*
X98747414Y-33188989D01*
X98458023Y-33188699D01*
X98201367Y-33188281D01*
X97975526Y-33187713D01*
X97778581Y-33186972D01*
X97608613Y-33186034D01*
X97463701Y-33184876D01*
X97341926Y-33183476D01*
X97241369Y-33181810D01*
X97160109Y-33179856D01*
X97096227Y-33177590D01*
X97047804Y-33174990D01*
X97012920Y-33172031D01*
X96989655Y-33168693D01*
X96976089Y-33164950D01*
X96970303Y-33160781D01*
X96970378Y-33156162D01*
X96974393Y-33151070D01*
X96975671Y-33149831D01*
X96998630Y-33130818D01*
X97052350Y-33087842D01*
X97134206Y-33022965D01*
X97241572Y-32938251D01*
X97371822Y-32835762D01*
X97522331Y-32717563D01*
X97690474Y-32585717D01*
X97782137Y-32513932D01*
X99029309Y-32513932D01*
X99044398Y-32518944D01*
X99098720Y-32523289D01*
X99189178Y-32526889D01*
X99312678Y-32529664D01*
X99466121Y-32531533D01*
X99646413Y-32532417D01*
X99748975Y-32532462D01*
X100488750Y-32531758D01*
X100510541Y-32505715D01*
X101576284Y-32505715D01*
X101577863Y-32513479D01*
X101591164Y-32519597D01*
X101620017Y-32524250D01*
X101668253Y-32527620D01*
X101739702Y-32529888D01*
X101838196Y-32531234D01*
X101967566Y-32531839D01*
X102131641Y-32531886D01*
X102332261Y-32531558D01*
X103113417Y-32529949D01*
X103497424Y-32092349D01*
X103597608Y-31977960D01*
X103687830Y-31874513D01*
X103764555Y-31786097D01*
X103824246Y-31716804D01*
X103863366Y-31670723D01*
X103878379Y-31651943D01*
X103878424Y-31651729D01*
X103857337Y-31651344D01*
X103798552Y-31651552D01*
X103706700Y-31652304D01*
X103586410Y-31653551D01*
X103442315Y-31655246D01*
X103279045Y-31657339D01*
X103101229Y-31659782D01*
X103075000Y-31660156D01*
X102274584Y-31671603D01*
X101944336Y-32065343D01*
X101850599Y-32177081D01*
X101764567Y-32279597D01*
X101690419Y-32367912D01*
X101632335Y-32437050D01*
X101594495Y-32482035D01*
X101582597Y-32496125D01*
X101576284Y-32505715D01*
X100510541Y-32505715D01*
X100834766Y-32118242D01*
X100928161Y-32005826D01*
X101011247Y-31904275D01*
X101080521Y-31817999D01*
X101132477Y-31751408D01*
X101163611Y-31708915D01*
X101171053Y-31694998D01*
X101148138Y-31692929D01*
X101088566Y-31692095D01*
X100997997Y-31692445D01*
X100882089Y-31693932D01*
X100746499Y-31696506D01*
X100605909Y-31699880D01*
X100050494Y-31714491D01*
X99549955Y-32104594D01*
X99423292Y-32203427D01*
X99307076Y-32294328D01*
X99205614Y-32373910D01*
X99123217Y-32438786D01*
X99064192Y-32485568D01*
X99032849Y-32510869D01*
X99029309Y-32513932D01*
X97782137Y-32513932D01*
X97873624Y-32442286D01*
X98069156Y-32289335D01*
G37*
X98069156Y-32289335D02*
X98274444Y-32128926D01*
X98332574Y-32083535D01*
X99647730Y-31056742D01*
X101867407Y-31022234D01*
X102189139Y-31017209D01*
X102511818Y-31012123D01*
X102831302Y-31007045D01*
X103143450Y-31002042D01*
X103444122Y-30997182D01*
X103729174Y-30992533D01*
X103994467Y-30988162D01*
X104235859Y-30984137D01*
X104449208Y-30980526D01*
X104630373Y-30977396D01*
X104775214Y-30974815D01*
X104827391Y-30973852D01*
X105567699Y-30959977D01*
X105515308Y-31022208D01*
X105492522Y-31048538D01*
X105444213Y-31103797D01*
X105372861Y-31185165D01*
X105280945Y-31289822D01*
X105170944Y-31414948D01*
X105045338Y-31557724D01*
X104906605Y-31715329D01*
X104757227Y-31884944D01*
X104599681Y-32063749D01*
X104535219Y-32136886D01*
X103607521Y-33189334D01*
X100270723Y-33189334D01*
X99831195Y-33189323D01*
X99432081Y-33189278D01*
X99071460Y-33189174D01*
X98747414Y-33188989D01*
X98458023Y-33188699D01*
X98201367Y-33188281D01*
X97975526Y-33187713D01*
X97778581Y-33186972D01*
X97608613Y-33186034D01*
X97463701Y-33184876D01*
X97341926Y-33183476D01*
X97241369Y-33181810D01*
X97160109Y-33179856D01*
X97096227Y-33177590D01*
X97047804Y-33174990D01*
X97012920Y-33172031D01*
X96989655Y-33168693D01*
X96976089Y-33164950D01*
X96970303Y-33160781D01*
X96970378Y-33156162D01*
X96974393Y-33151070D01*
X96975671Y-33149831D01*
X96998630Y-33130818D01*
X97052350Y-33087842D01*
X97134206Y-33022965D01*
X97241572Y-32938251D01*
X97371822Y-32835762D01*
X97522331Y-32717563D01*
X97690474Y-32585717D01*
X97782137Y-32513932D01*
X99029309Y-32513932D01*
X99044398Y-32518944D01*
X99098720Y-32523289D01*
X99189178Y-32526889D01*
X99312678Y-32529664D01*
X99466121Y-32531533D01*
X99646413Y-32532417D01*
X99748975Y-32532462D01*
X100488750Y-32531758D01*
X100510541Y-32505715D01*
X101576284Y-32505715D01*
X101577863Y-32513479D01*
X101591164Y-32519597D01*
X101620017Y-32524250D01*
X101668253Y-32527620D01*
X101739702Y-32529888D01*
X101838196Y-32531234D01*
X101967566Y-32531839D01*
X102131641Y-32531886D01*
X102332261Y-32531558D01*
X103113417Y-32529949D01*
X103497424Y-32092349D01*
X103597608Y-31977960D01*
X103687830Y-31874513D01*
X103764555Y-31786097D01*
X103824246Y-31716804D01*
X103863366Y-31670723D01*
X103878379Y-31651943D01*
X103878424Y-31651729D01*
X103857337Y-31651344D01*
X103798552Y-31651552D01*
X103706700Y-31652304D01*
X103586410Y-31653551D01*
X103442315Y-31655246D01*
X103279045Y-31657339D01*
X103101229Y-31659782D01*
X103075000Y-31660156D01*
X102274584Y-31671603D01*
X101944336Y-32065343D01*
X101850599Y-32177081D01*
X101764567Y-32279597D01*
X101690419Y-32367912D01*
X101632335Y-32437050D01*
X101594495Y-32482035D01*
X101582597Y-32496125D01*
X101576284Y-32505715D01*
X100510541Y-32505715D01*
X100834766Y-32118242D01*
X100928161Y-32005826D01*
X101011247Y-31904275D01*
X101080521Y-31817999D01*
X101132477Y-31751408D01*
X101163611Y-31708915D01*
X101171053Y-31694998D01*
X101148138Y-31692929D01*
X101088566Y-31692095D01*
X100997997Y-31692445D01*
X100882089Y-31693932D01*
X100746499Y-31696506D01*
X100605909Y-31699880D01*
X100050494Y-31714491D01*
X99549955Y-32104594D01*
X99423292Y-32203427D01*
X99307076Y-32294328D01*
X99205614Y-32373910D01*
X99123217Y-32438786D01*
X99064192Y-32485568D01*
X99032849Y-32510869D01*
X99029309Y-32513932D01*
X97782137Y-32513932D01*
X97873624Y-32442286D01*
X98069156Y-32289335D01*
G36*
X98076546Y-93091409D02*
G01*
X98157910Y-93092523D01*
X98213681Y-93094175D01*
X98235671Y-93096196D01*
X98235734Y-93096292D01*
X98236702Y-93118831D01*
X98238485Y-93178866D01*
X98240974Y-93271782D01*
X98244065Y-93392963D01*
X98247651Y-93537795D01*
X98251624Y-93701661D01*
X98255878Y-93879945D01*
X98260308Y-94068034D01*
X98264805Y-94261310D01*
X98269264Y-94455160D01*
X98273577Y-94644966D01*
X98277639Y-94826114D01*
X98281343Y-94993989D01*
X98284582Y-95143975D01*
X98287249Y-95271456D01*
X98289238Y-95371817D01*
X98290442Y-95440442D01*
X98290756Y-95472717D01*
X98290663Y-95474620D01*
X98269585Y-95476718D01*
X98214856Y-95480613D01*
X98135089Y-95485724D01*
X98051006Y-95490766D01*
X97814594Y-95504543D01*
X97802978Y-95371980D01*
X97799805Y-95321054D01*
X97795793Y-95233365D01*
X97791139Y-95114474D01*
X97786037Y-94969939D01*
X97780682Y-94805320D01*
X97775270Y-94626174D01*
X97769995Y-94438061D01*
X97769348Y-94413917D01*
X97763976Y-94218911D01*
X97758365Y-94026867D01*
X97752729Y-93844336D01*
X97747283Y-93677864D01*
X97742242Y-93534001D01*
X97737819Y-93419295D01*
X97734228Y-93340296D01*
X97734197Y-93339709D01*
X97721061Y-93091000D01*
X97977780Y-93091000D01*
X98076546Y-93091409D01*
G37*
X98076546Y-93091409D02*
X98157910Y-93092523D01*
X98213681Y-93094175D01*
X98235671Y-93096196D01*
X98235734Y-93096292D01*
X98236702Y-93118831D01*
X98238485Y-93178866D01*
X98240974Y-93271782D01*
X98244065Y-93392963D01*
X98247651Y-93537795D01*
X98251624Y-93701661D01*
X98255878Y-93879945D01*
X98260308Y-94068034D01*
X98264805Y-94261310D01*
X98269264Y-94455160D01*
X98273577Y-94644966D01*
X98277639Y-94826114D01*
X98281343Y-94993989D01*
X98284582Y-95143975D01*
X98287249Y-95271456D01*
X98289238Y-95371817D01*
X98290442Y-95440442D01*
X98290756Y-95472717D01*
X98290663Y-95474620D01*
X98269585Y-95476718D01*
X98214856Y-95480613D01*
X98135089Y-95485724D01*
X98051006Y-95490766D01*
X97814594Y-95504543D01*
X97802978Y-95371980D01*
X97799805Y-95321054D01*
X97795793Y-95233365D01*
X97791139Y-95114474D01*
X97786037Y-94969939D01*
X97780682Y-94805320D01*
X97775270Y-94626174D01*
X97769995Y-94438061D01*
X97769348Y-94413917D01*
X97763976Y-94218911D01*
X97758365Y-94026867D01*
X97752729Y-93844336D01*
X97747283Y-93677864D01*
X97742242Y-93534001D01*
X97737819Y-93419295D01*
X97734228Y-93340296D01*
X97734197Y-93339709D01*
X97721061Y-93091000D01*
X97977780Y-93091000D01*
X98076546Y-93091409D01*
G36*
X80240203Y-65686187D02*
G01*
X80276654Y-65599321D01*
X80345007Y-65489191D01*
X80439835Y-65376826D01*
X80549121Y-65274198D01*
X80660848Y-65193282D01*
X80711959Y-65165602D01*
X80899199Y-65098964D01*
X81087360Y-65071907D01*
X81271896Y-65082035D01*
X81448259Y-65126949D01*
X81611904Y-65204253D01*
X81758282Y-65311549D01*
X81882847Y-65446440D01*
X81981052Y-65606529D01*
X82048350Y-65789418D01*
X82067646Y-65880361D01*
X82078768Y-66067881D01*
X82051717Y-66247439D01*
X81990445Y-66415281D01*
X81898901Y-66567651D01*
X81781038Y-66700796D01*
X81640805Y-66810962D01*
X81482153Y-66894394D01*
X81309035Y-66947338D01*
X81125399Y-66966039D01*
X80943626Y-66948440D01*
X80783988Y-66898384D01*
X80628257Y-66815307D01*
X80485962Y-66706515D01*
X80366630Y-66579310D01*
X80279788Y-66440997D01*
X80278703Y-66438708D01*
X80214307Y-66255890D01*
X80186411Y-66063686D01*
X80188500Y-66016974D01*
X80772348Y-66016974D01*
X80790978Y-66130416D01*
X80842860Y-66228021D01*
X80920648Y-66304823D01*
X81016993Y-66355854D01*
X81124547Y-66376148D01*
X81235963Y-66360737D01*
X81265136Y-66350070D01*
X81362578Y-66287763D01*
X81435502Y-66197646D01*
X81478600Y-66089632D01*
X81486563Y-65973634D01*
X81482395Y-65944298D01*
X81451013Y-65865446D01*
X81392630Y-65785461D01*
X81319565Y-65718896D01*
X81265136Y-65687597D01*
X81152302Y-65661131D01*
X81042196Y-65671937D01*
X80942031Y-65715193D01*
X80859023Y-65786075D01*
X80800388Y-65879761D01*
X80773341Y-65991429D01*
X80772348Y-66016974D01*
X80188500Y-66016974D01*
X80195036Y-65870862D01*
X80240203Y-65686187D01*
G37*
X80240203Y-65686187D02*
X80276654Y-65599321D01*
X80345007Y-65489191D01*
X80439835Y-65376826D01*
X80549121Y-65274198D01*
X80660848Y-65193282D01*
X80711959Y-65165602D01*
X80899199Y-65098964D01*
X81087360Y-65071907D01*
X81271896Y-65082035D01*
X81448259Y-65126949D01*
X81611904Y-65204253D01*
X81758282Y-65311549D01*
X81882847Y-65446440D01*
X81981052Y-65606529D01*
X82048350Y-65789418D01*
X82067646Y-65880361D01*
X82078768Y-66067881D01*
X82051717Y-66247439D01*
X81990445Y-66415281D01*
X81898901Y-66567651D01*
X81781038Y-66700796D01*
X81640805Y-66810962D01*
X81482153Y-66894394D01*
X81309035Y-66947338D01*
X81125399Y-66966039D01*
X80943626Y-66948440D01*
X80783988Y-66898384D01*
X80628257Y-66815307D01*
X80485962Y-66706515D01*
X80366630Y-66579310D01*
X80279788Y-66440997D01*
X80278703Y-66438708D01*
X80214307Y-66255890D01*
X80186411Y-66063686D01*
X80188500Y-66016974D01*
X80772348Y-66016974D01*
X80790978Y-66130416D01*
X80842860Y-66228021D01*
X80920648Y-66304823D01*
X81016993Y-66355854D01*
X81124547Y-66376148D01*
X81235963Y-66360737D01*
X81265136Y-66350070D01*
X81362578Y-66287763D01*
X81435502Y-66197646D01*
X81478600Y-66089632D01*
X81486563Y-65973634D01*
X81482395Y-65944298D01*
X81451013Y-65865446D01*
X81392630Y-65785461D01*
X81319565Y-65718896D01*
X81265136Y-65687597D01*
X81152302Y-65661131D01*
X81042196Y-65671937D01*
X80942031Y-65715193D01*
X80859023Y-65786075D01*
X80800388Y-65879761D01*
X80773341Y-65991429D01*
X80772348Y-66016974D01*
X80188500Y-66016974D01*
X80195036Y-65870862D01*
X80240203Y-65686187D01*
G36*
X96464978Y-92521250D02*
G01*
X96557848Y-92525846D01*
X96628675Y-92532309D01*
X96630534Y-92532559D01*
X96725810Y-92545618D01*
X96741005Y-92897603D01*
X96746582Y-93015126D01*
X96752380Y-93117121D01*
X96757912Y-93196401D01*
X96762693Y-93245781D01*
X96765417Y-93258806D01*
X96784438Y-93250962D01*
X96822458Y-93220652D01*
X96846735Y-93198141D01*
X96917529Y-93145866D01*
X97006562Y-93112420D01*
X97122267Y-93095362D01*
X97213758Y-93091922D01*
X97285656Y-93095457D01*
X97341928Y-93112121D01*
X97402405Y-93148862D01*
X97426539Y-93166483D01*
X97527644Y-93241965D01*
X97574035Y-94377100D01*
X97584385Y-94634967D01*
X97592703Y-94853439D01*
X97599040Y-95035406D01*
X97603447Y-95183753D01*
X97605972Y-95301370D01*
X97606667Y-95391143D01*
X97605582Y-95455962D01*
X97602766Y-95498712D01*
X97598271Y-95522284D01*
X97594087Y-95528960D01*
X97563038Y-95535863D01*
X97499686Y-95541444D01*
X97414058Y-95545031D01*
X97340209Y-95546009D01*
X97112667Y-95546334D01*
X97112331Y-95445792D01*
X97111123Y-95332847D01*
X97108304Y-95195625D01*
X97104090Y-95039094D01*
X97098698Y-94868223D01*
X97092345Y-94687983D01*
X97085246Y-94503343D01*
X97077618Y-94319272D01*
X97069678Y-94140739D01*
X97061642Y-93972715D01*
X97053726Y-93820168D01*
X97046146Y-93688067D01*
X97039120Y-93581383D01*
X97032863Y-93505084D01*
X97027592Y-93464140D01*
X97025807Y-93458774D01*
X96984321Y-93436673D01*
X96919375Y-93428557D01*
X96847209Y-93433712D01*
X96784062Y-93451424D01*
X96754124Y-93470709D01*
X96734316Y-93495628D01*
X96723079Y-93528041D01*
X96719009Y-93578120D01*
X96720703Y-93656034D01*
X96722731Y-93698251D01*
X96727437Y-93798935D01*
X96732790Y-93929773D01*
X96738572Y-94083768D01*
X96744563Y-94253926D01*
X96750542Y-94433250D01*
X96756292Y-94614745D01*
X96761591Y-94791416D01*
X96766221Y-94956266D01*
X96769962Y-95102300D01*
X96772594Y-95222522D01*
X96773898Y-95309938D01*
X96774000Y-95331880D01*
X96774000Y-95525167D01*
X96287167Y-95525167D01*
X96287167Y-95364337D01*
X96286540Y-95307935D01*
X96284751Y-95214214D01*
X96281940Y-95088169D01*
X96278245Y-94934793D01*
X96273806Y-94759083D01*
X96268761Y-94566031D01*
X96263250Y-94360632D01*
X96257411Y-94147882D01*
X96251384Y-93932774D01*
X96245307Y-93720303D01*
X96239320Y-93515462D01*
X96233561Y-93323248D01*
X96228170Y-93148654D01*
X96223285Y-92996675D01*
X96219046Y-92872304D01*
X96215591Y-92780537D01*
X96214618Y-92757625D01*
X96204053Y-92519500D01*
X96369655Y-92519500D01*
X96464978Y-92521250D01*
G37*
X96464978Y-92521250D02*
X96557848Y-92525846D01*
X96628675Y-92532309D01*
X96630534Y-92532559D01*
X96725810Y-92545618D01*
X96741005Y-92897603D01*
X96746582Y-93015126D01*
X96752380Y-93117121D01*
X96757912Y-93196401D01*
X96762693Y-93245781D01*
X96765417Y-93258806D01*
X96784438Y-93250962D01*
X96822458Y-93220652D01*
X96846735Y-93198141D01*
X96917529Y-93145866D01*
X97006562Y-93112420D01*
X97122267Y-93095362D01*
X97213758Y-93091922D01*
X97285656Y-93095457D01*
X97341928Y-93112121D01*
X97402405Y-93148862D01*
X97426539Y-93166483D01*
X97527644Y-93241965D01*
X97574035Y-94377100D01*
X97584385Y-94634967D01*
X97592703Y-94853439D01*
X97599040Y-95035406D01*
X97603447Y-95183753D01*
X97605972Y-95301370D01*
X97606667Y-95391143D01*
X97605582Y-95455962D01*
X97602766Y-95498712D01*
X97598271Y-95522284D01*
X97594087Y-95528960D01*
X97563038Y-95535863D01*
X97499686Y-95541444D01*
X97414058Y-95545031D01*
X97340209Y-95546009D01*
X97112667Y-95546334D01*
X97112331Y-95445792D01*
X97111123Y-95332847D01*
X97108304Y-95195625D01*
X97104090Y-95039094D01*
X97098698Y-94868223D01*
X97092345Y-94687983D01*
X97085246Y-94503343D01*
X97077618Y-94319272D01*
X97069678Y-94140739D01*
X97061642Y-93972715D01*
X97053726Y-93820168D01*
X97046146Y-93688067D01*
X97039120Y-93581383D01*
X97032863Y-93505084D01*
X97027592Y-93464140D01*
X97025807Y-93458774D01*
X96984321Y-93436673D01*
X96919375Y-93428557D01*
X96847209Y-93433712D01*
X96784062Y-93451424D01*
X96754124Y-93470709D01*
X96734316Y-93495628D01*
X96723079Y-93528041D01*
X96719009Y-93578120D01*
X96720703Y-93656034D01*
X96722731Y-93698251D01*
X96727437Y-93798935D01*
X96732790Y-93929773D01*
X96738572Y-94083768D01*
X96744563Y-94253926D01*
X96750542Y-94433250D01*
X96756292Y-94614745D01*
X96761591Y-94791416D01*
X96766221Y-94956266D01*
X96769962Y-95102300D01*
X96772594Y-95222522D01*
X96773898Y-95309938D01*
X96774000Y-95331880D01*
X96774000Y-95525167D01*
X96287167Y-95525167D01*
X96287167Y-95364337D01*
X96286540Y-95307935D01*
X96284751Y-95214214D01*
X96281940Y-95088169D01*
X96278245Y-94934793D01*
X96273806Y-94759083D01*
X96268761Y-94566031D01*
X96263250Y-94360632D01*
X96257411Y-94147882D01*
X96251384Y-93932774D01*
X96245307Y-93720303D01*
X96239320Y-93515462D01*
X96233561Y-93323248D01*
X96228170Y-93148654D01*
X96223285Y-92996675D01*
X96219046Y-92872304D01*
X96215591Y-92780537D01*
X96214618Y-92757625D01*
X96204053Y-92519500D01*
X96369655Y-92519500D01*
X96464978Y-92521250D01*
G36*
X104418652Y-94559019D02*
G01*
X104415893Y-94324179D01*
X104415167Y-94255167D01*
X104413417Y-94048773D01*
X104412490Y-93853843D01*
X104412356Y-93674760D01*
X104412985Y-93515908D01*
X104414346Y-93381672D01*
X104416409Y-93276435D01*
X104419144Y-93204581D01*
X104422520Y-93170494D01*
X104422670Y-93169971D01*
X104457495Y-93115629D01*
X104522918Y-93063324D01*
X104530363Y-93058846D01*
X104585209Y-93030953D01*
X104640804Y-93014904D01*
X104711928Y-93007714D01*
X104790360Y-93006334D01*
X104878201Y-93007650D01*
X104938661Y-93014259D01*
X104986673Y-93030151D01*
X105037170Y-93059314D01*
X105068958Y-93080768D01*
X105177167Y-93155202D01*
X105177167Y-92434834D01*
X105680291Y-92434834D01*
X105694677Y-93096292D01*
X105697946Y-93280279D01*
X105700553Y-93495802D01*
X105702444Y-93732072D01*
X105703563Y-93978295D01*
X105703853Y-94223680D01*
X105703260Y-94457435D01*
X105702407Y-94593834D01*
X105695750Y-95429917D01*
X105217318Y-95441907D01*
X105231348Y-95367120D01*
X105237396Y-95316745D01*
X105227487Y-95295650D01*
X105208546Y-95292334D01*
X105172193Y-95305821D01*
X105120911Y-95340152D01*
X105092240Y-95364134D01*
X104984097Y-95433711D01*
X104903424Y-95459384D01*
X104830346Y-95473928D01*
X104780967Y-95479184D01*
X104737877Y-95475968D01*
X104700917Y-95468851D01*
X104590941Y-95436375D01*
X104507329Y-95393322D01*
X104457719Y-95343718D01*
X104455356Y-95339410D01*
X104448209Y-95317971D01*
X104442037Y-95281360D01*
X104436718Y-95226288D01*
X104432130Y-95149470D01*
X104428151Y-95047621D01*
X104424660Y-94917453D01*
X104423321Y-94848149D01*
X104902248Y-94848149D01*
X104902967Y-94928839D01*
X104905179Y-94987807D01*
X104909024Y-95029176D01*
X104914645Y-95057066D01*
X104922182Y-95075598D01*
X104931777Y-95088894D01*
X104941385Y-95098885D01*
X105001040Y-95133053D01*
X105075974Y-95144056D01*
X105144974Y-95129472D01*
X105156000Y-95123395D01*
X105164020Y-95113642D01*
X105170597Y-95093009D01*
X105175868Y-95057725D01*
X105179970Y-95004020D01*
X105183040Y-94928126D01*
X105185214Y-94826273D01*
X105186630Y-94694689D01*
X105187423Y-94529607D01*
X105187732Y-94327256D01*
X105187750Y-94248545D01*
X105187707Y-94026749D01*
X105187243Y-93843591D01*
X105185851Y-93695372D01*
X105183028Y-93578397D01*
X105178267Y-93488968D01*
X105171065Y-93423389D01*
X105160917Y-93377964D01*
X105147316Y-93348995D01*
X105129759Y-93332786D01*
X105107740Y-93325641D01*
X105080755Y-93323862D01*
X105061439Y-93323834D01*
X105029120Y-93324193D01*
X105002440Y-93327765D01*
X104980777Y-93338292D01*
X104963508Y-93359517D01*
X104950011Y-93395182D01*
X104939665Y-93449028D01*
X104931846Y-93524798D01*
X104925933Y-93626234D01*
X104921303Y-93757079D01*
X104917334Y-93921074D01*
X104913405Y-94121961D01*
X104911477Y-94225760D01*
X104907636Y-94434544D01*
X104904724Y-94605122D01*
X104902881Y-94741617D01*
X104902248Y-94848149D01*
X104423321Y-94848149D01*
X104421534Y-94755681D01*
X104418652Y-94559019D01*
G37*
X104418652Y-94559019D02*
X104415893Y-94324179D01*
X104415167Y-94255167D01*
X104413417Y-94048773D01*
X104412490Y-93853843D01*
X104412356Y-93674760D01*
X104412985Y-93515908D01*
X104414346Y-93381672D01*
X104416409Y-93276435D01*
X104419144Y-93204581D01*
X104422520Y-93170494D01*
X104422670Y-93169971D01*
X104457495Y-93115629D01*
X104522918Y-93063324D01*
X104530363Y-93058846D01*
X104585209Y-93030953D01*
X104640804Y-93014904D01*
X104711928Y-93007714D01*
X104790360Y-93006334D01*
X104878201Y-93007650D01*
X104938661Y-93014259D01*
X104986673Y-93030151D01*
X105037170Y-93059314D01*
X105068958Y-93080768D01*
X105177167Y-93155202D01*
X105177167Y-92434834D01*
X105680291Y-92434834D01*
X105694677Y-93096292D01*
X105697946Y-93280279D01*
X105700553Y-93495802D01*
X105702444Y-93732072D01*
X105703563Y-93978295D01*
X105703853Y-94223680D01*
X105703260Y-94457435D01*
X105702407Y-94593834D01*
X105695750Y-95429917D01*
X105217318Y-95441907D01*
X105231348Y-95367120D01*
X105237396Y-95316745D01*
X105227487Y-95295650D01*
X105208546Y-95292334D01*
X105172193Y-95305821D01*
X105120911Y-95340152D01*
X105092240Y-95364134D01*
X104984097Y-95433711D01*
X104903424Y-95459384D01*
X104830346Y-95473928D01*
X104780967Y-95479184D01*
X104737877Y-95475968D01*
X104700917Y-95468851D01*
X104590941Y-95436375D01*
X104507329Y-95393322D01*
X104457719Y-95343718D01*
X104455356Y-95339410D01*
X104448209Y-95317971D01*
X104442037Y-95281360D01*
X104436718Y-95226288D01*
X104432130Y-95149470D01*
X104428151Y-95047621D01*
X104424660Y-94917453D01*
X104423321Y-94848149D01*
X104902248Y-94848149D01*
X104902967Y-94928839D01*
X104905179Y-94987807D01*
X104909024Y-95029176D01*
X104914645Y-95057066D01*
X104922182Y-95075598D01*
X104931777Y-95088894D01*
X104941385Y-95098885D01*
X105001040Y-95133053D01*
X105075974Y-95144056D01*
X105144974Y-95129472D01*
X105156000Y-95123395D01*
X105164020Y-95113642D01*
X105170597Y-95093009D01*
X105175868Y-95057725D01*
X105179970Y-95004020D01*
X105183040Y-94928126D01*
X105185214Y-94826273D01*
X105186630Y-94694689D01*
X105187423Y-94529607D01*
X105187732Y-94327256D01*
X105187750Y-94248545D01*
X105187707Y-94026749D01*
X105187243Y-93843591D01*
X105185851Y-93695372D01*
X105183028Y-93578397D01*
X105178267Y-93488968D01*
X105171065Y-93423389D01*
X105160917Y-93377964D01*
X105147316Y-93348995D01*
X105129759Y-93332786D01*
X105107740Y-93325641D01*
X105080755Y-93323862D01*
X105061439Y-93323834D01*
X105029120Y-93324193D01*
X105002440Y-93327765D01*
X104980777Y-93338292D01*
X104963508Y-93359517D01*
X104950011Y-93395182D01*
X104939665Y-93449028D01*
X104931846Y-93524798D01*
X104925933Y-93626234D01*
X104921303Y-93757079D01*
X104917334Y-93921074D01*
X104913405Y-94121961D01*
X104911477Y-94225760D01*
X104907636Y-94434544D01*
X104904724Y-94605122D01*
X104902881Y-94741617D01*
X104902248Y-94848149D01*
X104423321Y-94848149D01*
X104421534Y-94755681D01*
X104418652Y-94559019D01*
G36*
X74726217Y-31288129D02*
G01*
X74776716Y-31287544D01*
X74866124Y-31287650D01*
X74991021Y-31288397D01*
X75147989Y-31289736D01*
X75333610Y-31291615D01*
X75544466Y-31293984D01*
X75777137Y-31296795D01*
X76028205Y-31299996D01*
X76294252Y-31303537D01*
X76571859Y-31307369D01*
X76857607Y-31311442D01*
X77148079Y-31315704D01*
X77439855Y-31320107D01*
X77729517Y-31324600D01*
X78013647Y-31329133D01*
X78288826Y-31333656D01*
X78551635Y-31338119D01*
X78798656Y-31342472D01*
X79026470Y-31346664D01*
X79231660Y-31350646D01*
X79410805Y-31354368D01*
X79560489Y-31357779D01*
X79664762Y-31360474D01*
X80134441Y-31373629D01*
X81411012Y-32421405D01*
X81612516Y-32586956D01*
X81804409Y-32744930D01*
X81984191Y-32893247D01*
X82149358Y-33029827D01*
X82297408Y-33152592D01*
X82425839Y-33259461D01*
X82532149Y-33348357D01*
X82613835Y-33417199D01*
X82668396Y-33463908D01*
X82693327Y-33486406D01*
X82694639Y-33488007D01*
X82674682Y-33490338D01*
X82614274Y-33492542D01*
X82515296Y-33494609D01*
X82379630Y-33496527D01*
X82209158Y-33498287D01*
X82005761Y-33499878D01*
X81771321Y-33501291D01*
X81507719Y-33502514D01*
X81216838Y-33503537D01*
X80900559Y-33504351D01*
X80560764Y-33504944D01*
X80199335Y-33505306D01*
X79818152Y-33505428D01*
X79530222Y-33505360D01*
X76358750Y-33503886D01*
X75435301Y-32399401D01*
X75078164Y-31972250D01*
X76108699Y-31972250D01*
X76476679Y-32411459D01*
X76844659Y-32850667D01*
X77581863Y-32850667D01*
X77777716Y-32850587D01*
X77935204Y-32850202D01*
X78058295Y-32849296D01*
X78150957Y-32847653D01*
X78217157Y-32845057D01*
X78260864Y-32841290D01*
X78286046Y-32836137D01*
X78296670Y-32829380D01*
X78296706Y-32820805D01*
X78291409Y-32811973D01*
X78270706Y-32784923D01*
X78227605Y-32729990D01*
X78166183Y-32652323D01*
X78090517Y-32557070D01*
X78004686Y-32449380D01*
X77949620Y-32380457D01*
X77657041Y-32014584D01*
X78669369Y-32014584D01*
X79002730Y-32432625D01*
X79336092Y-32850667D01*
X80037583Y-32850667D01*
X80228062Y-32850606D01*
X80380192Y-32850263D01*
X80497961Y-32849392D01*
X80585352Y-32847750D01*
X80646353Y-32845094D01*
X80684948Y-32841180D01*
X80705123Y-32835765D01*
X80710863Y-32828604D01*
X80706155Y-32819454D01*
X80697329Y-32810331D01*
X80670307Y-32786584D01*
X80615192Y-32739995D01*
X80536695Y-32674480D01*
X80439528Y-32593955D01*
X80328401Y-32502336D01*
X80208026Y-32403538D01*
X80203169Y-32399561D01*
X79750755Y-32029127D01*
X79494086Y-32015119D01*
X79365117Y-32010011D01*
X79214438Y-32007015D01*
X79062635Y-32006408D01*
X78953393Y-32007847D01*
X78669369Y-32014584D01*
X77657041Y-32014584D01*
X77635490Y-31987635D01*
X76954787Y-31972611D01*
X76785169Y-31969148D01*
X76625770Y-31966426D01*
X76482424Y-31964503D01*
X76360969Y-31963438D01*
X76267240Y-31963291D01*
X76207074Y-31964119D01*
X76191391Y-31964918D01*
X76108699Y-31972250D01*
X75078164Y-31972250D01*
X74511851Y-31294917D01*
X74726217Y-31288129D01*
G37*
X74726217Y-31288129D02*
X74776716Y-31287544D01*
X74866124Y-31287650D01*
X74991021Y-31288397D01*
X75147989Y-31289736D01*
X75333610Y-31291615D01*
X75544466Y-31293984D01*
X75777137Y-31296795D01*
X76028205Y-31299996D01*
X76294252Y-31303537D01*
X76571859Y-31307369D01*
X76857607Y-31311442D01*
X77148079Y-31315704D01*
X77439855Y-31320107D01*
X77729517Y-31324600D01*
X78013647Y-31329133D01*
X78288826Y-31333656D01*
X78551635Y-31338119D01*
X78798656Y-31342472D01*
X79026470Y-31346664D01*
X79231660Y-31350646D01*
X79410805Y-31354368D01*
X79560489Y-31357779D01*
X79664762Y-31360474D01*
X80134441Y-31373629D01*
X81411012Y-32421405D01*
X81612516Y-32586956D01*
X81804409Y-32744930D01*
X81984191Y-32893247D01*
X82149358Y-33029827D01*
X82297408Y-33152592D01*
X82425839Y-33259461D01*
X82532149Y-33348357D01*
X82613835Y-33417199D01*
X82668396Y-33463908D01*
X82693327Y-33486406D01*
X82694639Y-33488007D01*
X82674682Y-33490338D01*
X82614274Y-33492542D01*
X82515296Y-33494609D01*
X82379630Y-33496527D01*
X82209158Y-33498287D01*
X82005761Y-33499878D01*
X81771321Y-33501291D01*
X81507719Y-33502514D01*
X81216838Y-33503537D01*
X80900559Y-33504351D01*
X80560764Y-33504944D01*
X80199335Y-33505306D01*
X79818152Y-33505428D01*
X79530222Y-33505360D01*
X76358750Y-33503886D01*
X75435301Y-32399401D01*
X75078164Y-31972250D01*
X76108699Y-31972250D01*
X76476679Y-32411459D01*
X76844659Y-32850667D01*
X77581863Y-32850667D01*
X77777716Y-32850587D01*
X77935204Y-32850202D01*
X78058295Y-32849296D01*
X78150957Y-32847653D01*
X78217157Y-32845057D01*
X78260864Y-32841290D01*
X78286046Y-32836137D01*
X78296670Y-32829380D01*
X78296706Y-32820805D01*
X78291409Y-32811973D01*
X78270706Y-32784923D01*
X78227605Y-32729990D01*
X78166183Y-32652323D01*
X78090517Y-32557070D01*
X78004686Y-32449380D01*
X77949620Y-32380457D01*
X77657041Y-32014584D01*
X78669369Y-32014584D01*
X79002730Y-32432625D01*
X79336092Y-32850667D01*
X80037583Y-32850667D01*
X80228062Y-32850606D01*
X80380192Y-32850263D01*
X80497961Y-32849392D01*
X80585352Y-32847750D01*
X80646353Y-32845094D01*
X80684948Y-32841180D01*
X80705123Y-32835765D01*
X80710863Y-32828604D01*
X80706155Y-32819454D01*
X80697329Y-32810331D01*
X80670307Y-32786584D01*
X80615192Y-32739995D01*
X80536695Y-32674480D01*
X80439528Y-32593955D01*
X80328401Y-32502336D01*
X80208026Y-32403538D01*
X80203169Y-32399561D01*
X79750755Y-32029127D01*
X79494086Y-32015119D01*
X79365117Y-32010011D01*
X79214438Y-32007015D01*
X79062635Y-32006408D01*
X78953393Y-32007847D01*
X78669369Y-32014584D01*
X77657041Y-32014584D01*
X77635490Y-31987635D01*
X76954787Y-31972611D01*
X76785169Y-31969148D01*
X76625770Y-31966426D01*
X76482424Y-31964503D01*
X76360969Y-31963438D01*
X76267240Y-31963291D01*
X76207074Y-31964119D01*
X76191391Y-31964918D01*
X76108699Y-31972250D01*
X75078164Y-31972250D01*
X74511851Y-31294917D01*
X74726217Y-31288129D01*
G36*
X99058617Y-65556407D02*
G01*
X99071341Y-65482500D01*
X99093265Y-65404788D01*
X99115118Y-65340565D01*
X99212846Y-65122778D01*
X99341537Y-64932964D01*
X99499251Y-64772908D01*
X99684046Y-64644397D01*
X99893982Y-64549218D01*
X100014276Y-64513025D01*
X100207351Y-64481842D01*
X100413948Y-64479270D01*
X100616886Y-64504774D01*
X100736526Y-64535463D01*
X100867781Y-64590054D01*
X101008450Y-64669988D01*
X101144021Y-64765683D01*
X101259984Y-64867558D01*
X101293638Y-64903336D01*
X101368360Y-65003183D01*
X101442968Y-65129051D01*
X101509527Y-65265360D01*
X101560102Y-65396526D01*
X101578784Y-65463231D01*
X101595179Y-65571761D01*
X101602728Y-65703860D01*
X101601443Y-65842131D01*
X101591340Y-65969176D01*
X101578304Y-66045269D01*
X101526685Y-66205888D01*
X101448908Y-66371434D01*
X101354178Y-66523568D01*
X101308484Y-66582752D01*
X101195574Y-66697437D01*
X101057467Y-66805743D01*
X100908357Y-66897976D01*
X100762442Y-66964446D01*
X100736526Y-66973274D01*
X100580756Y-67009250D01*
X100404800Y-67027271D01*
X100225415Y-67026894D01*
X100059359Y-67007677D01*
X99993789Y-66992858D01*
X99788558Y-66917091D01*
X99596313Y-66806585D01*
X99425220Y-66667160D01*
X99283443Y-66504635D01*
X99258709Y-66468943D01*
X99213092Y-66389980D01*
X99164515Y-66289688D01*
X99122151Y-66187295D01*
X99115118Y-66167935D01*
X99085424Y-66078562D01*
X99066572Y-66003649D01*
X99056193Y-65927834D01*
X99051916Y-65835752D01*
X99051282Y-65754250D01*
X99515084Y-65754250D01*
X99515837Y-65858962D01*
X99519570Y-65933289D01*
X99528495Y-65989171D01*
X99544822Y-66038548D01*
X99570762Y-66093362D01*
X99581825Y-66114710D01*
X99686894Y-66274764D01*
X99816232Y-66404001D01*
X99965161Y-66500229D01*
X100129005Y-66561256D01*
X100303085Y-66584890D01*
X100482723Y-66568939D01*
X100528551Y-66558354D01*
X100698103Y-66492931D01*
X100850738Y-66391848D01*
X100980131Y-66260431D01*
X101079962Y-66104005D01*
X101088189Y-66086949D01*
X101115285Y-66023838D01*
X101132175Y-65966152D01*
X101141171Y-65900337D01*
X101144582Y-65812843D01*
X101144917Y-65754250D01*
X101143505Y-65650206D01*
X101137720Y-65574868D01*
X101125239Y-65514658D01*
X101103737Y-65455998D01*
X101087854Y-65420819D01*
X101041627Y-65339546D01*
X100979011Y-65251081D01*
X100924202Y-65186352D01*
X100784346Y-65066463D01*
X100630409Y-64983465D01*
X100467592Y-64936560D01*
X100301095Y-64924952D01*
X100136119Y-64947844D01*
X99977865Y-65004439D01*
X99831532Y-65093941D01*
X99702323Y-65215552D01*
X99595437Y-65368475D01*
X99582787Y-65391884D01*
X99552783Y-65451831D01*
X99533256Y-65501952D01*
X99521967Y-65554230D01*
X99516676Y-65620648D01*
X99515145Y-65713188D01*
X99515084Y-65754250D01*
X99051282Y-65754250D01*
X99052721Y-65641869D01*
X99058617Y-65556407D01*
G37*
X99058617Y-65556407D02*
X99071341Y-65482500D01*
X99093265Y-65404788D01*
X99115118Y-65340565D01*
X99212846Y-65122778D01*
X99341537Y-64932964D01*
X99499251Y-64772908D01*
X99684046Y-64644397D01*
X99893982Y-64549218D01*
X100014276Y-64513025D01*
X100207351Y-64481842D01*
X100413948Y-64479270D01*
X100616886Y-64504774D01*
X100736526Y-64535463D01*
X100867781Y-64590054D01*
X101008450Y-64669988D01*
X101144021Y-64765683D01*
X101259984Y-64867558D01*
X101293638Y-64903336D01*
X101368360Y-65003183D01*
X101442968Y-65129051D01*
X101509527Y-65265360D01*
X101560102Y-65396526D01*
X101578784Y-65463231D01*
X101595179Y-65571761D01*
X101602728Y-65703860D01*
X101601443Y-65842131D01*
X101591340Y-65969176D01*
X101578304Y-66045269D01*
X101526685Y-66205888D01*
X101448908Y-66371434D01*
X101354178Y-66523568D01*
X101308484Y-66582752D01*
X101195574Y-66697437D01*
X101057467Y-66805743D01*
X100908357Y-66897976D01*
X100762442Y-66964446D01*
X100736526Y-66973274D01*
X100580756Y-67009250D01*
X100404800Y-67027271D01*
X100225415Y-67026894D01*
X100059359Y-67007677D01*
X99993789Y-66992858D01*
X99788558Y-66917091D01*
X99596313Y-66806585D01*
X99425220Y-66667160D01*
X99283443Y-66504635D01*
X99258709Y-66468943D01*
X99213092Y-66389980D01*
X99164515Y-66289688D01*
X99122151Y-66187295D01*
X99115118Y-66167935D01*
X99085424Y-66078562D01*
X99066572Y-66003649D01*
X99056193Y-65927834D01*
X99051916Y-65835752D01*
X99051282Y-65754250D01*
X99515084Y-65754250D01*
X99515837Y-65858962D01*
X99519570Y-65933289D01*
X99528495Y-65989171D01*
X99544822Y-66038548D01*
X99570762Y-66093362D01*
X99581825Y-66114710D01*
X99686894Y-66274764D01*
X99816232Y-66404001D01*
X99965161Y-66500229D01*
X100129005Y-66561256D01*
X100303085Y-66584890D01*
X100482723Y-66568939D01*
X100528551Y-66558354D01*
X100698103Y-66492931D01*
X100850738Y-66391848D01*
X100980131Y-66260431D01*
X101079962Y-66104005D01*
X101088189Y-66086949D01*
X101115285Y-66023838D01*
X101132175Y-65966152D01*
X101141171Y-65900337D01*
X101144582Y-65812843D01*
X101144917Y-65754250D01*
X101143505Y-65650206D01*
X101137720Y-65574868D01*
X101125239Y-65514658D01*
X101103737Y-65455998D01*
X101087854Y-65420819D01*
X101041627Y-65339546D01*
X100979011Y-65251081D01*
X100924202Y-65186352D01*
X100784346Y-65066463D01*
X100630409Y-64983465D01*
X100467592Y-64936560D01*
X100301095Y-64924952D01*
X100136119Y-64947844D01*
X99977865Y-65004439D01*
X99831532Y-65093941D01*
X99702323Y-65215552D01*
X99595437Y-65368475D01*
X99582787Y-65391884D01*
X99552783Y-65451831D01*
X99533256Y-65501952D01*
X99521967Y-65554230D01*
X99516676Y-65620648D01*
X99515145Y-65713188D01*
X99515084Y-65754250D01*
X99051282Y-65754250D01*
X99052721Y-65641869D01*
X99058617Y-65556407D01*
G36*
X101085242Y-93095506D02*
G01*
X101176850Y-93100377D01*
X101251451Y-93105848D01*
X101299733Y-93111144D01*
X101312960Y-93114405D01*
X101310548Y-93136586D01*
X101298951Y-93194176D01*
X101279451Y-93281565D01*
X101253328Y-93393143D01*
X101221863Y-93523298D01*
X101193303Y-93638635D01*
X101064466Y-94153687D01*
X101218372Y-94798066D01*
X101255862Y-94956778D01*
X101289360Y-95101988D01*
X101317769Y-95228663D01*
X101339993Y-95331774D01*
X101354933Y-95406287D01*
X101361492Y-95447174D01*
X101361310Y-95453413D01*
X101334746Y-95460771D01*
X101277362Y-95467319D01*
X101199683Y-95472698D01*
X101112236Y-95476550D01*
X101025548Y-95478515D01*
X100950145Y-95478235D01*
X100896553Y-95475351D01*
X100875483Y-95469966D01*
X100868158Y-95445296D01*
X100852755Y-95384568D01*
X100830525Y-95293017D01*
X100802717Y-95175878D01*
X100770583Y-95038386D01*
X100735372Y-94885775D01*
X100722046Y-94827536D01*
X100579675Y-94203988D01*
X100723189Y-93644887D01*
X100866704Y-93085786D01*
X101085242Y-93095506D01*
G37*
X101085242Y-93095506D02*
X101176850Y-93100377D01*
X101251451Y-93105848D01*
X101299733Y-93111144D01*
X101312960Y-93114405D01*
X101310548Y-93136586D01*
X101298951Y-93194176D01*
X101279451Y-93281565D01*
X101253328Y-93393143D01*
X101221863Y-93523298D01*
X101193303Y-93638635D01*
X101064466Y-94153687D01*
X101218372Y-94798066D01*
X101255862Y-94956778D01*
X101289360Y-95101988D01*
X101317769Y-95228663D01*
X101339993Y-95331774D01*
X101354933Y-95406287D01*
X101361492Y-95447174D01*
X101361310Y-95453413D01*
X101334746Y-95460771D01*
X101277362Y-95467319D01*
X101199683Y-95472698D01*
X101112236Y-95476550D01*
X101025548Y-95478515D01*
X100950145Y-95478235D01*
X100896553Y-95475351D01*
X100875483Y-95469966D01*
X100868158Y-95445296D01*
X100852755Y-95384568D01*
X100830525Y-95293017D01*
X100802717Y-95175878D01*
X100770583Y-95038386D01*
X100735372Y-94885775D01*
X100722046Y-94827536D01*
X100579675Y-94203988D01*
X100723189Y-93644887D01*
X100866704Y-93085786D01*
X101085242Y-93095506D01*
G36*
X102108000Y-62353952D02*
G01*
X102124302Y-62174289D01*
X102172684Y-62022069D01*
X102252365Y-61898052D01*
X102362562Y-61802999D01*
X102502493Y-61737667D01*
X102671374Y-61702816D01*
X102785334Y-61696855D01*
X102881597Y-61699463D01*
X102973345Y-61706877D01*
X103043392Y-61717613D01*
X103053247Y-61720017D01*
X103186159Y-61776302D01*
X103304611Y-61865512D01*
X103396653Y-61978317D01*
X103407412Y-61996640D01*
X103438811Y-62057537D01*
X103458945Y-62113016D01*
X103470920Y-62176724D01*
X103477839Y-62262311D01*
X103480365Y-62317388D01*
X103474121Y-62503872D01*
X103438626Y-62660559D01*
X103373063Y-62789016D01*
X103276618Y-62890807D01*
X103148473Y-62967500D01*
X103139389Y-62971497D01*
X103048201Y-62999202D01*
X102930943Y-63018555D01*
X102803256Y-63028429D01*
X102680783Y-63027697D01*
X102579165Y-63015235D01*
X102568046Y-63012630D01*
X102422430Y-62956796D01*
X102298799Y-62870888D01*
X102203085Y-62760284D01*
X102141222Y-62630362D01*
X102139273Y-62623958D01*
X102123538Y-62548457D01*
X102112306Y-62451595D01*
X102111298Y-62428798D01*
X102556592Y-62428798D01*
X102562955Y-62527528D01*
X102572581Y-62585306D01*
X102605535Y-62679344D01*
X102654425Y-62739985D01*
X102725883Y-62775127D01*
X102733808Y-62777352D01*
X102832802Y-62785867D01*
X102917164Y-62755992D01*
X102964128Y-62714307D01*
X103004111Y-62646766D01*
X103028458Y-62554854D01*
X103038061Y-62433157D01*
X103034452Y-62286969D01*
X103022114Y-62161665D01*
X103000164Y-62071283D01*
X102965954Y-62008985D01*
X102916837Y-61967938D01*
X102909264Y-61963829D01*
X102819334Y-61937169D01*
X102730197Y-61944676D01*
X102652907Y-61983173D01*
X102598519Y-62049480D01*
X102596450Y-62053788D01*
X102577889Y-62117835D01*
X102564659Y-62210592D01*
X102557360Y-62318699D01*
X102556592Y-62428798D01*
X102111298Y-62428798D01*
X102108000Y-62354294D01*
X102108000Y-62353952D01*
G37*
X102108000Y-62353952D02*
X102124302Y-62174289D01*
X102172684Y-62022069D01*
X102252365Y-61898052D01*
X102362562Y-61802999D01*
X102502493Y-61737667D01*
X102671374Y-61702816D01*
X102785334Y-61696855D01*
X102881597Y-61699463D01*
X102973345Y-61706877D01*
X103043392Y-61717613D01*
X103053247Y-61720017D01*
X103186159Y-61776302D01*
X103304611Y-61865512D01*
X103396653Y-61978317D01*
X103407412Y-61996640D01*
X103438811Y-62057537D01*
X103458945Y-62113016D01*
X103470920Y-62176724D01*
X103477839Y-62262311D01*
X103480365Y-62317388D01*
X103474121Y-62503872D01*
X103438626Y-62660559D01*
X103373063Y-62789016D01*
X103276618Y-62890807D01*
X103148473Y-62967500D01*
X103139389Y-62971497D01*
X103048201Y-62999202D01*
X102930943Y-63018555D01*
X102803256Y-63028429D01*
X102680783Y-63027697D01*
X102579165Y-63015235D01*
X102568046Y-63012630D01*
X102422430Y-62956796D01*
X102298799Y-62870888D01*
X102203085Y-62760284D01*
X102141222Y-62630362D01*
X102139273Y-62623958D01*
X102123538Y-62548457D01*
X102112306Y-62451595D01*
X102111298Y-62428798D01*
X102556592Y-62428798D01*
X102562955Y-62527528D01*
X102572581Y-62585306D01*
X102605535Y-62679344D01*
X102654425Y-62739985D01*
X102725883Y-62775127D01*
X102733808Y-62777352D01*
X102832802Y-62785867D01*
X102917164Y-62755992D01*
X102964128Y-62714307D01*
X103004111Y-62646766D01*
X103028458Y-62554854D01*
X103038061Y-62433157D01*
X103034452Y-62286969D01*
X103022114Y-62161665D01*
X103000164Y-62071283D01*
X102965954Y-62008985D01*
X102916837Y-61967938D01*
X102909264Y-61963829D01*
X102819334Y-61937169D01*
X102730197Y-61944676D01*
X102652907Y-61983173D01*
X102598519Y-62049480D01*
X102596450Y-62053788D01*
X102577889Y-62117835D01*
X102564659Y-62210592D01*
X102557360Y-62318699D01*
X102556592Y-62428798D01*
X102111298Y-62428798D01*
X102108000Y-62354294D01*
X102108000Y-62353952D01*
G36*
X90313898Y-77290360D02*
G01*
X90462163Y-77319408D01*
X90608731Y-77362368D01*
X90735047Y-77414596D01*
X90748369Y-77421482D01*
X90831764Y-77476462D01*
X90928341Y-77556561D01*
X91027917Y-77651594D01*
X91120309Y-77751379D01*
X91195334Y-77845734D01*
X91234519Y-77907631D01*
X91287572Y-78030148D01*
X91331932Y-78175214D01*
X91362955Y-78324276D01*
X91375997Y-78458779D01*
X91376133Y-78473511D01*
X91355810Y-78688781D01*
X91298336Y-78895426D01*
X91207084Y-79087916D01*
X91085432Y-79260722D01*
X90936754Y-79408313D01*
X90764427Y-79525159D01*
X90720334Y-79547815D01*
X90517612Y-79627222D01*
X90311786Y-79672544D01*
X90111496Y-79682270D01*
X90009178Y-79672265D01*
X89791707Y-79617961D01*
X89591209Y-79526868D01*
X89411643Y-79402481D01*
X89256968Y-79248294D01*
X89131143Y-79067802D01*
X89038128Y-78864501D01*
X89016074Y-78795665D01*
X88992606Y-78676318D01*
X88981338Y-78534067D01*
X88982603Y-78386647D01*
X88996733Y-78251789D01*
X89005106Y-78209411D01*
X89073634Y-78002740D01*
X89177123Y-77815338D01*
X89311299Y-77650580D01*
X89471887Y-77511840D01*
X89654612Y-77402495D01*
X89855200Y-77325918D01*
X90069376Y-77285484D01*
X90182489Y-77279868D01*
X90313898Y-77290360D01*
G37*
X90313898Y-77290360D02*
X90462163Y-77319408D01*
X90608731Y-77362368D01*
X90735047Y-77414596D01*
X90748369Y-77421482D01*
X90831764Y-77476462D01*
X90928341Y-77556561D01*
X91027917Y-77651594D01*
X91120309Y-77751379D01*
X91195334Y-77845734D01*
X91234519Y-77907631D01*
X91287572Y-78030148D01*
X91331932Y-78175214D01*
X91362955Y-78324276D01*
X91375997Y-78458779D01*
X91376133Y-78473511D01*
X91355810Y-78688781D01*
X91298336Y-78895426D01*
X91207084Y-79087916D01*
X91085432Y-79260722D01*
X90936754Y-79408313D01*
X90764427Y-79525159D01*
X90720334Y-79547815D01*
X90517612Y-79627222D01*
X90311786Y-79672544D01*
X90111496Y-79682270D01*
X90009178Y-79672265D01*
X89791707Y-79617961D01*
X89591209Y-79526868D01*
X89411643Y-79402481D01*
X89256968Y-79248294D01*
X89131143Y-79067802D01*
X89038128Y-78864501D01*
X89016074Y-78795665D01*
X88992606Y-78676318D01*
X88981338Y-78534067D01*
X88982603Y-78386647D01*
X88996733Y-78251789D01*
X89005106Y-78209411D01*
X89073634Y-78002740D01*
X89177123Y-77815338D01*
X89311299Y-77650580D01*
X89471887Y-77511840D01*
X89654612Y-77402495D01*
X89855200Y-77325918D01*
X90069376Y-77285484D01*
X90182489Y-77279868D01*
X90313898Y-77290360D01*
G36*
X100441509Y-65451199D02*
G01*
X100533849Y-65499660D01*
X100590115Y-65556040D01*
X100633262Y-65648284D01*
X100643212Y-65752182D01*
X100621960Y-65855864D01*
X100571503Y-65947461D01*
X100515186Y-66001451D01*
X100428870Y-66040893D01*
X100326960Y-66055325D01*
X100228208Y-66043280D01*
X100186452Y-66027164D01*
X100101154Y-65962222D01*
X100045098Y-65875313D01*
X100019027Y-65775772D01*
X100023682Y-65672936D01*
X100059804Y-65576139D01*
X100128136Y-65494717D01*
X100143215Y-65482924D01*
X100233970Y-65440831D01*
X100337475Y-65430923D01*
X100441509Y-65451199D01*
G37*
X100441509Y-65451199D02*
X100533849Y-65499660D01*
X100590115Y-65556040D01*
X100633262Y-65648284D01*
X100643212Y-65752182D01*
X100621960Y-65855864D01*
X100571503Y-65947461D01*
X100515186Y-66001451D01*
X100428870Y-66040893D01*
X100326960Y-66055325D01*
X100228208Y-66043280D01*
X100186452Y-66027164D01*
X100101154Y-65962222D01*
X100045098Y-65875313D01*
X100019027Y-65775772D01*
X100023682Y-65672936D01*
X100059804Y-65576139D01*
X100128136Y-65494717D01*
X100143215Y-65482924D01*
X100233970Y-65440831D01*
X100337475Y-65430923D01*
X100441509Y-65451199D01*
G36*
X91143667Y-65108667D02*
G01*
X91337278Y-65108667D01*
X91394070Y-65108201D01*
X91489464Y-65106856D01*
X91619738Y-65104710D01*
X91781172Y-65101840D01*
X91970044Y-65098326D01*
X92182634Y-65094246D01*
X92415220Y-65089677D01*
X92664081Y-65084698D01*
X92925496Y-65079387D01*
X93195744Y-65073822D01*
X93471105Y-65068082D01*
X93747856Y-65062245D01*
X94022278Y-65056389D01*
X94290648Y-65050592D01*
X94549247Y-65044933D01*
X94794353Y-65039489D01*
X95022244Y-65034340D01*
X95229200Y-65029562D01*
X95411500Y-65025235D01*
X95565423Y-65021436D01*
X95687248Y-65018244D01*
X95773253Y-65015737D01*
X95798141Y-65014895D01*
X96102866Y-65003811D01*
X96089310Y-65177947D01*
X96086075Y-65240922D01*
X96083109Y-65339831D01*
X96080507Y-65468277D01*
X96078366Y-65619862D01*
X96076779Y-65788186D01*
X96075844Y-65966853D01*
X96075627Y-66094930D01*
X96075500Y-66837777D01*
X95064792Y-66851516D01*
X94855564Y-66854265D01*
X94611537Y-66857308D01*
X94340245Y-66860559D01*
X94049220Y-66863935D01*
X93745994Y-66867349D01*
X93438102Y-66870717D01*
X93133075Y-66873953D01*
X92838447Y-66876973D01*
X92612906Y-66879199D01*
X91171728Y-66893143D01*
X91157768Y-66556530D01*
X91153771Y-66436908D01*
X91150524Y-66299122D01*
X91736334Y-66299122D01*
X93382042Y-66285617D01*
X93648780Y-66283290D01*
X93908017Y-66280763D01*
X94155921Y-66278090D01*
X94388659Y-66275324D01*
X94602396Y-66272518D01*
X94793299Y-66269725D01*
X94957535Y-66266999D01*
X95091272Y-66264393D01*
X95190674Y-66261961D01*
X95251909Y-66259755D01*
X95255292Y-66259576D01*
X95482834Y-66247040D01*
X95482834Y-65609873D01*
X94937792Y-65623055D01*
X94815114Y-65625921D01*
X94655932Y-65629477D01*
X94466068Y-65633604D01*
X94251345Y-65638177D01*
X94017584Y-65643076D01*
X93770606Y-65648177D01*
X93516235Y-65653359D01*
X93260291Y-65658499D01*
X93064542Y-65662377D01*
X91736334Y-65688516D01*
X91736334Y-66299122D01*
X91150524Y-66299122D01*
X91150214Y-66285986D01*
X91147272Y-66114798D01*
X91145116Y-65934375D01*
X91143922Y-65755752D01*
X91143786Y-65688516D01*
X91143737Y-65664292D01*
X91143667Y-65108667D01*
G37*
X91143667Y-65108667D02*
X91337278Y-65108667D01*
X91394070Y-65108201D01*
X91489464Y-65106856D01*
X91619738Y-65104710D01*
X91781172Y-65101840D01*
X91970044Y-65098326D01*
X92182634Y-65094246D01*
X92415220Y-65089677D01*
X92664081Y-65084698D01*
X92925496Y-65079387D01*
X93195744Y-65073822D01*
X93471105Y-65068082D01*
X93747856Y-65062245D01*
X94022278Y-65056389D01*
X94290648Y-65050592D01*
X94549247Y-65044933D01*
X94794353Y-65039489D01*
X95022244Y-65034340D01*
X95229200Y-65029562D01*
X95411500Y-65025235D01*
X95565423Y-65021436D01*
X95687248Y-65018244D01*
X95773253Y-65015737D01*
X95798141Y-65014895D01*
X96102866Y-65003811D01*
X96089310Y-65177947D01*
X96086075Y-65240922D01*
X96083109Y-65339831D01*
X96080507Y-65468277D01*
X96078366Y-65619862D01*
X96076779Y-65788186D01*
X96075844Y-65966853D01*
X96075627Y-66094930D01*
X96075500Y-66837777D01*
X95064792Y-66851516D01*
X94855564Y-66854265D01*
X94611537Y-66857308D01*
X94340245Y-66860559D01*
X94049220Y-66863935D01*
X93745994Y-66867349D01*
X93438102Y-66870717D01*
X93133075Y-66873953D01*
X92838447Y-66876973D01*
X92612906Y-66879199D01*
X91171728Y-66893143D01*
X91157768Y-66556530D01*
X91153771Y-66436908D01*
X91150524Y-66299122D01*
X91736334Y-66299122D01*
X93382042Y-66285617D01*
X93648780Y-66283290D01*
X93908017Y-66280763D01*
X94155921Y-66278090D01*
X94388659Y-66275324D01*
X94602396Y-66272518D01*
X94793299Y-66269725D01*
X94957535Y-66266999D01*
X95091272Y-66264393D01*
X95190674Y-66261961D01*
X95251909Y-66259755D01*
X95255292Y-66259576D01*
X95482834Y-66247040D01*
X95482834Y-65609873D01*
X94937792Y-65623055D01*
X94815114Y-65625921D01*
X94655932Y-65629477D01*
X94466068Y-65633604D01*
X94251345Y-65638177D01*
X94017584Y-65643076D01*
X93770606Y-65648177D01*
X93516235Y-65653359D01*
X93260291Y-65658499D01*
X93064542Y-65662377D01*
X91736334Y-65688516D01*
X91736334Y-66299122D01*
X91150524Y-66299122D01*
X91150214Y-66285986D01*
X91147272Y-66114798D01*
X91145116Y-65934375D01*
X91143922Y-65755752D01*
X91143786Y-65688516D01*
X91143737Y-65664292D01*
X91143667Y-65108667D01*
G36*
X103754176Y-62041821D02*
G01*
X103829745Y-61920373D01*
X103850375Y-61896629D01*
X103970312Y-61796694D01*
X104115673Y-61730102D01*
X104285428Y-61697150D01*
X104478545Y-61698132D01*
X104525705Y-61703133D01*
X104694191Y-61740623D01*
X104832387Y-61807656D01*
X104940138Y-61904041D01*
X105017286Y-62029587D01*
X105063673Y-62184101D01*
X105079143Y-62367392D01*
X105079095Y-62378167D01*
X105061731Y-62554695D01*
X105012525Y-62703678D01*
X104930842Y-62826174D01*
X104816048Y-62923241D01*
X104722084Y-62973780D01*
X104625279Y-63003801D01*
X104502685Y-63022766D01*
X104369587Y-63029861D01*
X104241273Y-63024270D01*
X104133064Y-63005190D01*
X103987105Y-62944391D01*
X103869240Y-62852722D01*
X103780737Y-62732060D01*
X103722864Y-62584282D01*
X103696887Y-62411265D01*
X103695500Y-62357000D01*
X103697788Y-62329849D01*
X104143017Y-62329849D01*
X104147451Y-62449495D01*
X104164928Y-62579395D01*
X104195995Y-62673245D01*
X104243024Y-62735819D01*
X104307592Y-62771628D01*
X104407769Y-62786170D01*
X104495750Y-62761198D01*
X104536907Y-62731581D01*
X104578414Y-62677925D01*
X104606200Y-62601695D01*
X104621762Y-62496638D01*
X104626597Y-62357000D01*
X104621495Y-62211934D01*
X104604509Y-62103307D01*
X104573125Y-62026274D01*
X104524825Y-61975989D01*
X104457093Y-61947609D01*
X104409760Y-61939481D01*
X104316474Y-61946692D01*
X104242495Y-61990622D01*
X104188484Y-62069983D01*
X104155104Y-62183488D01*
X104143017Y-62329849D01*
X103697788Y-62329849D01*
X103709922Y-62185894D01*
X103754176Y-62041821D01*
G37*
X103754176Y-62041821D02*
X103829745Y-61920373D01*
X103850375Y-61896629D01*
X103970312Y-61796694D01*
X104115673Y-61730102D01*
X104285428Y-61697150D01*
X104478545Y-61698132D01*
X104525705Y-61703133D01*
X104694191Y-61740623D01*
X104832387Y-61807656D01*
X104940138Y-61904041D01*
X105017286Y-62029587D01*
X105063673Y-62184101D01*
X105079143Y-62367392D01*
X105079095Y-62378167D01*
X105061731Y-62554695D01*
X105012525Y-62703678D01*
X104930842Y-62826174D01*
X104816048Y-62923241D01*
X104722084Y-62973780D01*
X104625279Y-63003801D01*
X104502685Y-63022766D01*
X104369587Y-63029861D01*
X104241273Y-63024270D01*
X104133064Y-63005190D01*
X103987105Y-62944391D01*
X103869240Y-62852722D01*
X103780737Y-62732060D01*
X103722864Y-62584282D01*
X103696887Y-62411265D01*
X103695500Y-62357000D01*
X103697788Y-62329849D01*
X104143017Y-62329849D01*
X104147451Y-62449495D01*
X104164928Y-62579395D01*
X104195995Y-62673245D01*
X104243024Y-62735819D01*
X104307592Y-62771628D01*
X104407769Y-62786170D01*
X104495750Y-62761198D01*
X104536907Y-62731581D01*
X104578414Y-62677925D01*
X104606200Y-62601695D01*
X104621762Y-62496638D01*
X104626597Y-62357000D01*
X104621495Y-62211934D01*
X104604509Y-62103307D01*
X104573125Y-62026274D01*
X104524825Y-61975989D01*
X104457093Y-61947609D01*
X104409760Y-61939481D01*
X104316474Y-61946692D01*
X104242495Y-61990622D01*
X104188484Y-62069983D01*
X104155104Y-62183488D01*
X104143017Y-62329849D01*
X103697788Y-62329849D01*
X103709922Y-62185894D01*
X103754176Y-62041821D01*
G36*
X98137064Y-92396260D02*
G01*
X98236018Y-92442365D01*
X98310164Y-92511275D01*
X98321156Y-92527681D01*
X98358684Y-92625354D01*
X98357190Y-92723509D01*
X98319228Y-92814661D01*
X98247354Y-92891327D01*
X98183922Y-92929722D01*
X98100747Y-92953825D01*
X97997680Y-92962582D01*
X97893428Y-92956036D01*
X97806699Y-92934229D01*
X97794713Y-92928844D01*
X97702280Y-92863826D01*
X97644038Y-92781903D01*
X97619988Y-92690819D01*
X97630131Y-92598317D01*
X97674470Y-92512139D01*
X97753006Y-92440028D01*
X97794615Y-92416556D01*
X97906036Y-92381176D01*
X98023628Y-92375137D01*
X98137064Y-92396260D01*
G37*
X98137064Y-92396260D02*
X98236018Y-92442365D01*
X98310164Y-92511275D01*
X98321156Y-92527681D01*
X98358684Y-92625354D01*
X98357190Y-92723509D01*
X98319228Y-92814661D01*
X98247354Y-92891327D01*
X98183922Y-92929722D01*
X98100747Y-92953825D01*
X97997680Y-92962582D01*
X97893428Y-92956036D01*
X97806699Y-92934229D01*
X97794713Y-92928844D01*
X97702280Y-92863826D01*
X97644038Y-92781903D01*
X97619988Y-92690819D01*
X97630131Y-92598317D01*
X97674470Y-92512139D01*
X97753006Y-92440028D01*
X97794615Y-92416556D01*
X97906036Y-92381176D01*
X98023628Y-92375137D01*
X98137064Y-92396260D01*
G36*
X102891138Y-94591100D02*
G01*
X102891258Y-94502069D01*
X102893753Y-94436335D01*
X102898979Y-94387561D01*
X102907293Y-94349407D01*
X102919052Y-94315535D01*
X102928798Y-94292616D01*
X102950208Y-94248532D01*
X102974499Y-94214337D01*
X103009617Y-94183722D01*
X103063507Y-94150382D01*
X103144113Y-94108007D01*
X103191152Y-94084345D01*
X103347132Y-94002683D01*
X103466943Y-93929736D01*
X103554429Y-93860404D01*
X103613439Y-93789590D01*
X103647819Y-93712197D01*
X103661416Y-93623126D01*
X103658076Y-93517280D01*
X103653215Y-93472000D01*
X103643785Y-93393631D01*
X103636619Y-93332153D01*
X103633071Y-93299207D01*
X103632930Y-93297375D01*
X103615536Y-93279933D01*
X103574984Y-93282014D01*
X103523747Y-93300282D01*
X103474297Y-93331398D01*
X103461039Y-93343372D01*
X103433377Y-93372803D01*
X103415498Y-93401073D01*
X103405270Y-93437945D01*
X103400558Y-93493180D01*
X103399229Y-93576539D01*
X103399167Y-93626476D01*
X103399167Y-93847709D01*
X103333021Y-93860938D01*
X103279231Y-93867437D01*
X103199561Y-93872157D01*
X103110459Y-93874153D01*
X103102907Y-93874167D01*
X102938940Y-93874167D01*
X102924120Y-93625459D01*
X102918492Y-93494219D01*
X102920646Y-93396230D01*
X102932199Y-93322860D01*
X102954764Y-93265477D01*
X102989956Y-93215450D01*
X103003702Y-93200065D01*
X103065907Y-93143529D01*
X103136327Y-93103200D01*
X103223586Y-93076343D01*
X103336310Y-93060223D01*
X103468927Y-93052558D01*
X103615763Y-93049425D01*
X103729089Y-93052166D01*
X103817494Y-93062181D01*
X103889563Y-93080866D01*
X103953884Y-93109619D01*
X104003693Y-93139602D01*
X104042787Y-93165028D01*
X104075751Y-93188342D01*
X104103086Y-93213192D01*
X104125296Y-93243225D01*
X104142883Y-93282086D01*
X104156350Y-93333423D01*
X104166200Y-93400882D01*
X104172937Y-93488111D01*
X104177062Y-93598755D01*
X104179079Y-93736462D01*
X104179491Y-93904878D01*
X104178801Y-94107650D01*
X104177511Y-94348425D01*
X104177243Y-94398116D01*
X104171750Y-95429917D01*
X103695500Y-95441887D01*
X103695500Y-95368359D01*
X103690477Y-95315790D01*
X103678193Y-95284491D01*
X103676307Y-95282970D01*
X103652511Y-95290452D01*
X103609116Y-95321620D01*
X103559078Y-95366387D01*
X103461042Y-95461667D01*
X103308396Y-95459400D01*
X103216907Y-95455389D01*
X103128788Y-95447158D01*
X103068414Y-95437506D01*
X103019840Y-95425586D01*
X102982210Y-95410897D01*
X102953973Y-95388267D01*
X102933577Y-95352520D01*
X102919471Y-95298481D01*
X102910103Y-95220975D01*
X102903922Y-95114829D01*
X102899377Y-94974866D01*
X102896591Y-94864408D01*
X102894921Y-94791775D01*
X103379062Y-94791775D01*
X103382429Y-94898817D01*
X103391615Y-94987037D01*
X103406028Y-95043959D01*
X103451817Y-95115187D01*
X103510704Y-95154632D01*
X103574151Y-95160013D01*
X103633619Y-95129049D01*
X103651631Y-95109562D01*
X103666481Y-95088252D01*
X103677549Y-95063260D01*
X103685388Y-95028440D01*
X103690548Y-94977650D01*
X103693583Y-94904745D01*
X103695045Y-94803580D01*
X103695485Y-94668013D01*
X103695500Y-94621303D01*
X103695500Y-94188814D01*
X103647875Y-94203178D01*
X103538407Y-94247564D01*
X103457960Y-94304123D01*
X103435036Y-94330195D01*
X103415511Y-94378791D01*
X103399738Y-94459418D01*
X103388129Y-94561904D01*
X103381100Y-94676081D01*
X103379062Y-94791775D01*
X102894921Y-94791775D01*
X102893034Y-94709766D01*
X102891138Y-94591100D01*
G37*
X102891138Y-94591100D02*
X102891258Y-94502069D01*
X102893753Y-94436335D01*
X102898979Y-94387561D01*
X102907293Y-94349407D01*
X102919052Y-94315535D01*
X102928798Y-94292616D01*
X102950208Y-94248532D01*
X102974499Y-94214337D01*
X103009617Y-94183722D01*
X103063507Y-94150382D01*
X103144113Y-94108007D01*
X103191152Y-94084345D01*
X103347132Y-94002683D01*
X103466943Y-93929736D01*
X103554429Y-93860404D01*
X103613439Y-93789590D01*
X103647819Y-93712197D01*
X103661416Y-93623126D01*
X103658076Y-93517280D01*
X103653215Y-93472000D01*
X103643785Y-93393631D01*
X103636619Y-93332153D01*
X103633071Y-93299207D01*
X103632930Y-93297375D01*
X103615536Y-93279933D01*
X103574984Y-93282014D01*
X103523747Y-93300282D01*
X103474297Y-93331398D01*
X103461039Y-93343372D01*
X103433377Y-93372803D01*
X103415498Y-93401073D01*
X103405270Y-93437945D01*
X103400558Y-93493180D01*
X103399229Y-93576539D01*
X103399167Y-93626476D01*
X103399167Y-93847709D01*
X103333021Y-93860938D01*
X103279231Y-93867437D01*
X103199561Y-93872157D01*
X103110459Y-93874153D01*
X103102907Y-93874167D01*
X102938940Y-93874167D01*
X102924120Y-93625459D01*
X102918492Y-93494219D01*
X102920646Y-93396230D01*
X102932199Y-93322860D01*
X102954764Y-93265477D01*
X102989956Y-93215450D01*
X103003702Y-93200065D01*
X103065907Y-93143529D01*
X103136327Y-93103200D01*
X103223586Y-93076343D01*
X103336310Y-93060223D01*
X103468927Y-93052558D01*
X103615763Y-93049425D01*
X103729089Y-93052166D01*
X103817494Y-93062181D01*
X103889563Y-93080866D01*
X103953884Y-93109619D01*
X104003693Y-93139602D01*
X104042787Y-93165028D01*
X104075751Y-93188342D01*
X104103086Y-93213192D01*
X104125296Y-93243225D01*
X104142883Y-93282086D01*
X104156350Y-93333423D01*
X104166200Y-93400882D01*
X104172937Y-93488111D01*
X104177062Y-93598755D01*
X104179079Y-93736462D01*
X104179491Y-93904878D01*
X104178801Y-94107650D01*
X104177511Y-94348425D01*
X104177243Y-94398116D01*
X104171750Y-95429917D01*
X103695500Y-95441887D01*
X103695500Y-95368359D01*
X103690477Y-95315790D01*
X103678193Y-95284491D01*
X103676307Y-95282970D01*
X103652511Y-95290452D01*
X103609116Y-95321620D01*
X103559078Y-95366387D01*
X103461042Y-95461667D01*
X103308396Y-95459400D01*
X103216907Y-95455389D01*
X103128788Y-95447158D01*
X103068414Y-95437506D01*
X103019840Y-95425586D01*
X102982210Y-95410897D01*
X102953973Y-95388267D01*
X102933577Y-95352520D01*
X102919471Y-95298481D01*
X102910103Y-95220975D01*
X102903922Y-95114829D01*
X102899377Y-94974866D01*
X102896591Y-94864408D01*
X102894921Y-94791775D01*
X103379062Y-94791775D01*
X103382429Y-94898817D01*
X103391615Y-94987037D01*
X103406028Y-95043959D01*
X103451817Y-95115187D01*
X103510704Y-95154632D01*
X103574151Y-95160013D01*
X103633619Y-95129049D01*
X103651631Y-95109562D01*
X103666481Y-95088252D01*
X103677549Y-95063260D01*
X103685388Y-95028440D01*
X103690548Y-94977650D01*
X103693583Y-94904745D01*
X103695045Y-94803580D01*
X103695485Y-94668013D01*
X103695500Y-94621303D01*
X103695500Y-94188814D01*
X103647875Y-94203178D01*
X103538407Y-94247564D01*
X103457960Y-94304123D01*
X103435036Y-94330195D01*
X103415511Y-94378791D01*
X103399738Y-94459418D01*
X103388129Y-94561904D01*
X103381100Y-94676081D01*
X103379062Y-94791775D01*
X102894921Y-94791775D01*
X102893034Y-94709766D01*
X102891138Y-94591100D01*
G36*
X96096667Y-92832824D02*
G01*
X95850187Y-92848225D01*
X95603707Y-92863625D01*
X95617028Y-93226021D01*
X95622385Y-93378852D01*
X95627956Y-93550622D01*
X95633633Y-93736897D01*
X95639310Y-93933244D01*
X95644880Y-94135232D01*
X95650236Y-94338426D01*
X95655271Y-94538395D01*
X95659880Y-94730705D01*
X95663954Y-94910924D01*
X95667388Y-95074619D01*
X95670075Y-95217357D01*
X95671907Y-95334705D01*
X95672778Y-95422231D01*
X95672582Y-95475502D01*
X95671553Y-95490511D01*
X95648141Y-95494731D01*
X95591343Y-95500352D01*
X95510047Y-95506597D01*
X95426456Y-95511926D01*
X95190162Y-95525696D01*
X95178455Y-95371973D01*
X95175092Y-95311342D01*
X95171320Y-95215274D01*
X95167338Y-95090660D01*
X95163347Y-94944393D01*
X95159544Y-94783363D01*
X95156128Y-94614464D01*
X95155373Y-94572667D01*
X95151750Y-94377055D01*
X95147503Y-94164319D01*
X95142902Y-93946786D01*
X95138210Y-93736785D01*
X95133697Y-93546641D01*
X95130305Y-93413792D01*
X95116612Y-92900500D01*
X94548906Y-92900500D01*
X94560787Y-92805250D01*
X94571445Y-92719662D01*
X94582414Y-92631398D01*
X94584154Y-92617373D01*
X94594064Y-92559209D01*
X94612276Y-92529899D01*
X94650177Y-92516077D01*
X94674112Y-92511773D01*
X94714343Y-92508563D01*
X94791065Y-92505627D01*
X94898436Y-92503068D01*
X95030612Y-92500989D01*
X95181752Y-92499492D01*
X95346014Y-92498681D01*
X95424625Y-92498566D01*
X96096667Y-92498334D01*
X96096667Y-92832824D01*
G37*
X96096667Y-92832824D02*
X95850187Y-92848225D01*
X95603707Y-92863625D01*
X95617028Y-93226021D01*
X95622385Y-93378852D01*
X95627956Y-93550622D01*
X95633633Y-93736897D01*
X95639310Y-93933244D01*
X95644880Y-94135232D01*
X95650236Y-94338426D01*
X95655271Y-94538395D01*
X95659880Y-94730705D01*
X95663954Y-94910924D01*
X95667388Y-95074619D01*
X95670075Y-95217357D01*
X95671907Y-95334705D01*
X95672778Y-95422231D01*
X95672582Y-95475502D01*
X95671553Y-95490511D01*
X95648141Y-95494731D01*
X95591343Y-95500352D01*
X95510047Y-95506597D01*
X95426456Y-95511926D01*
X95190162Y-95525696D01*
X95178455Y-95371973D01*
X95175092Y-95311342D01*
X95171320Y-95215274D01*
X95167338Y-95090660D01*
X95163347Y-94944393D01*
X95159544Y-94783363D01*
X95156128Y-94614464D01*
X95155373Y-94572667D01*
X95151750Y-94377055D01*
X95147503Y-94164319D01*
X95142902Y-93946786D01*
X95138210Y-93736785D01*
X95133697Y-93546641D01*
X95130305Y-93413792D01*
X95116612Y-92900500D01*
X94548906Y-92900500D01*
X94560787Y-92805250D01*
X94571445Y-92719662D01*
X94582414Y-92631398D01*
X94584154Y-92617373D01*
X94594064Y-92559209D01*
X94612276Y-92529899D01*
X94650177Y-92516077D01*
X94674112Y-92511773D01*
X94714343Y-92508563D01*
X94791065Y-92505627D01*
X94898436Y-92503068D01*
X95030612Y-92500989D01*
X95181752Y-92499492D01*
X95346014Y-92498681D01*
X95424625Y-92498566D01*
X96096667Y-92498334D01*
X96096667Y-92832824D01*
G36*
X100111277Y-61726431D02*
G01*
X100347636Y-61732584D01*
X100178558Y-61923084D01*
X100099477Y-62012340D01*
X100018569Y-62103919D01*
X99946758Y-62185443D01*
X99905747Y-62232193D01*
X99802014Y-62350802D01*
X100087174Y-62670517D01*
X100173538Y-62767888D01*
X100249392Y-62854443D01*
X100310514Y-62925280D01*
X100352685Y-62975498D01*
X100371683Y-63000194D01*
X100372334Y-63001700D01*
X100352597Y-63006322D01*
X100299103Y-63010054D01*
X100220425Y-63012468D01*
X100141123Y-63013167D01*
X99909913Y-63013167D01*
X99725818Y-62806792D01*
X99656090Y-62729899D01*
X99595990Y-62666009D01*
X99551253Y-62621048D01*
X99527614Y-62600940D01*
X99526029Y-62600417D01*
X99506865Y-62615370D01*
X99465586Y-62656275D01*
X99407924Y-62717200D01*
X99339611Y-62792213D01*
X99326591Y-62806792D01*
X99142849Y-63013167D01*
X98909675Y-63013167D01*
X98804626Y-63012111D01*
X98736611Y-63008518D01*
X98700374Y-63001746D01*
X98690659Y-62991157D01*
X98692381Y-62986709D01*
X98711094Y-62962749D01*
X98753014Y-62912909D01*
X98813206Y-62842937D01*
X98886735Y-62758577D01*
X98951412Y-62685084D01*
X99032931Y-62592731D01*
X99106054Y-62509703D01*
X99165576Y-62441923D01*
X99206293Y-62395316D01*
X99221624Y-62377503D01*
X99227568Y-62362135D01*
X99221630Y-62339096D01*
X99200671Y-62304042D01*
X99161551Y-62252628D01*
X99101130Y-62180510D01*
X99016268Y-62083343D01*
X98976860Y-62038837D01*
X98705035Y-61732584D01*
X98939760Y-61726558D01*
X99174485Y-61720533D01*
X99291868Y-61853083D01*
X99355296Y-61924491D01*
X99415794Y-61992236D01*
X99461819Y-62043397D01*
X99467459Y-62049609D01*
X99525667Y-62113584D01*
X99583875Y-62049449D01*
X99626224Y-62002262D01*
X99684893Y-61936231D01*
X99748325Y-61864371D01*
X99758500Y-61852796D01*
X99874917Y-61720278D01*
X100111277Y-61726431D01*
G37*
X100111277Y-61726431D02*
X100347636Y-61732584D01*
X100178558Y-61923084D01*
X100099477Y-62012340D01*
X100018569Y-62103919D01*
X99946758Y-62185443D01*
X99905747Y-62232193D01*
X99802014Y-62350802D01*
X100087174Y-62670517D01*
X100173538Y-62767888D01*
X100249392Y-62854443D01*
X100310514Y-62925280D01*
X100352685Y-62975498D01*
X100371683Y-63000194D01*
X100372334Y-63001700D01*
X100352597Y-63006322D01*
X100299103Y-63010054D01*
X100220425Y-63012468D01*
X100141123Y-63013167D01*
X99909913Y-63013167D01*
X99725818Y-62806792D01*
X99656090Y-62729899D01*
X99595990Y-62666009D01*
X99551253Y-62621048D01*
X99527614Y-62600940D01*
X99526029Y-62600417D01*
X99506865Y-62615370D01*
X99465586Y-62656275D01*
X99407924Y-62717200D01*
X99339611Y-62792213D01*
X99326591Y-62806792D01*
X99142849Y-63013167D01*
X98909675Y-63013167D01*
X98804626Y-63012111D01*
X98736611Y-63008518D01*
X98700374Y-63001746D01*
X98690659Y-62991157D01*
X98692381Y-62986709D01*
X98711094Y-62962749D01*
X98753014Y-62912909D01*
X98813206Y-62842937D01*
X98886735Y-62758577D01*
X98951412Y-62685084D01*
X99032931Y-62592731D01*
X99106054Y-62509703D01*
X99165576Y-62441923D01*
X99206293Y-62395316D01*
X99221624Y-62377503D01*
X99227568Y-62362135D01*
X99221630Y-62339096D01*
X99200671Y-62304042D01*
X99161551Y-62252628D01*
X99101130Y-62180510D01*
X99016268Y-62083343D01*
X98976860Y-62038837D01*
X98705035Y-61732584D01*
X98939760Y-61726558D01*
X99174485Y-61720533D01*
X99291868Y-61853083D01*
X99355296Y-61924491D01*
X99415794Y-61992236D01*
X99461819Y-62043397D01*
X99467459Y-62049609D01*
X99525667Y-62113584D01*
X99583875Y-62049449D01*
X99626224Y-62002262D01*
X99684893Y-61936231D01*
X99748325Y-61864371D01*
X99758500Y-61852796D01*
X99874917Y-61720278D01*
X100111277Y-61726431D01*
G36*
X100247969Y-92529990D02*
G01*
X100334822Y-92537413D01*
X100404211Y-92544627D01*
X100446406Y-92550554D01*
X100454483Y-92552861D01*
X100456569Y-92574711D01*
X100459697Y-92634587D01*
X100463730Y-92728195D01*
X100468533Y-92851244D01*
X100473971Y-92999442D01*
X100479907Y-93168497D01*
X100486207Y-93354117D01*
X100492734Y-93552009D01*
X100499353Y-93757883D01*
X100505929Y-93967445D01*
X100512325Y-94176404D01*
X100518406Y-94380468D01*
X100524037Y-94575345D01*
X100529081Y-94756743D01*
X100533404Y-94920369D01*
X100536869Y-95061932D01*
X100539342Y-95177140D01*
X100540685Y-95261700D01*
X100540880Y-95287042D01*
X100539849Y-95390718D01*
X100535445Y-95457258D01*
X100527051Y-95491768D01*
X100515209Y-95499607D01*
X100483287Y-95496932D01*
X100420214Y-95493484D01*
X100337150Y-95489840D01*
X100295515Y-95488263D01*
X100102279Y-95481313D01*
X100089367Y-95053448D01*
X100086431Y-94943166D01*
X100083143Y-94797049D01*
X100079619Y-94621596D01*
X100075975Y-94423304D01*
X100072326Y-94208669D01*
X100068787Y-93984188D01*
X100065474Y-93756359D01*
X100062988Y-93570084D01*
X100049521Y-92514585D01*
X100247969Y-92529990D01*
G37*
X100247969Y-92529990D02*
X100334822Y-92537413D01*
X100404211Y-92544627D01*
X100446406Y-92550554D01*
X100454483Y-92552861D01*
X100456569Y-92574711D01*
X100459697Y-92634587D01*
X100463730Y-92728195D01*
X100468533Y-92851244D01*
X100473971Y-92999442D01*
X100479907Y-93168497D01*
X100486207Y-93354117D01*
X100492734Y-93552009D01*
X100499353Y-93757883D01*
X100505929Y-93967445D01*
X100512325Y-94176404D01*
X100518406Y-94380468D01*
X100524037Y-94575345D01*
X100529081Y-94756743D01*
X100533404Y-94920369D01*
X100536869Y-95061932D01*
X100539342Y-95177140D01*
X100540685Y-95261700D01*
X100540880Y-95287042D01*
X100539849Y-95390718D01*
X100535445Y-95457258D01*
X100527051Y-95491768D01*
X100515209Y-95499607D01*
X100483287Y-95496932D01*
X100420214Y-95493484D01*
X100337150Y-95489840D01*
X100295515Y-95488263D01*
X100102279Y-95481313D01*
X100089367Y-95053448D01*
X100086431Y-94943166D01*
X100083143Y-94797049D01*
X100079619Y-94621596D01*
X100075975Y-94423304D01*
X100072326Y-94208669D01*
X100068787Y-93984188D01*
X100065474Y-93756359D01*
X100062988Y-93570084D01*
X100049521Y-92514585D01*
X100247969Y-92529990D01*
G36*
X93937667Y-33337500D02*
G01*
X86199444Y-33337500D01*
X86130014Y-32443209D01*
X86114763Y-32247323D01*
X86108970Y-32173334D01*
X86989461Y-32173334D01*
X87002581Y-32252709D01*
X87011763Y-32327299D01*
X87015918Y-32398479D01*
X87015934Y-32400875D01*
X87016167Y-32469667D01*
X93048667Y-32469667D01*
X93048667Y-32173334D01*
X86989461Y-32173334D01*
X86108970Y-32173334D01*
X86100090Y-32059919D01*
X86086412Y-31886234D01*
X86074144Y-31731508D01*
X86063703Y-31600978D01*
X86055504Y-31499883D01*
X86049964Y-31433462D01*
X86048481Y-31416625D01*
X86036379Y-31284334D01*
X93937667Y-31284334D01*
X93937667Y-33337500D01*
G37*
X93937667Y-33337500D02*
X86199444Y-33337500D01*
X86130014Y-32443209D01*
X86114763Y-32247323D01*
X86108970Y-32173334D01*
X86989461Y-32173334D01*
X87002581Y-32252709D01*
X87011763Y-32327299D01*
X87015918Y-32398479D01*
X87015934Y-32400875D01*
X87016167Y-32469667D01*
X93048667Y-32469667D01*
X93048667Y-32173334D01*
X86989461Y-32173334D01*
X86108970Y-32173334D01*
X86100090Y-32059919D01*
X86086412Y-31886234D01*
X86074144Y-31731508D01*
X86063703Y-31600978D01*
X86055504Y-31499883D01*
X86049964Y-31433462D01*
X86048481Y-31416625D01*
X86036379Y-31284334D01*
X93937667Y-31284334D01*
X93937667Y-33337500D01*
G36*
X87414532Y-65844209D02*
G01*
X87461228Y-65663243D01*
X87538495Y-65505480D01*
X87651635Y-65360699D01*
X87681460Y-65329982D01*
X87832993Y-65205891D01*
X87996894Y-65119045D01*
X88168533Y-65067920D01*
X88343279Y-65050990D01*
X88516503Y-65066730D01*
X88683576Y-65113613D01*
X88839866Y-65190115D01*
X88980745Y-65294710D01*
X89101583Y-65425872D01*
X89197749Y-65582077D01*
X89264614Y-65761798D01*
X89285354Y-65858437D01*
X89296559Y-66046205D01*
X89269675Y-66225832D01*
X89208708Y-66393644D01*
X89117665Y-66545968D01*
X89000554Y-66679131D01*
X88861382Y-66789460D01*
X88704155Y-66873282D01*
X88532881Y-66926924D01*
X88351567Y-66946713D01*
X88164220Y-66928977D01*
X88126539Y-66920642D01*
X87957784Y-66863224D01*
X87807994Y-66775201D01*
X87681460Y-66665685D01*
X87552928Y-66509483D01*
X87462808Y-66337341D01*
X87412126Y-66152418D01*
X87403999Y-65997667D01*
X87989834Y-65997667D01*
X88008940Y-66110635D01*
X88061314Y-66207822D01*
X88139539Y-66284248D01*
X88236199Y-66334929D01*
X88343876Y-66354884D01*
X88455153Y-66339131D01*
X88482969Y-66328903D01*
X88558979Y-66280866D01*
X88629118Y-66208998D01*
X88681068Y-66127853D01*
X88700228Y-66072203D01*
X88702461Y-65956041D01*
X88668949Y-65847898D01*
X88605639Y-65755077D01*
X88518478Y-65684878D01*
X88413412Y-65644604D01*
X88346446Y-65637834D01*
X88237475Y-65657630D01*
X88139563Y-65711793D01*
X88060479Y-65792484D01*
X88007990Y-65891866D01*
X87989834Y-65997667D01*
X87403999Y-65997667D01*
X87401909Y-65957874D01*
X87414532Y-65844209D01*
G37*
X87414532Y-65844209D02*
X87461228Y-65663243D01*
X87538495Y-65505480D01*
X87651635Y-65360699D01*
X87681460Y-65329982D01*
X87832993Y-65205891D01*
X87996894Y-65119045D01*
X88168533Y-65067920D01*
X88343279Y-65050990D01*
X88516503Y-65066730D01*
X88683576Y-65113613D01*
X88839866Y-65190115D01*
X88980745Y-65294710D01*
X89101583Y-65425872D01*
X89197749Y-65582077D01*
X89264614Y-65761798D01*
X89285354Y-65858437D01*
X89296559Y-66046205D01*
X89269675Y-66225832D01*
X89208708Y-66393644D01*
X89117665Y-66545968D01*
X89000554Y-66679131D01*
X88861382Y-66789460D01*
X88704155Y-66873282D01*
X88532881Y-66926924D01*
X88351567Y-66946713D01*
X88164220Y-66928977D01*
X88126539Y-66920642D01*
X87957784Y-66863224D01*
X87807994Y-66775201D01*
X87681460Y-66665685D01*
X87552928Y-66509483D01*
X87462808Y-66337341D01*
X87412126Y-66152418D01*
X87403999Y-65997667D01*
X87989834Y-65997667D01*
X88008940Y-66110635D01*
X88061314Y-66207822D01*
X88139539Y-66284248D01*
X88236199Y-66334929D01*
X88343876Y-66354884D01*
X88455153Y-66339131D01*
X88482969Y-66328903D01*
X88558979Y-66280866D01*
X88629118Y-66208998D01*
X88681068Y-66127853D01*
X88700228Y-66072203D01*
X88702461Y-65956041D01*
X88668949Y-65847898D01*
X88605639Y-65755077D01*
X88518478Y-65684878D01*
X88413412Y-65644604D01*
X88346446Y-65637834D01*
X88237475Y-65657630D01*
X88139563Y-65711793D01*
X88060479Y-65792484D01*
X88007990Y-65891866D01*
X87989834Y-65997667D01*
X87403999Y-65997667D01*
X87401909Y-65957874D01*
X87414532Y-65844209D01*
G36*
X99163126Y-89507532D02*
G01*
X99167694Y-89282582D01*
X99172550Y-89043905D01*
X99175478Y-88900199D01*
X99180362Y-88656550D01*
X99184828Y-88425586D01*
X99188821Y-88210749D01*
X99192283Y-88015480D01*
X99195160Y-87843221D01*
X99197394Y-87697412D01*
X99198930Y-87581495D01*
X99199712Y-87498911D01*
X99199682Y-87453102D01*
X99199239Y-87444684D01*
X99177114Y-87443584D01*
X99116011Y-87443286D01*
X99019280Y-87443734D01*
X98890269Y-87444868D01*
X98732324Y-87446629D01*
X98548794Y-87448960D01*
X98343028Y-87451802D01*
X98118373Y-87455096D01*
X97878176Y-87458785D01*
X97625786Y-87462808D01*
X97364552Y-87467109D01*
X97097819Y-87471628D01*
X96828938Y-87476307D01*
X96561255Y-87481087D01*
X96298119Y-87485911D01*
X96042877Y-87490719D01*
X95798878Y-87495453D01*
X95569469Y-87500056D01*
X95357998Y-87504467D01*
X95167814Y-87508629D01*
X95002264Y-87512483D01*
X94864695Y-87515971D01*
X94758457Y-87519034D01*
X94686897Y-87521615D01*
X94653363Y-87523653D01*
X94651250Y-87524114D01*
X94649711Y-87546738D01*
X94649508Y-87608986D01*
X94650577Y-87708169D01*
X94652851Y-87841601D01*
X94656264Y-88006593D01*
X94660752Y-88200460D01*
X94666249Y-88420512D01*
X94672688Y-88664064D01*
X94680004Y-88928427D01*
X94688133Y-89210915D01*
X94697007Y-89508841D01*
X94706561Y-89819516D01*
X94709911Y-89926217D01*
X94719770Y-90240361D01*
X94729153Y-90542513D01*
X94737981Y-90830001D01*
X94746178Y-91100149D01*
X94753666Y-91350285D01*
X94760366Y-91577736D01*
X94766201Y-91779828D01*
X94771093Y-91953887D01*
X94774964Y-92097240D01*
X94777737Y-92207213D01*
X94779334Y-92281133D01*
X94779678Y-92316327D01*
X94779494Y-92318996D01*
X94758127Y-92319714D01*
X94696108Y-92321006D01*
X94595115Y-92322849D01*
X94456826Y-92325216D01*
X94282918Y-92328082D01*
X94075068Y-92331422D01*
X93834955Y-92335210D01*
X93564255Y-92339421D01*
X93264646Y-92344028D01*
X92937806Y-92349008D01*
X92585413Y-92354333D01*
X92209143Y-92359979D01*
X91810675Y-92365920D01*
X91391685Y-92372131D01*
X90953852Y-92378586D01*
X90498853Y-92385260D01*
X90028366Y-92392127D01*
X89544067Y-92399162D01*
X89047635Y-92406339D01*
X88720084Y-92411056D01*
X88208257Y-92418430D01*
X87703259Y-92425735D01*
X87207018Y-92432942D01*
X86721462Y-92440022D01*
X86248519Y-92446946D01*
X85790118Y-92453685D01*
X85348188Y-92460209D01*
X84924655Y-92466491D01*
X84521449Y-92472501D01*
X84140498Y-92478210D01*
X83783731Y-92483590D01*
X83453074Y-92488611D01*
X83150458Y-92493244D01*
X82877809Y-92497461D01*
X82637057Y-92501232D01*
X82430129Y-92504529D01*
X82258954Y-92507323D01*
X82125460Y-92509584D01*
X82031576Y-92511284D01*
X82004959Y-92511813D01*
X81343500Y-92525523D01*
X81343700Y-92443137D01*
X81342952Y-92406491D01*
X81340712Y-92332078D01*
X81337104Y-92223177D01*
X81332254Y-92083071D01*
X81326287Y-91915041D01*
X81319327Y-91722369D01*
X81311500Y-91508336D01*
X81302931Y-91276225D01*
X81293744Y-91029317D01*
X81284066Y-90770893D01*
X81274021Y-90504235D01*
X81263734Y-90232624D01*
X81253329Y-89959343D01*
X81242934Y-89687673D01*
X81232671Y-89420896D01*
X81222667Y-89162293D01*
X81213046Y-88915146D01*
X81203933Y-88682736D01*
X81195454Y-88468345D01*
X81187734Y-88275255D01*
X81180897Y-88106747D01*
X81175069Y-87966103D01*
X81170375Y-87856605D01*
X81168802Y-87822223D01*
X81777369Y-87822223D01*
X81778675Y-87919108D01*
X81781264Y-88047803D01*
X81785021Y-88204810D01*
X81789831Y-88386632D01*
X81795579Y-88589772D01*
X81802151Y-88810731D01*
X81809431Y-89046012D01*
X81817305Y-89292119D01*
X81825658Y-89545553D01*
X81834375Y-89802817D01*
X81843341Y-90060414D01*
X81852442Y-90314846D01*
X81861562Y-90562615D01*
X81870587Y-90800225D01*
X81879402Y-91024178D01*
X81887892Y-91230975D01*
X81895942Y-91417121D01*
X81903438Y-91579117D01*
X81908504Y-91680317D01*
X81921600Y-91931218D01*
X82463342Y-91918204D01*
X82574177Y-91915763D01*
X82722568Y-91912841D01*
X82903742Y-91909516D01*
X83112925Y-91905866D01*
X83345344Y-91901971D01*
X83596226Y-91897909D01*
X83860797Y-91893759D01*
X84134283Y-91889600D01*
X84411912Y-91885510D01*
X84656084Y-91882028D01*
X84916364Y-91878339D01*
X85164074Y-91874754D01*
X85395999Y-91871325D01*
X85608927Y-91868102D01*
X85799644Y-91865136D01*
X85964936Y-91862480D01*
X86101590Y-91860182D01*
X86206393Y-91858295D01*
X86276131Y-91856869D01*
X86307591Y-91855956D01*
X86309104Y-91855808D01*
X86298973Y-91837476D01*
X86268930Y-91784831D01*
X86220306Y-91700176D01*
X86154433Y-91585815D01*
X86072642Y-91444053D01*
X85976265Y-91277192D01*
X85866632Y-91087537D01*
X85745076Y-90877392D01*
X85612928Y-90649060D01*
X85471519Y-90404846D01*
X85322181Y-90147052D01*
X85166245Y-89877984D01*
X85104845Y-89772067D01*
X83898565Y-87691385D01*
X82848574Y-87705651D01*
X82641448Y-87708812D01*
X82447102Y-87712447D01*
X82269658Y-87716433D01*
X82113241Y-87720644D01*
X81981973Y-87724956D01*
X81879979Y-87729246D01*
X81811382Y-87733389D01*
X81780306Y-87737260D01*
X81779064Y-87737871D01*
X81777460Y-87760644D01*
X81777369Y-87822223D01*
X81168802Y-87822223D01*
X81166940Y-87781534D01*
X81164888Y-87744172D01*
X81164483Y-87740520D01*
X81143053Y-87740196D01*
X81081602Y-87740561D01*
X80982435Y-87741580D01*
X80847857Y-87743220D01*
X80680172Y-87745446D01*
X80481688Y-87748225D01*
X80254709Y-87751521D01*
X80001540Y-87755302D01*
X79724487Y-87759533D01*
X79425855Y-87764179D01*
X79107950Y-87769207D01*
X78773077Y-87774582D01*
X78423541Y-87780271D01*
X78061648Y-87786239D01*
X77947017Y-87788145D01*
X77576820Y-87794286D01*
X77215238Y-87800227D01*
X76864828Y-87805929D01*
X76528148Y-87811354D01*
X76207754Y-87816462D01*
X75906204Y-87821213D01*
X75626055Y-87825568D01*
X75369865Y-87829487D01*
X75140190Y-87832932D01*
X74939588Y-87835862D01*
X74770617Y-87838239D01*
X74635832Y-87840023D01*
X74537793Y-87841175D01*
X74479055Y-87841655D01*
X74472761Y-87841667D01*
X74210334Y-87841667D01*
X74210334Y-87683138D01*
X84586423Y-87683138D01*
X84595989Y-87701742D01*
X84625446Y-87754670D01*
X84673470Y-87839613D01*
X84738735Y-87954260D01*
X84819917Y-88096305D01*
X84915689Y-88263436D01*
X85024727Y-88453345D01*
X85145707Y-88663722D01*
X85277302Y-88892260D01*
X85418187Y-89136647D01*
X85567039Y-89394576D01*
X85722531Y-89663737D01*
X85782339Y-89767196D01*
X86984417Y-91846210D01*
X88095667Y-91831768D01*
X88308237Y-91828942D01*
X88507600Y-91826170D01*
X88689830Y-91823515D01*
X88850999Y-91821040D01*
X88987180Y-91818807D01*
X89094447Y-91816881D01*
X89168871Y-91815323D01*
X89206527Y-91814197D01*
X89210431Y-91813871D01*
X89221602Y-91794019D01*
X89228023Y-91782055D01*
X89898361Y-91782055D01*
X89904486Y-91786450D01*
X89927863Y-91790120D01*
X89970336Y-91793057D01*
X90033747Y-91795253D01*
X90119938Y-91796699D01*
X90230754Y-91797389D01*
X90368036Y-91797313D01*
X90533628Y-91796464D01*
X90729372Y-91794833D01*
X90957111Y-91792414D01*
X91218689Y-91789197D01*
X91515947Y-91785175D01*
X91850730Y-91780339D01*
X92224879Y-91774682D01*
X92471274Y-91770855D01*
X92733995Y-91766564D01*
X92984439Y-91762131D01*
X93219385Y-91757634D01*
X93435612Y-91753150D01*
X93629901Y-91748757D01*
X93799032Y-91744532D01*
X93939784Y-91740554D01*
X94048937Y-91736900D01*
X94123270Y-91733648D01*
X94159564Y-91730875D01*
X94162650Y-91730073D01*
X94163796Y-91707663D01*
X94163629Y-91646430D01*
X94162255Y-91549861D01*
X94159776Y-91421443D01*
X94156296Y-91264662D01*
X94151920Y-91083006D01*
X94146751Y-90879961D01*
X94140894Y-90659014D01*
X94134451Y-90423652D01*
X94127526Y-90177361D01*
X94120224Y-89923629D01*
X94112649Y-89665942D01*
X94104904Y-89407787D01*
X94097092Y-89152651D01*
X94089319Y-88904020D01*
X94081688Y-88665382D01*
X94074301Y-88440223D01*
X94067265Y-88232030D01*
X94060681Y-88044290D01*
X94054655Y-87880489D01*
X94049290Y-87744115D01*
X94044689Y-87638654D01*
X94040957Y-87567594D01*
X94038198Y-87534420D01*
X94037641Y-87532419D01*
X94015348Y-87530933D01*
X93954996Y-87530140D01*
X93860853Y-87530017D01*
X93737190Y-87530539D01*
X93588273Y-87531681D01*
X93418372Y-87533418D01*
X93231755Y-87535726D01*
X93073597Y-87537963D01*
X92118254Y-87552209D01*
X91011836Y-89658243D01*
X90865835Y-89936188D01*
X90725346Y-90203715D01*
X90591623Y-90458431D01*
X90465920Y-90697943D01*
X90349493Y-90919858D01*
X90243595Y-91121784D01*
X90149481Y-91301327D01*
X90068405Y-91456096D01*
X90001622Y-91583697D01*
X89950386Y-91681738D01*
X89915951Y-91747827D01*
X89899573Y-91779569D01*
X89898361Y-91782055D01*
X89228023Y-91782055D01*
X89250781Y-91739654D01*
X89296459Y-91653659D01*
X89357129Y-91538914D01*
X89431280Y-91398300D01*
X89517406Y-91234699D01*
X89613997Y-91050990D01*
X89719545Y-90850056D01*
X89832541Y-90634777D01*
X89951478Y-90408035D01*
X90074846Y-90172710D01*
X90201138Y-89931683D01*
X90328844Y-89687835D01*
X90456456Y-89444048D01*
X90582466Y-89203203D01*
X90705365Y-88968180D01*
X90823645Y-88741861D01*
X90935797Y-88527126D01*
X91040313Y-88326857D01*
X91135684Y-88143934D01*
X91220402Y-87981239D01*
X91292959Y-87841653D01*
X91351846Y-87728057D01*
X91395554Y-87643331D01*
X91422575Y-87590357D01*
X91431409Y-87572020D01*
X91410020Y-87571699D01*
X91349025Y-87572066D01*
X91251148Y-87573075D01*
X91119109Y-87574684D01*
X90955631Y-87576847D01*
X90763434Y-87579521D01*
X90545242Y-87582662D01*
X90303776Y-87586224D01*
X90041758Y-87590165D01*
X89761909Y-87594439D01*
X89466953Y-87599003D01*
X89159609Y-87603813D01*
X88842601Y-87608824D01*
X88518650Y-87613992D01*
X88190478Y-87619272D01*
X87860807Y-87624622D01*
X87532358Y-87629996D01*
X87207854Y-87635351D01*
X86890017Y-87640641D01*
X86581568Y-87645824D01*
X86285229Y-87650854D01*
X86003722Y-87655688D01*
X85739769Y-87660282D01*
X85496091Y-87664590D01*
X85275411Y-87668570D01*
X85080451Y-87672177D01*
X84913932Y-87675366D01*
X84778576Y-87678094D01*
X84677105Y-87680316D01*
X84612241Y-87681988D01*
X84586706Y-87683066D01*
X84586423Y-87683138D01*
X74210334Y-87683138D01*
X74210334Y-87293252D01*
X74279125Y-87283090D01*
X74311164Y-87281133D01*
X74382027Y-87278693D01*
X74488210Y-87275840D01*
X74626207Y-87272644D01*
X74792514Y-87269177D01*
X74983625Y-87265508D01*
X75196035Y-87261707D01*
X75426239Y-87257845D01*
X75670733Y-87253992D01*
X75901718Y-87250566D01*
X76154245Y-87246824D01*
X76394250Y-87243057D01*
X76618401Y-87239330D01*
X76823368Y-87235710D01*
X77005821Y-87232261D01*
X77162429Y-87229049D01*
X77289860Y-87226139D01*
X77384786Y-87223596D01*
X77443875Y-87221485D01*
X77463781Y-87219941D01*
X77464011Y-87217250D01*
X78056737Y-87217250D01*
X78414244Y-87211585D01*
X78506554Y-87210100D01*
X78635492Y-87207992D01*
X78795360Y-87205356D01*
X78980458Y-87202287D01*
X79185088Y-87198879D01*
X79403550Y-87195228D01*
X79630146Y-87191428D01*
X79859177Y-87187573D01*
X79900656Y-87186874D01*
X80115311Y-87183023D01*
X80317077Y-87178959D01*
X80502018Y-87174793D01*
X80666195Y-87170634D01*
X80805668Y-87166592D01*
X80916499Y-87162777D01*
X80994750Y-87159299D01*
X81036482Y-87156268D01*
X81042373Y-87155016D01*
X81043799Y-87132562D01*
X81044311Y-87071467D01*
X81043978Y-86975412D01*
X81042872Y-86848077D01*
X81041062Y-86693145D01*
X81038619Y-86514295D01*
X81035614Y-86315209D01*
X81032116Y-86099568D01*
X81028196Y-85871052D01*
X81023924Y-85633343D01*
X81019372Y-85390121D01*
X81014608Y-85145067D01*
X81009704Y-84901863D01*
X81004729Y-84664188D01*
X80999754Y-84435725D01*
X80994850Y-84220154D01*
X80990087Y-84021156D01*
X80985535Y-83842412D01*
X80981265Y-83687602D01*
X80977346Y-83560408D01*
X80973849Y-83464511D01*
X80970846Y-83403592D01*
X80970604Y-83399981D01*
X80959335Y-83237289D01*
X81560732Y-83237289D01*
X81561435Y-83297641D01*
X81563021Y-83394136D01*
X81565426Y-83523684D01*
X81568587Y-83683194D01*
X81572440Y-83869577D01*
X81576922Y-84079744D01*
X81581970Y-84310605D01*
X81587519Y-84559070D01*
X81593507Y-84822050D01*
X81597773Y-85006580D01*
X81604151Y-85282824D01*
X81610235Y-85550399D01*
X81615952Y-85805784D01*
X81621228Y-86045455D01*
X81625986Y-86265892D01*
X81630154Y-86463572D01*
X81633655Y-86634973D01*
X81636415Y-86776573D01*
X81638360Y-86884851D01*
X81639415Y-86956284D01*
X81639589Y-86978735D01*
X81639834Y-87163553D01*
X82131959Y-87151977D01*
X82193220Y-87150691D01*
X82295015Y-87148752D01*
X82435552Y-87146191D01*
X82613037Y-87143038D01*
X82825676Y-87139323D01*
X83071676Y-87135076D01*
X83349245Y-87130327D01*
X83656588Y-87125105D01*
X83991912Y-87119442D01*
X84353424Y-87113367D01*
X84739331Y-87106911D01*
X85147839Y-87100102D01*
X85577155Y-87092972D01*
X86025486Y-87085551D01*
X86491038Y-87077868D01*
X86972018Y-87069953D01*
X87466633Y-87061837D01*
X87973089Y-87053550D01*
X88489593Y-87045122D01*
X89014352Y-87036582D01*
X89067807Y-87035714D01*
X89587361Y-87027246D01*
X90095935Y-87018904D01*
X90591902Y-87010716D01*
X91073636Y-87002712D01*
X91539509Y-86994919D01*
X91987896Y-86987366D01*
X92417168Y-86980082D01*
X92825701Y-86973095D01*
X93211866Y-86966433D01*
X93574038Y-86960126D01*
X93910589Y-86954201D01*
X94219893Y-86948687D01*
X94500324Y-86943613D01*
X94750254Y-86939008D01*
X94968057Y-86934898D01*
X95152106Y-86931315D01*
X95300774Y-86928285D01*
X95412436Y-86925837D01*
X95485463Y-86924000D01*
X95518230Y-86922802D01*
X95519964Y-86922592D01*
X95520664Y-86901071D01*
X95520838Y-86840865D01*
X95520529Y-86745582D01*
X95519777Y-86618829D01*
X95518623Y-86464214D01*
X95517109Y-86285343D01*
X95515275Y-86085825D01*
X95513163Y-85869266D01*
X95510813Y-85639275D01*
X95508268Y-85399459D01*
X95505567Y-85153425D01*
X95502753Y-84904781D01*
X95499866Y-84657134D01*
X95496947Y-84414092D01*
X95494038Y-84179262D01*
X95491179Y-83956251D01*
X95488412Y-83748668D01*
X95485777Y-83560119D01*
X95483317Y-83394212D01*
X95481071Y-83254555D01*
X95479082Y-83144754D01*
X95477390Y-83068418D01*
X95476036Y-83029154D01*
X95475541Y-83024535D01*
X95454301Y-83024622D01*
X95392642Y-83025274D01*
X95292471Y-83026467D01*
X95155694Y-83028173D01*
X94984221Y-83030366D01*
X94779956Y-83033021D01*
X94544809Y-83036110D01*
X94280686Y-83039608D01*
X93989495Y-83043489D01*
X93673142Y-83047725D01*
X93333536Y-83052291D01*
X92972582Y-83057160D01*
X92592190Y-83062307D01*
X92194265Y-83067705D01*
X91780716Y-83073327D01*
X91353449Y-83079148D01*
X90914371Y-83085141D01*
X90465391Y-83091279D01*
X90008416Y-83097538D01*
X89545351Y-83103890D01*
X89078106Y-83110308D01*
X88608587Y-83116768D01*
X88138701Y-83123242D01*
X87670357Y-83129705D01*
X87205460Y-83136129D01*
X86745918Y-83142490D01*
X86293640Y-83148759D01*
X85850531Y-83154912D01*
X85418499Y-83160922D01*
X84999451Y-83166763D01*
X84595296Y-83172408D01*
X84207939Y-83177831D01*
X83839289Y-83183006D01*
X83491252Y-83187906D01*
X83165737Y-83192506D01*
X82864649Y-83196779D01*
X82589897Y-83200699D01*
X82343387Y-83204240D01*
X82127028Y-83207374D01*
X81942726Y-83210077D01*
X81792388Y-83212321D01*
X81677923Y-83214081D01*
X81601236Y-83215330D01*
X81564236Y-83216042D01*
X81560976Y-83216168D01*
X81560732Y-83237289D01*
X80959335Y-83237289D01*
X80958371Y-83223379D01*
X79833310Y-83236332D01*
X79607337Y-83239104D01*
X79384811Y-83242155D01*
X79171119Y-83245389D01*
X78971650Y-83248712D01*
X78791790Y-83252028D01*
X78636927Y-83255241D01*
X78512449Y-83258256D01*
X78423743Y-83260978D01*
X78409711Y-83261522D01*
X78111172Y-83273759D01*
X78097419Y-84462338D01*
X78094399Y-84715635D01*
X78091055Y-84982634D01*
X78087496Y-85255381D01*
X78083832Y-85525921D01*
X78080173Y-85786300D01*
X78076629Y-86028564D01*
X78073309Y-86244758D01*
X78070324Y-86426927D01*
X78070201Y-86434084D01*
X78056737Y-87217250D01*
X77464011Y-87217250D01*
X77465682Y-87197710D01*
X77467959Y-87136926D01*
X77470557Y-87041368D01*
X77473422Y-86914813D01*
X77476500Y-86761041D01*
X77479738Y-86583828D01*
X77483080Y-86386955D01*
X77486474Y-86174198D01*
X77489864Y-85949337D01*
X77493197Y-85716149D01*
X77496418Y-85478414D01*
X77499474Y-85239908D01*
X77502311Y-85004411D01*
X77504873Y-84775701D01*
X77507108Y-84557555D01*
X77508961Y-84353754D01*
X77510377Y-84168074D01*
X77511304Y-84004294D01*
X77511678Y-83875226D01*
X77512334Y-83263702D01*
X76924959Y-83277082D01*
X76784666Y-83280029D01*
X76609012Y-83283315D01*
X76404964Y-83286832D01*
X76179492Y-83290471D01*
X75939563Y-83294122D01*
X75692148Y-83297678D01*
X75444214Y-83301028D01*
X75202731Y-83304064D01*
X75189292Y-83304226D01*
X74041000Y-83317989D01*
X74041000Y-83015667D01*
X96069603Y-83015667D01*
X96083300Y-84375625D01*
X96086015Y-84633167D01*
X96088997Y-84894806D01*
X96092164Y-85154628D01*
X96095437Y-85406719D01*
X96098733Y-85645166D01*
X96101970Y-85864055D01*
X96105069Y-86057472D01*
X96107947Y-86219504D01*
X96110161Y-86328250D01*
X96123323Y-86920917D01*
X96411620Y-86915826D01*
X96486446Y-86914518D01*
X96598718Y-86912573D01*
X96743553Y-86910075D01*
X96916072Y-86907109D01*
X97111392Y-86903758D01*
X97324632Y-86900105D01*
X97550910Y-86896234D01*
X97785345Y-86892230D01*
X97959334Y-86889262D01*
X98215505Y-86885131D01*
X98482140Y-86881266D01*
X98752067Y-86877742D01*
X99018114Y-86874637D01*
X99273110Y-86872028D01*
X99509882Y-86869991D01*
X99721259Y-86868603D01*
X99900070Y-86867940D01*
X99955185Y-86867895D01*
X100691620Y-86868000D01*
X100677251Y-84915375D01*
X100675114Y-84631715D01*
X100672972Y-84360303D01*
X100670854Y-84104101D01*
X100668789Y-83866072D01*
X100666807Y-83649177D01*
X100664935Y-83456380D01*
X100663202Y-83290642D01*
X100661639Y-83154925D01*
X100660273Y-83052192D01*
X100659133Y-82985404D01*
X100658249Y-82957525D01*
X100658136Y-82956876D01*
X100636776Y-82956376D01*
X100575862Y-82956483D01*
X100478168Y-82957165D01*
X100346469Y-82958389D01*
X100183539Y-82960121D01*
X99992153Y-82962329D01*
X99775084Y-82964979D01*
X99535107Y-82968040D01*
X99274998Y-82971478D01*
X98997529Y-82975260D01*
X98705476Y-82979353D01*
X98433237Y-82983264D01*
X98128825Y-82987679D01*
X97835396Y-82991916D01*
X97555839Y-82995936D01*
X97293039Y-82999697D01*
X97049883Y-83003159D01*
X96829260Y-83006281D01*
X96634055Y-83009022D01*
X96467155Y-83011342D01*
X96331448Y-83013200D01*
X96229820Y-83014554D01*
X96165159Y-83015365D01*
X96141343Y-83015597D01*
X96069603Y-83015667D01*
X74041000Y-83015667D01*
X74041000Y-82955964D01*
X101250750Y-82955964D01*
X101255248Y-84504524D01*
X101256195Y-84769646D01*
X101257468Y-85032026D01*
X101259024Y-85287084D01*
X101260820Y-85530239D01*
X101262815Y-85756910D01*
X101264965Y-85962517D01*
X101267228Y-86142479D01*
X101269561Y-86292215D01*
X101271922Y-86407145D01*
X101273436Y-86460542D01*
X101287125Y-86868000D01*
X104457500Y-86868000D01*
X104457012Y-86651042D01*
X104456664Y-86600724D01*
X104455771Y-86522516D01*
X104454314Y-86415319D01*
X104452277Y-86278035D01*
X104449639Y-86109565D01*
X104446383Y-85908811D01*
X104442491Y-85674676D01*
X104437943Y-85406060D01*
X104432721Y-85101866D01*
X104426807Y-84760995D01*
X104420183Y-84382349D01*
X104412829Y-83964829D01*
X104404728Y-83507339D01*
X104395860Y-83008778D01*
X104394520Y-82933588D01*
X104389136Y-82927694D01*
X104371325Y-82922763D01*
X104338253Y-82918764D01*
X104287090Y-82915665D01*
X104215003Y-82913434D01*
X104119159Y-82912037D01*
X103996728Y-82911444D01*
X103844877Y-82911623D01*
X103660773Y-82912540D01*
X103441586Y-82914164D01*
X103184482Y-82916462D01*
X103023459Y-82918026D01*
X102779906Y-82920601D01*
X102543901Y-82923398D01*
X102319688Y-82926348D01*
X102111511Y-82929381D01*
X101923615Y-82932428D01*
X101760242Y-82935419D01*
X101625638Y-82938284D01*
X101524046Y-82940955D01*
X101459710Y-82943361D01*
X101451834Y-82943795D01*
X101250750Y-82955964D01*
X74041000Y-82955964D01*
X74041000Y-82743546D01*
X74152125Y-82732325D01*
X74186213Y-82730741D01*
X74260126Y-82728708D01*
X74371359Y-82726267D01*
X74517407Y-82723454D01*
X74695765Y-82720309D01*
X74903928Y-82716871D01*
X75139391Y-82713177D01*
X75399648Y-82709268D01*
X75682194Y-82705180D01*
X75984524Y-82700954D01*
X76304134Y-82696627D01*
X76638517Y-82692238D01*
X76985169Y-82687826D01*
X77249926Y-82684547D01*
X80236602Y-82647991D01*
X80236665Y-82641073D01*
X80856667Y-82641073D01*
X81687459Y-82627395D01*
X81898202Y-82623986D01*
X82140884Y-82620163D01*
X82405113Y-82616084D01*
X82680499Y-82611906D01*
X82956650Y-82607787D01*
X83223175Y-82603884D01*
X83469684Y-82600354D01*
X83507792Y-82599817D01*
X84497334Y-82585916D01*
X84497334Y-82576577D01*
X85090000Y-82576577D01*
X86418209Y-82563010D01*
X86659119Y-82560384D01*
X86893348Y-82557514D01*
X87116455Y-82554476D01*
X87323998Y-82551343D01*
X87511535Y-82548191D01*
X87674627Y-82545095D01*
X87808831Y-82542130D01*
X87909706Y-82539369D01*
X87972811Y-82536888D01*
X87973959Y-82536825D01*
X88201500Y-82524207D01*
X88201500Y-79121501D01*
X87413042Y-79132346D01*
X87187746Y-79135510D01*
X86935094Y-79139169D01*
X86668290Y-79143126D01*
X86400535Y-79147180D01*
X86145032Y-79151135D01*
X85914984Y-79154791D01*
X85857292Y-79155729D01*
X85090000Y-79168266D01*
X85090000Y-82576577D01*
X84497334Y-82576577D01*
X84497334Y-79158574D01*
X83984042Y-79171409D01*
X83866744Y-79174008D01*
X83712874Y-79176893D01*
X83528190Y-79179982D01*
X83318454Y-79183192D01*
X83089423Y-79186441D01*
X82846857Y-79189646D01*
X82596515Y-79192725D01*
X82344158Y-79195596D01*
X82163709Y-79197494D01*
X80856667Y-79210745D01*
X80856667Y-82641073D01*
X80236665Y-82641073D01*
X80252092Y-80946259D01*
X80254346Y-80681610D01*
X80256192Y-80429259D01*
X80257626Y-80192397D01*
X80258643Y-79974217D01*
X80259236Y-79777910D01*
X80259402Y-79606667D01*
X80259134Y-79463681D01*
X80258428Y-79352143D01*
X80257278Y-79275245D01*
X80255680Y-79236179D01*
X80254894Y-79231838D01*
X80232642Y-79230509D01*
X80171025Y-79229663D01*
X80073009Y-79229275D01*
X79941559Y-79229317D01*
X79779640Y-79229763D01*
X79590218Y-79230584D01*
X79376257Y-79231755D01*
X79140724Y-79233247D01*
X78886583Y-79235035D01*
X78616801Y-79237091D01*
X78334342Y-79239387D01*
X78042172Y-79241897D01*
X77743256Y-79244594D01*
X77440559Y-79247451D01*
X77137047Y-79250440D01*
X76835686Y-79253535D01*
X76539440Y-79256709D01*
X76251276Y-79259934D01*
X75974157Y-79263183D01*
X75711051Y-79266430D01*
X75464921Y-79269647D01*
X75238734Y-79272808D01*
X75035455Y-79275885D01*
X74858049Y-79278851D01*
X74709481Y-79281679D01*
X74649542Y-79282974D01*
X74062167Y-79296298D01*
X74062167Y-78704552D01*
X74922886Y-78690526D01*
X75140973Y-78687240D01*
X75372553Y-78684227D01*
X75608040Y-78681581D01*
X75837848Y-78679394D01*
X76052392Y-78677758D01*
X76242086Y-78676767D01*
X76372802Y-78676500D01*
X76962000Y-78676500D01*
X76962000Y-78661283D01*
X77554667Y-78661283D01*
X78787625Y-78647637D01*
X79043824Y-78644709D01*
X79312550Y-78641468D01*
X79586206Y-78638018D01*
X79857198Y-78634459D01*
X80117932Y-78630895D01*
X80360811Y-78627427D01*
X80578243Y-78624158D01*
X80762631Y-78621190D01*
X80798459Y-78620580D01*
X80985664Y-78617352D01*
X82169000Y-78617352D01*
X82587042Y-78604685D01*
X82683153Y-78602231D01*
X82816555Y-78599510D01*
X82982208Y-78596594D01*
X83175072Y-78593555D01*
X83390105Y-78590466D01*
X83622268Y-78587397D01*
X83866519Y-78584423D01*
X84117819Y-78581614D01*
X84371127Y-78579042D01*
X84396792Y-78578797D01*
X85788500Y-78565576D01*
X85788500Y-78555743D01*
X86381167Y-78555743D01*
X88540167Y-78533605D01*
X88540167Y-78845834D01*
X88794167Y-78845834D01*
X88794167Y-82534339D01*
X89476792Y-82521088D01*
X89656599Y-82517716D01*
X89869004Y-82513928D01*
X90104274Y-82509887D01*
X90352678Y-82505754D01*
X90604483Y-82501691D01*
X90849959Y-82497861D01*
X91079372Y-82494424D01*
X91085459Y-82494336D01*
X92011500Y-82480834D01*
X92011500Y-82470588D01*
X92604167Y-82470588D01*
X94122875Y-82455016D01*
X94372721Y-82452327D01*
X94610190Y-82449526D01*
X94831889Y-82446668D01*
X95034426Y-82443808D01*
X95214410Y-82441001D01*
X95368448Y-82438303D01*
X95493148Y-82435770D01*
X95585118Y-82433456D01*
X95640966Y-82431417D01*
X95657459Y-82429972D01*
X95657579Y-82428893D01*
X96266000Y-82428893D01*
X97128542Y-82415295D01*
X97362086Y-82411598D01*
X97622377Y-82407453D01*
X97897051Y-82403058D01*
X98173745Y-82398611D01*
X98440098Y-82394312D01*
X98683746Y-82390358D01*
X98811292Y-82388276D01*
X99631500Y-82374857D01*
X99631500Y-82370084D01*
X100224134Y-82370084D01*
X100419942Y-82365208D01*
X100478274Y-82364042D01*
X100574255Y-82362475D01*
X100703204Y-82360570D01*
X100860441Y-82358389D01*
X101041284Y-82355995D01*
X101241051Y-82353451D01*
X101455062Y-82350819D01*
X101678635Y-82348161D01*
X101795792Y-82346806D01*
X102975834Y-82333279D01*
X102975834Y-78994000D01*
X100224167Y-78994000D01*
X100224150Y-80682042D01*
X100224134Y-82370084D01*
X99631500Y-82370084D01*
X99631500Y-79015167D01*
X96266000Y-79015167D01*
X96266000Y-82428893D01*
X95657579Y-82428893D01*
X95659925Y-82407836D01*
X95662274Y-82346549D01*
X95664476Y-82249295D01*
X95666502Y-82119257D01*
X95668322Y-81959618D01*
X95669906Y-81773562D01*
X95671226Y-81564270D01*
X95672251Y-81334927D01*
X95672952Y-81088715D01*
X95673300Y-80828817D01*
X95673334Y-80717834D01*
X95673334Y-79015167D01*
X94427847Y-79015167D01*
X94191685Y-79015408D01*
X93960010Y-79016101D01*
X93737750Y-79017202D01*
X93529832Y-79018667D01*
X93341185Y-79020450D01*
X93176737Y-79022508D01*
X93041415Y-79024795D01*
X92940148Y-79027268D01*
X92893264Y-79029032D01*
X92604167Y-79042896D01*
X92604167Y-82470588D01*
X92011500Y-82470588D01*
X92011500Y-79036334D01*
X91609334Y-79036334D01*
X91609334Y-78450230D01*
X94318667Y-78450230D01*
X94607764Y-78436365D01*
X94677716Y-78434042D01*
X94785756Y-78431840D01*
X94927639Y-78429793D01*
X95099120Y-78427934D01*
X95295954Y-78426294D01*
X95513896Y-78424906D01*
X95748700Y-78423803D01*
X95996122Y-78423017D01*
X96251916Y-78422581D01*
X96417514Y-78422500D01*
X97938167Y-78422500D01*
X98530834Y-78422500D01*
X99575132Y-78422500D01*
X99812115Y-78422181D01*
X100061471Y-78421267D01*
X100314856Y-78419828D01*
X100563926Y-78417931D01*
X100800339Y-78415645D01*
X101015751Y-78413037D01*
X101201819Y-78410176D01*
X101289632Y-78408498D01*
X101959834Y-78394496D01*
X101959834Y-75473396D01*
X100705709Y-75487428D01*
X100461902Y-75490065D01*
X100217135Y-75492541D01*
X99977127Y-75494809D01*
X99747595Y-75496823D01*
X99534256Y-75498535D01*
X99342828Y-75499899D01*
X99179028Y-75500869D01*
X99048574Y-75501396D01*
X98991209Y-75501481D01*
X98530834Y-75501500D01*
X98530834Y-78422500D01*
X97938167Y-78422500D01*
X97938167Y-75522667D01*
X97465407Y-75522667D01*
X97357152Y-75522901D01*
X97212023Y-75523576D01*
X97035476Y-75524650D01*
X96832967Y-75526079D01*
X96609953Y-75527821D01*
X96371889Y-75529835D01*
X96124232Y-75532077D01*
X95872438Y-75534506D01*
X95655657Y-75536723D01*
X94318667Y-75550778D01*
X94318667Y-78450230D01*
X91609334Y-78450230D01*
X91609334Y-78443667D01*
X93726000Y-78443667D01*
X93726000Y-75565000D01*
X93179149Y-75565000D01*
X93045775Y-75565290D01*
X92876992Y-75566119D01*
X92679720Y-75567431D01*
X92460877Y-75569165D01*
X92227385Y-75571264D01*
X91986162Y-75573669D01*
X91744129Y-75576321D01*
X91517566Y-75579045D01*
X90402834Y-75593090D01*
X90402834Y-77194834D01*
X89810167Y-77194834D01*
X89810183Y-76395792D01*
X89810200Y-75596750D01*
X88608975Y-75609795D01*
X88367202Y-75612368D01*
X88122072Y-75614882D01*
X87879820Y-75617277D01*
X87646682Y-75619496D01*
X87428893Y-75621482D01*
X87232688Y-75623177D01*
X87064302Y-75624522D01*
X86929972Y-75625461D01*
X86894459Y-75625670D01*
X86381167Y-75628500D01*
X86381167Y-78555743D01*
X85788500Y-78555743D01*
X85788500Y-75634166D01*
X85306959Y-75642027D01*
X85196687Y-75643681D01*
X85049612Y-75645662D01*
X84871263Y-75647906D01*
X84667167Y-75650349D01*
X84442855Y-75652928D01*
X84203853Y-75655579D01*
X83955691Y-75658237D01*
X83703897Y-75660840D01*
X83497209Y-75662901D01*
X82169000Y-75675915D01*
X82169000Y-78617352D01*
X80985664Y-78617352D01*
X81576334Y-78607167D01*
X81576334Y-75670163D01*
X81317042Y-75681210D01*
X81255342Y-75683088D01*
X81155069Y-75685186D01*
X81019985Y-75687457D01*
X80853849Y-75689857D01*
X80660422Y-75692342D01*
X80443464Y-75694865D01*
X80206735Y-75697382D01*
X79953995Y-75699848D01*
X79689005Y-75702219D01*
X79415525Y-75704448D01*
X79306209Y-75705278D01*
X77554667Y-75718299D01*
X77554667Y-78661283D01*
X76962000Y-78661283D01*
X76962000Y-75727380D01*
X75512084Y-75741304D01*
X74062167Y-75755228D01*
X74061594Y-75718299D01*
X74060199Y-75628500D01*
X74058991Y-75550778D01*
X74058387Y-75511947D01*
X74058219Y-75501500D01*
X74056740Y-75410122D01*
X74055164Y-75320151D01*
X74053855Y-75252716D01*
X74053095Y-75221042D01*
X74051584Y-75173417D01*
X75057000Y-75160575D01*
X75294696Y-75157693D01*
X75548848Y-75154887D01*
X75810169Y-75152242D01*
X76069367Y-75149841D01*
X76317156Y-75147770D01*
X76544244Y-75146114D01*
X76741343Y-75144957D01*
X76797959Y-75144700D01*
X77533500Y-75141667D01*
X77533500Y-75120500D01*
X78126167Y-75120500D01*
X78618292Y-75120482D01*
X78728717Y-75120252D01*
X78876089Y-75119595D01*
X79055023Y-75118552D01*
X79260134Y-75117163D01*
X79486038Y-75115468D01*
X79727350Y-75113508D01*
X79978686Y-75111323D01*
X80234661Y-75108954D01*
X80489891Y-75106442D01*
X80491542Y-75106425D01*
X81872667Y-75092385D01*
X81872667Y-75085113D01*
X82444167Y-75085113D01*
X83793542Y-75071075D01*
X84050490Y-75068506D01*
X84311828Y-75066089D01*
X84571572Y-75063866D01*
X84823740Y-75061881D01*
X85062349Y-75060176D01*
X85281414Y-75058795D01*
X85474954Y-75057781D01*
X85636985Y-75057177D01*
X85740875Y-75057018D01*
X86338834Y-75057000D01*
X86338834Y-75040260D01*
X86931500Y-75040260D01*
X88545459Y-75027158D01*
X88814162Y-75024848D01*
X89078744Y-75022327D01*
X89334906Y-75019652D01*
X89578348Y-75016877D01*
X89804771Y-75014059D01*
X90009876Y-75011253D01*
X90189363Y-75008516D01*
X90338932Y-75005902D01*
X90454285Y-75003468D01*
X90524542Y-75001503D01*
X90697666Y-74995551D01*
X91482334Y-74995551D01*
X92958709Y-74983371D01*
X93214518Y-74981119D01*
X93465151Y-74978641D01*
X93706227Y-74975998D01*
X93933365Y-74973249D01*
X94142184Y-74970456D01*
X94328302Y-74967677D01*
X94487339Y-74964974D01*
X94614913Y-74962406D01*
X94706643Y-74960033D01*
X94736709Y-74958979D01*
X94839819Y-74954804D01*
X95631000Y-74954804D01*
X97012125Y-74942035D01*
X97268980Y-74939535D01*
X97527897Y-74936782D01*
X97783309Y-74933848D01*
X98029646Y-74930809D01*
X98261342Y-74927736D01*
X98472828Y-74924705D01*
X98658536Y-74921789D01*
X98812898Y-74919062D01*
X98927709Y-74916660D01*
X99223598Y-74909681D01*
X100033667Y-74909681D01*
X101435959Y-74898062D01*
X101685764Y-74895843D01*
X101930699Y-74893384D01*
X102166212Y-74890748D01*
X102387750Y-74887999D01*
X102590759Y-74885199D01*
X102770688Y-74882414D01*
X102922982Y-74879706D01*
X103043091Y-74877139D01*
X103126459Y-74874776D01*
X103139875Y-74874271D01*
X103441500Y-74862099D01*
X103441500Y-72213800D01*
X102663625Y-72227785D01*
X102459067Y-72231014D01*
X102222922Y-72233981D01*
X101965939Y-72236598D01*
X101698864Y-72238777D01*
X101432445Y-72240429D01*
X101177428Y-72241467D01*
X100959709Y-72241802D01*
X100033667Y-72241834D01*
X100033667Y-74909681D01*
X99223598Y-74909681D01*
X99462167Y-74904054D01*
X99462167Y-72263000D01*
X98566062Y-72263000D01*
X98342273Y-72263349D01*
X98086785Y-72264345D01*
X97810223Y-72265909D01*
X97523215Y-72267964D01*
X97236387Y-72270432D01*
X96960368Y-72273235D01*
X96705783Y-72276295D01*
X96650478Y-72277039D01*
X95631000Y-72291078D01*
X95631000Y-74954804D01*
X94839819Y-74954804D01*
X95038334Y-74946766D01*
X95038334Y-72289240D01*
X93371459Y-72298015D01*
X93106640Y-72299544D01*
X92851989Y-72301277D01*
X92610988Y-72303175D01*
X92387122Y-72305197D01*
X92183873Y-72307304D01*
X92004725Y-72309456D01*
X91853161Y-72311615D01*
X91732665Y-72313741D01*
X91646719Y-72315793D01*
X91598807Y-72317734D01*
X91593459Y-72318168D01*
X91482334Y-72329546D01*
X91482334Y-74995551D01*
X90697666Y-74995551D01*
X90889667Y-74988950D01*
X90889667Y-72326500D01*
X90374577Y-72326500D01*
X90262673Y-72326715D01*
X90113642Y-72327333D01*
X89932688Y-72328318D01*
X89725016Y-72329634D01*
X89495830Y-72331243D01*
X89250334Y-72333108D01*
X88993731Y-72335192D01*
X88731227Y-72337458D01*
X88468025Y-72339870D01*
X88395494Y-72340561D01*
X86931500Y-72354621D01*
X86931500Y-75040260D01*
X86338834Y-75040260D01*
X86338842Y-73707625D01*
X86338851Y-72358250D01*
X85433967Y-72363178D01*
X85210730Y-72364583D01*
X84955565Y-72366512D01*
X84678874Y-72368866D01*
X84391057Y-72371547D01*
X84102518Y-72374458D01*
X83823655Y-72377500D01*
X83564872Y-72380574D01*
X83486625Y-72381566D01*
X82444167Y-72395026D01*
X82444167Y-75085113D01*
X81872667Y-75085113D01*
X81872667Y-72383122D01*
X81043700Y-72397144D01*
X80839471Y-72400180D01*
X80602591Y-72402989D01*
X80342742Y-72405500D01*
X80069609Y-72407640D01*
X79792873Y-72409337D01*
X79522216Y-72410518D01*
X79267321Y-72411111D01*
X79170450Y-72411167D01*
X78126167Y-72411167D01*
X78126167Y-75120500D01*
X77533500Y-75120500D01*
X77533500Y-72425466D01*
X75744917Y-72440234D01*
X73956334Y-72455001D01*
X73956334Y-71866051D01*
X76200000Y-71850250D01*
X78443667Y-71834449D01*
X78443667Y-71818500D01*
X79036334Y-71818500D01*
X79793042Y-71818485D01*
X79943762Y-71818281D01*
X80131155Y-71817696D01*
X80349561Y-71816764D01*
X80593323Y-71815520D01*
X80856782Y-71813996D01*
X81134278Y-71812226D01*
X81420153Y-71810244D01*
X81708749Y-71808084D01*
X81994406Y-71805780D01*
X82153125Y-71804420D01*
X83756500Y-71790370D01*
X83756500Y-71776167D01*
X84349167Y-71776167D01*
X85234677Y-71776167D01*
X85425915Y-71775914D01*
X85651959Y-71775187D01*
X85905283Y-71774033D01*
X86178361Y-71772500D01*
X86463669Y-71770636D01*
X86753682Y-71768487D01*
X87040874Y-71766103D01*
X87317721Y-71763530D01*
X87457177Y-71762111D01*
X88794167Y-71748055D01*
X88794167Y-71747260D01*
X89386834Y-71747260D01*
X90323459Y-71740404D01*
X90540449Y-71738722D01*
X90790558Y-71736623D01*
X91064575Y-71734193D01*
X91353288Y-71731519D01*
X91647485Y-71728688D01*
X91937956Y-71725787D01*
X92215489Y-71722902D01*
X92429542Y-71720580D01*
X93023379Y-71713995D01*
X94170500Y-71713995D01*
X95466959Y-71702275D01*
X95741105Y-71699739D01*
X96037306Y-71696894D01*
X96346647Y-71693833D01*
X96660213Y-71690648D01*
X96969091Y-71687430D01*
X97264366Y-71684272D01*
X97537123Y-71681265D01*
X97778450Y-71678502D01*
X97827042Y-71677929D01*
X98583212Y-71668952D01*
X99483334Y-71668952D01*
X101234875Y-71658407D01*
X101510034Y-71656622D01*
X101777722Y-71654638D01*
X102034234Y-71652497D01*
X102275863Y-71650240D01*
X102498906Y-71647911D01*
X102699656Y-71645550D01*
X102874409Y-71643200D01*
X103019458Y-71640904D01*
X103131099Y-71638702D01*
X103205627Y-71636638D01*
X103224542Y-71635843D01*
X103462667Y-71623824D01*
X103462667Y-67832337D01*
X102483709Y-67846230D01*
X102237385Y-67849720D01*
X101960343Y-67853634D01*
X101664195Y-67857808D01*
X101360550Y-67862081D01*
X101061020Y-67866287D01*
X100777216Y-67870265D01*
X100520750Y-67873850D01*
X100494042Y-67874222D01*
X99483334Y-67888321D01*
X99483334Y-71668952D01*
X98583212Y-71668952D01*
X98890667Y-71665302D01*
X98890667Y-67902667D01*
X98599625Y-67903124D01*
X98535475Y-67903525D01*
X98432543Y-67904560D01*
X98294374Y-67906180D01*
X98124515Y-67908336D01*
X97926510Y-67910977D01*
X97703905Y-67914056D01*
X97460246Y-67917524D01*
X97199079Y-67921331D01*
X96923949Y-67925428D01*
X96638402Y-67929766D01*
X96345983Y-67934296D01*
X96340084Y-67934388D01*
X96052755Y-67938874D01*
X95775895Y-67943173D01*
X95512645Y-67947239D01*
X95266146Y-67951024D01*
X95039541Y-67954481D01*
X94835970Y-67957562D01*
X94658575Y-67960219D01*
X94510497Y-67962406D01*
X94394877Y-67964074D01*
X94314857Y-67965176D01*
X94273578Y-67965665D01*
X94271042Y-67965682D01*
X94170500Y-67966167D01*
X94170500Y-71713995D01*
X93023379Y-71713995D01*
X93599000Y-71707612D01*
X93599000Y-67971119D01*
X93191542Y-67979644D01*
X93075558Y-67981913D01*
X92927132Y-67984566D01*
X92750572Y-67987541D01*
X92550186Y-67990779D01*
X92330280Y-67994219D01*
X92095162Y-67997799D01*
X91849140Y-68001459D01*
X91596521Y-68005140D01*
X91341611Y-68008779D01*
X91088720Y-68012316D01*
X90842153Y-68015691D01*
X90606220Y-68018843D01*
X90385225Y-68021712D01*
X90183479Y-68024236D01*
X90005287Y-68026355D01*
X89854957Y-68028009D01*
X89736796Y-68029136D01*
X89655113Y-68029676D01*
X89635542Y-68029716D01*
X89386834Y-68029667D01*
X89386834Y-71747260D01*
X88794167Y-71747260D01*
X88794167Y-68050834D01*
X88545459Y-68050455D01*
X88450430Y-68050657D01*
X88321226Y-68051460D01*
X88161758Y-68052808D01*
X87975939Y-68054646D01*
X87767682Y-68056918D01*
X87540899Y-68059570D01*
X87299505Y-68062545D01*
X87047410Y-68065789D01*
X86788528Y-68069246D01*
X86526773Y-68072860D01*
X86266055Y-68076577D01*
X86010289Y-68080340D01*
X85763387Y-68084095D01*
X85529262Y-68087786D01*
X85311826Y-68091357D01*
X85114993Y-68094754D01*
X84942675Y-68097921D01*
X84798785Y-68100802D01*
X84687235Y-68103342D01*
X84611939Y-68105486D01*
X84587292Y-68106482D01*
X84349167Y-68118510D01*
X84349167Y-71776167D01*
X83756500Y-71776167D01*
X83756500Y-68114334D01*
X83687709Y-68114790D01*
X83656888Y-68115183D01*
X83586816Y-68116193D01*
X83480569Y-68117775D01*
X83341223Y-68119880D01*
X83171854Y-68122462D01*
X82975540Y-68125474D01*
X82755356Y-68128867D01*
X82514379Y-68132596D01*
X82255685Y-68136612D01*
X81982350Y-68140869D01*
X81697452Y-68145319D01*
X81650417Y-68146055D01*
X81357013Y-68150597D01*
X81069782Y-68154948D01*
X80792342Y-68159058D01*
X80528306Y-68162878D01*
X80281291Y-68166359D01*
X80054913Y-68169451D01*
X79852786Y-68172104D01*
X79678526Y-68174270D01*
X79535749Y-68175899D01*
X79428070Y-68176941D01*
X79359125Y-68177348D01*
X79036334Y-68177834D01*
X79036334Y-71818500D01*
X78443667Y-71818500D01*
X78443667Y-68199000D01*
X78131459Y-68198951D01*
X78057765Y-68199264D01*
X77946002Y-68200181D01*
X77800425Y-68201644D01*
X77625293Y-68203594D01*
X77424864Y-68205973D01*
X77203395Y-68208723D01*
X76965144Y-68211786D01*
X76714369Y-68215104D01*
X76455326Y-68218617D01*
X76192275Y-68222268D01*
X75929472Y-68226000D01*
X75671175Y-68229752D01*
X75421642Y-68233468D01*
X75185131Y-68237089D01*
X74965899Y-68240557D01*
X74768204Y-68243813D01*
X74596303Y-68246800D01*
X74490792Y-68248752D01*
X74062167Y-68256957D01*
X74062167Y-67669834D01*
X74194459Y-67669377D01*
X74234715Y-67668982D01*
X74314092Y-67667964D01*
X74429383Y-67666372D01*
X74577382Y-67664252D01*
X74754880Y-67661654D01*
X74958672Y-67658623D01*
X75185549Y-67655209D01*
X75432306Y-67651458D01*
X75695735Y-67647419D01*
X75972629Y-67643140D01*
X76259781Y-67638667D01*
X76295250Y-67638112D01*
X76587477Y-67633581D01*
X76872695Y-67629240D01*
X77147382Y-67625138D01*
X77408016Y-67621325D01*
X77651074Y-67617849D01*
X77873034Y-67614759D01*
X78070372Y-67612105D01*
X78239568Y-67609935D01*
X78377097Y-67608298D01*
X78479438Y-67607244D01*
X78543068Y-67606821D01*
X78544209Y-67606819D01*
X78824667Y-67606334D01*
X78824667Y-64636625D01*
X79408306Y-64636625D01*
X79408346Y-64795523D01*
X79408664Y-64980453D01*
X79409256Y-65188157D01*
X79410118Y-65415374D01*
X79411246Y-65658843D01*
X79412637Y-65915306D01*
X79412903Y-65960625D01*
X79422553Y-67585167D01*
X79615735Y-67585790D01*
X79648584Y-67585531D01*
X79722508Y-67584688D01*
X79836253Y-67583279D01*
X79988564Y-67581321D01*
X80178187Y-67578832D01*
X80403868Y-67575828D01*
X80664353Y-67572328D01*
X80958388Y-67568349D01*
X81284718Y-67563907D01*
X81642089Y-67559021D01*
X82029247Y-67553707D01*
X82444937Y-67547984D01*
X82887906Y-67541867D01*
X83356899Y-67535376D01*
X83850662Y-67528526D01*
X84367941Y-67521336D01*
X84907481Y-67513823D01*
X85468029Y-67506004D01*
X86048330Y-67497897D01*
X86647130Y-67489518D01*
X87263174Y-67480885D01*
X87895209Y-67472017D01*
X88541980Y-67462929D01*
X89202233Y-67453639D01*
X89874714Y-67444165D01*
X90558168Y-67434524D01*
X91111917Y-67426704D01*
X91804369Y-67416905D01*
X92487298Y-67407211D01*
X93159430Y-67397642D01*
X93819492Y-67388217D01*
X94466212Y-67378953D01*
X95098315Y-67369871D01*
X95714529Y-67360988D01*
X96313580Y-67352325D01*
X96894195Y-67343899D01*
X97455101Y-67335729D01*
X97995024Y-67327834D01*
X98512692Y-67320234D01*
X99006830Y-67312947D01*
X99476166Y-67305992D01*
X99919427Y-67299387D01*
X100335339Y-67293152D01*
X100722630Y-67287306D01*
X101080024Y-67281867D01*
X101406251Y-67276854D01*
X101700036Y-67272286D01*
X101960105Y-67268182D01*
X102185187Y-67264560D01*
X102374007Y-67261440D01*
X102525292Y-67258841D01*
X102637770Y-67256781D01*
X102710166Y-67255280D01*
X102737709Y-67254519D01*
X103060500Y-67242043D01*
X103060500Y-63881000D01*
X102991709Y-63882071D01*
X102867134Y-63884079D01*
X102705496Y-63886797D01*
X102508256Y-63890200D01*
X102276874Y-63894258D01*
X102012810Y-63898946D01*
X101717525Y-63904234D01*
X101392479Y-63910095D01*
X101039132Y-63916503D01*
X100658944Y-63923429D01*
X100253376Y-63930846D01*
X99823889Y-63938727D01*
X99371942Y-63947043D01*
X98898996Y-63955768D01*
X98406511Y-63964873D01*
X97895948Y-63974332D01*
X97368767Y-63984117D01*
X96826429Y-63994200D01*
X96270392Y-64004553D01*
X95702119Y-64015150D01*
X95123070Y-64025962D01*
X94534704Y-64036963D01*
X93938481Y-64048124D01*
X93335864Y-64059418D01*
X92728311Y-64070818D01*
X92117283Y-64082296D01*
X91504240Y-64093824D01*
X90890643Y-64105376D01*
X90277952Y-64116922D01*
X89667628Y-64128437D01*
X89061130Y-64139892D01*
X88459920Y-64151260D01*
X87865457Y-64162513D01*
X87279201Y-64173624D01*
X86702614Y-64184566D01*
X86137155Y-64195310D01*
X85584285Y-64205829D01*
X85045465Y-64216096D01*
X84522153Y-64226083D01*
X84015812Y-64235763D01*
X83527900Y-64245108D01*
X83059879Y-64254091D01*
X82613209Y-64262684D01*
X82189351Y-64270859D01*
X81789763Y-64278589D01*
X81415908Y-64285847D01*
X81069245Y-64292604D01*
X80751234Y-64298835D01*
X80463336Y-64304510D01*
X80207012Y-64309602D01*
X79983721Y-64314084D01*
X79794924Y-64317929D01*
X79642081Y-64321108D01*
X79526653Y-64323595D01*
X79450100Y-64325361D01*
X79413882Y-64326380D01*
X79410998Y-64326560D01*
X79409889Y-64348727D01*
X79409073Y-64409967D01*
X79408547Y-64507020D01*
X79408306Y-64636625D01*
X78824667Y-64636625D01*
X78824667Y-64322073D01*
X78321959Y-64335392D01*
X78219625Y-64337920D01*
X78083314Y-64341002D01*
X77916923Y-64344568D01*
X77724354Y-64348545D01*
X77509505Y-64352862D01*
X77276278Y-64357449D01*
X77028570Y-64362233D01*
X76770283Y-64367144D01*
X76505316Y-64372111D01*
X76237569Y-64377060D01*
X75970942Y-64381923D01*
X75709333Y-64386626D01*
X75456645Y-64391100D01*
X75216775Y-64395271D01*
X74993624Y-64399070D01*
X74791091Y-64402425D01*
X74613077Y-64405264D01*
X74463482Y-64407517D01*
X74346204Y-64409111D01*
X74265144Y-64409976D01*
X74236792Y-64410115D01*
X74062167Y-64410167D01*
X74062167Y-63841713D01*
X74173292Y-63830464D01*
X74219545Y-63827604D01*
X74302645Y-63824380D01*
X74417112Y-63820930D01*
X74557463Y-63817391D01*
X74718216Y-63813902D01*
X74893888Y-63810599D01*
X75078998Y-63807621D01*
X75088750Y-63807478D01*
X75165102Y-63806286D01*
X75281333Y-63804359D01*
X75436143Y-63801721D01*
X75628232Y-63798396D01*
X75856301Y-63794407D01*
X76119051Y-63789778D01*
X76415183Y-63784533D01*
X76743396Y-63778696D01*
X77102392Y-63772290D01*
X77490871Y-63765339D01*
X77907533Y-63757867D01*
X78351080Y-63749897D01*
X78820212Y-63741454D01*
X79313629Y-63732560D01*
X79830033Y-63723241D01*
X80368122Y-63713519D01*
X80926599Y-63703418D01*
X81504164Y-63692962D01*
X82099518Y-63682175D01*
X82711360Y-63671080D01*
X83338391Y-63659701D01*
X83979313Y-63648062D01*
X84632826Y-63636187D01*
X85297630Y-63624099D01*
X85972425Y-63611823D01*
X86655914Y-63599381D01*
X87346795Y-63586797D01*
X88043770Y-63574096D01*
X88745539Y-63561301D01*
X89450803Y-63548436D01*
X90158263Y-63535524D01*
X90866618Y-63522590D01*
X91574570Y-63509656D01*
X92280819Y-63496747D01*
X92984066Y-63483887D01*
X93683011Y-63471099D01*
X94376355Y-63458406D01*
X95062799Y-63445833D01*
X95741043Y-63433404D01*
X96409787Y-63421142D01*
X97067733Y-63409071D01*
X97713580Y-63397214D01*
X98346030Y-63385595D01*
X98963783Y-63374239D01*
X99565540Y-63363168D01*
X100150001Y-63352407D01*
X100715866Y-63341979D01*
X101261837Y-63331908D01*
X101786614Y-63322218D01*
X102288897Y-63312932D01*
X102767388Y-63304075D01*
X103220786Y-63295669D01*
X103647793Y-63287739D01*
X104047108Y-63280308D01*
X104417433Y-63273401D01*
X104757468Y-63267040D01*
X105065914Y-63261250D01*
X105341471Y-63256055D01*
X105582839Y-63251477D01*
X105788720Y-63247542D01*
X105957814Y-63244271D01*
X106088822Y-63241690D01*
X106180444Y-63239822D01*
X106231380Y-63238691D01*
X106237856Y-63238519D01*
X106589462Y-63228305D01*
X106600741Y-63517611D01*
X106604522Y-63623263D01*
X106607073Y-63712399D01*
X106608217Y-63777182D01*
X106607778Y-63809772D01*
X106607332Y-63812081D01*
X106585931Y-63813301D01*
X106525721Y-63815100D01*
X106430219Y-63817410D01*
X106302946Y-63820160D01*
X106147419Y-63823280D01*
X105967158Y-63826702D01*
X105765680Y-63830354D01*
X105546506Y-63834167D01*
X105313153Y-63838072D01*
X105217864Y-63839624D01*
X104976988Y-63843658D01*
X104746680Y-63847786D01*
X104530750Y-63851924D01*
X104333014Y-63855985D01*
X104157282Y-63859883D01*
X104007369Y-63863533D01*
X103887087Y-63866849D01*
X103800249Y-63869745D01*
X103750667Y-63872135D01*
X103743125Y-63872799D01*
X103653167Y-63883594D01*
X103653167Y-67251880D01*
X104177042Y-67238720D01*
X104312761Y-67235576D01*
X104483164Y-67232053D01*
X104680603Y-67228286D01*
X104897431Y-67224410D01*
X105126001Y-67220560D01*
X105358666Y-67216869D01*
X105587778Y-67213474D01*
X105690459Y-67212041D01*
X106680000Y-67198522D01*
X106680000Y-67484626D01*
X106679721Y-67599531D01*
X106678144Y-67679053D01*
X106674164Y-67730141D01*
X106666671Y-67759745D01*
X106654559Y-67774813D01*
X106636721Y-67782296D01*
X106632375Y-67783492D01*
X106597317Y-67787377D01*
X106527114Y-67790815D01*
X106428956Y-67793610D01*
X106310030Y-67795569D01*
X106177526Y-67796499D01*
X106149008Y-67796544D01*
X106024027Y-67797002D01*
X105865042Y-67798172D01*
X105680372Y-67799961D01*
X105478341Y-67802275D01*
X105267269Y-67805018D01*
X105055476Y-67808098D01*
X104884300Y-67810856D01*
X104055334Y-67824878D01*
X104055334Y-71634912D01*
X106658834Y-71607962D01*
X106658834Y-72199500D01*
X106143714Y-72199500D01*
X105995362Y-72199918D01*
X105814272Y-72201102D01*
X105610034Y-72202950D01*
X105392235Y-72205360D01*
X105170463Y-72208230D01*
X104954305Y-72211456D01*
X104831381Y-72213519D01*
X104034167Y-72227538D01*
X104034167Y-74869641D01*
X105388834Y-74854270D01*
X106743500Y-74838899D01*
X106743500Y-75412537D01*
X106600625Y-75424743D01*
X106558701Y-75426677D01*
X106477690Y-75428814D01*
X106360836Y-75431112D01*
X106211385Y-75433533D01*
X106032581Y-75436035D01*
X105827670Y-75438579D01*
X105599897Y-75441125D01*
X105352507Y-75443632D01*
X105088745Y-75446060D01*
X104811856Y-75448370D01*
X104525086Y-75450521D01*
X104505125Y-75450661D01*
X102552500Y-75464373D01*
X102552500Y-78401334D01*
X106764667Y-78401334D01*
X106764667Y-78966224D01*
X106443801Y-78980112D01*
X106363354Y-78982653D01*
X106245516Y-78985043D01*
X106095231Y-78987241D01*
X105917442Y-78989204D01*
X105717092Y-78990888D01*
X105499124Y-78992252D01*
X105268481Y-78993252D01*
X105030106Y-78993846D01*
X104835135Y-78994000D01*
X103547334Y-78994000D01*
X103547334Y-82321743D01*
X104960209Y-82303580D01*
X105208802Y-82300431D01*
X105450886Y-82297456D01*
X105682151Y-82294701D01*
X105898286Y-82292213D01*
X106094980Y-82290041D01*
X106267922Y-82288230D01*
X106412802Y-82286829D01*
X106525308Y-82285884D01*
X106601131Y-82285444D01*
X106616500Y-82285417D01*
X106859917Y-82285417D01*
X106865784Y-82573038D01*
X106871650Y-82860659D01*
X106264382Y-82874663D01*
X106086231Y-82878478D01*
X105902160Y-82881897D01*
X105722154Y-82884772D01*
X105556202Y-82886955D01*
X105414289Y-82888298D01*
X105321890Y-82888667D01*
X104986667Y-82888667D01*
X104987155Y-83052709D01*
X104987604Y-83099280D01*
X104988758Y-83184644D01*
X104990559Y-83305263D01*
X104992948Y-83457604D01*
X104995869Y-83638130D01*
X104999261Y-83843307D01*
X105003069Y-84069600D01*
X105007232Y-84313473D01*
X105011694Y-84571391D01*
X105016395Y-84839820D01*
X105018385Y-84952417D01*
X105023146Y-85221963D01*
X105027694Y-85480864D01*
X105031972Y-85725772D01*
X105035922Y-85953338D01*
X105039487Y-86160214D01*
X105042610Y-86343051D01*
X105045233Y-86498501D01*
X105047299Y-86623215D01*
X105048750Y-86713845D01*
X105049530Y-86767042D01*
X105049647Y-86778042D01*
X105050167Y-86868000D01*
X106764667Y-86868000D01*
X106764667Y-87460667D01*
X105035585Y-87460667D01*
X105021787Y-87762292D01*
X105018760Y-87850459D01*
X105015959Y-87974472D01*
X105013459Y-88127847D01*
X105011333Y-88304097D01*
X105009656Y-88496737D01*
X105008503Y-88699280D01*
X105007949Y-88905240D01*
X105007911Y-88968792D01*
X105007834Y-89873667D01*
X106849334Y-89873667D01*
X106849334Y-90445167D01*
X99144667Y-90445167D01*
X99145293Y-90397542D01*
X99145821Y-90368774D01*
X99147143Y-90301256D01*
X99149186Y-90198564D01*
X99151877Y-90064270D01*
X99155146Y-89901951D01*
X99156272Y-89846213D01*
X99723158Y-89846213D01*
X99729985Y-89853992D01*
X99748145Y-89860151D01*
X99781565Y-89864876D01*
X99834176Y-89868357D01*
X99909906Y-89870781D01*
X100012683Y-89872335D01*
X100146437Y-89873209D01*
X100315095Y-89873590D01*
X100497907Y-89873667D01*
X101282500Y-89873667D01*
X101854000Y-89873667D01*
X104414360Y-89873667D01*
X104424598Y-89826042D01*
X104426633Y-89796367D01*
X104428753Y-89728401D01*
X104430904Y-89626187D01*
X104433032Y-89493767D01*
X104435081Y-89335184D01*
X104436997Y-89154480D01*
X104438725Y-88955697D01*
X104440210Y-88742879D01*
X104440913Y-88619542D01*
X104446991Y-87460667D01*
X101854000Y-87460667D01*
X101854000Y-89873667D01*
X101282500Y-89873667D01*
X101282500Y-87460667D01*
X99784599Y-87460667D01*
X99772238Y-87592959D01*
X99769499Y-87640556D01*
X99766438Y-87725719D01*
X99763158Y-87843682D01*
X99759761Y-87989680D01*
X99756350Y-88158948D01*
X99753029Y-88346719D01*
X99749899Y-88548228D01*
X99747064Y-88758710D01*
X99747018Y-88762417D01*
X99744258Y-88968976D01*
X99741279Y-89163333D01*
X99738173Y-89341246D01*
X99735031Y-89498473D01*
X99731947Y-89630769D01*
X99729011Y-89733892D01*
X99726315Y-89803598D01*
X99723952Y-89835646D01*
X99723735Y-89836625D01*
X99723158Y-89846213D01*
X99156272Y-89846213D01*
X99158920Y-89715180D01*
X99163126Y-89507532D01*
G37*
X99163126Y-89507532D02*
X99167694Y-89282582D01*
X99172550Y-89043905D01*
X99175478Y-88900199D01*
X99180362Y-88656550D01*
X99184828Y-88425586D01*
X99188821Y-88210749D01*
X99192283Y-88015480D01*
X99195160Y-87843221D01*
X99197394Y-87697412D01*
X99198930Y-87581495D01*
X99199712Y-87498911D01*
X99199682Y-87453102D01*
X99199239Y-87444684D01*
X99177114Y-87443584D01*
X99116011Y-87443286D01*
X99019280Y-87443734D01*
X98890269Y-87444868D01*
X98732324Y-87446629D01*
X98548794Y-87448960D01*
X98343028Y-87451802D01*
X98118373Y-87455096D01*
X97878176Y-87458785D01*
X97625786Y-87462808D01*
X97364552Y-87467109D01*
X97097819Y-87471628D01*
X96828938Y-87476307D01*
X96561255Y-87481087D01*
X96298119Y-87485911D01*
X96042877Y-87490719D01*
X95798878Y-87495453D01*
X95569469Y-87500056D01*
X95357998Y-87504467D01*
X95167814Y-87508629D01*
X95002264Y-87512483D01*
X94864695Y-87515971D01*
X94758457Y-87519034D01*
X94686897Y-87521615D01*
X94653363Y-87523653D01*
X94651250Y-87524114D01*
X94649711Y-87546738D01*
X94649508Y-87608986D01*
X94650577Y-87708169D01*
X94652851Y-87841601D01*
X94656264Y-88006593D01*
X94660752Y-88200460D01*
X94666249Y-88420512D01*
X94672688Y-88664064D01*
X94680004Y-88928427D01*
X94688133Y-89210915D01*
X94697007Y-89508841D01*
X94706561Y-89819516D01*
X94709911Y-89926217D01*
X94719770Y-90240361D01*
X94729153Y-90542513D01*
X94737981Y-90830001D01*
X94746178Y-91100149D01*
X94753666Y-91350285D01*
X94760366Y-91577736D01*
X94766201Y-91779828D01*
X94771093Y-91953887D01*
X94774964Y-92097240D01*
X94777737Y-92207213D01*
X94779334Y-92281133D01*
X94779678Y-92316327D01*
X94779494Y-92318996D01*
X94758127Y-92319714D01*
X94696108Y-92321006D01*
X94595115Y-92322849D01*
X94456826Y-92325216D01*
X94282918Y-92328082D01*
X94075068Y-92331422D01*
X93834955Y-92335210D01*
X93564255Y-92339421D01*
X93264646Y-92344028D01*
X92937806Y-92349008D01*
X92585413Y-92354333D01*
X92209143Y-92359979D01*
X91810675Y-92365920D01*
X91391685Y-92372131D01*
X90953852Y-92378586D01*
X90498853Y-92385260D01*
X90028366Y-92392127D01*
X89544067Y-92399162D01*
X89047635Y-92406339D01*
X88720084Y-92411056D01*
X88208257Y-92418430D01*
X87703259Y-92425735D01*
X87207018Y-92432942D01*
X86721462Y-92440022D01*
X86248519Y-92446946D01*
X85790118Y-92453685D01*
X85348188Y-92460209D01*
X84924655Y-92466491D01*
X84521449Y-92472501D01*
X84140498Y-92478210D01*
X83783731Y-92483590D01*
X83453074Y-92488611D01*
X83150458Y-92493244D01*
X82877809Y-92497461D01*
X82637057Y-92501232D01*
X82430129Y-92504529D01*
X82258954Y-92507323D01*
X82125460Y-92509584D01*
X82031576Y-92511284D01*
X82004959Y-92511813D01*
X81343500Y-92525523D01*
X81343700Y-92443137D01*
X81342952Y-92406491D01*
X81340712Y-92332078D01*
X81337104Y-92223177D01*
X81332254Y-92083071D01*
X81326287Y-91915041D01*
X81319327Y-91722369D01*
X81311500Y-91508336D01*
X81302931Y-91276225D01*
X81293744Y-91029317D01*
X81284066Y-90770893D01*
X81274021Y-90504235D01*
X81263734Y-90232624D01*
X81253329Y-89959343D01*
X81242934Y-89687673D01*
X81232671Y-89420896D01*
X81222667Y-89162293D01*
X81213046Y-88915146D01*
X81203933Y-88682736D01*
X81195454Y-88468345D01*
X81187734Y-88275255D01*
X81180897Y-88106747D01*
X81175069Y-87966103D01*
X81170375Y-87856605D01*
X81168802Y-87822223D01*
X81777369Y-87822223D01*
X81778675Y-87919108D01*
X81781264Y-88047803D01*
X81785021Y-88204810D01*
X81789831Y-88386632D01*
X81795579Y-88589772D01*
X81802151Y-88810731D01*
X81809431Y-89046012D01*
X81817305Y-89292119D01*
X81825658Y-89545553D01*
X81834375Y-89802817D01*
X81843341Y-90060414D01*
X81852442Y-90314846D01*
X81861562Y-90562615D01*
X81870587Y-90800225D01*
X81879402Y-91024178D01*
X81887892Y-91230975D01*
X81895942Y-91417121D01*
X81903438Y-91579117D01*
X81908504Y-91680317D01*
X81921600Y-91931218D01*
X82463342Y-91918204D01*
X82574177Y-91915763D01*
X82722568Y-91912841D01*
X82903742Y-91909516D01*
X83112925Y-91905866D01*
X83345344Y-91901971D01*
X83596226Y-91897909D01*
X83860797Y-91893759D01*
X84134283Y-91889600D01*
X84411912Y-91885510D01*
X84656084Y-91882028D01*
X84916364Y-91878339D01*
X85164074Y-91874754D01*
X85395999Y-91871325D01*
X85608927Y-91868102D01*
X85799644Y-91865136D01*
X85964936Y-91862480D01*
X86101590Y-91860182D01*
X86206393Y-91858295D01*
X86276131Y-91856869D01*
X86307591Y-91855956D01*
X86309104Y-91855808D01*
X86298973Y-91837476D01*
X86268930Y-91784831D01*
X86220306Y-91700176D01*
X86154433Y-91585815D01*
X86072642Y-91444053D01*
X85976265Y-91277192D01*
X85866632Y-91087537D01*
X85745076Y-90877392D01*
X85612928Y-90649060D01*
X85471519Y-90404846D01*
X85322181Y-90147052D01*
X85166245Y-89877984D01*
X85104845Y-89772067D01*
X83898565Y-87691385D01*
X82848574Y-87705651D01*
X82641448Y-87708812D01*
X82447102Y-87712447D01*
X82269658Y-87716433D01*
X82113241Y-87720644D01*
X81981973Y-87724956D01*
X81879979Y-87729246D01*
X81811382Y-87733389D01*
X81780306Y-87737260D01*
X81779064Y-87737871D01*
X81777460Y-87760644D01*
X81777369Y-87822223D01*
X81168802Y-87822223D01*
X81166940Y-87781534D01*
X81164888Y-87744172D01*
X81164483Y-87740520D01*
X81143053Y-87740196D01*
X81081602Y-87740561D01*
X80982435Y-87741580D01*
X80847857Y-87743220D01*
X80680172Y-87745446D01*
X80481688Y-87748225D01*
X80254709Y-87751521D01*
X80001540Y-87755302D01*
X79724487Y-87759533D01*
X79425855Y-87764179D01*
X79107950Y-87769207D01*
X78773077Y-87774582D01*
X78423541Y-87780271D01*
X78061648Y-87786239D01*
X77947017Y-87788145D01*
X77576820Y-87794286D01*
X77215238Y-87800227D01*
X76864828Y-87805929D01*
X76528148Y-87811354D01*
X76207754Y-87816462D01*
X75906204Y-87821213D01*
X75626055Y-87825568D01*
X75369865Y-87829487D01*
X75140190Y-87832932D01*
X74939588Y-87835862D01*
X74770617Y-87838239D01*
X74635832Y-87840023D01*
X74537793Y-87841175D01*
X74479055Y-87841655D01*
X74472761Y-87841667D01*
X74210334Y-87841667D01*
X74210334Y-87683138D01*
X84586423Y-87683138D01*
X84595989Y-87701742D01*
X84625446Y-87754670D01*
X84673470Y-87839613D01*
X84738735Y-87954260D01*
X84819917Y-88096305D01*
X84915689Y-88263436D01*
X85024727Y-88453345D01*
X85145707Y-88663722D01*
X85277302Y-88892260D01*
X85418187Y-89136647D01*
X85567039Y-89394576D01*
X85722531Y-89663737D01*
X85782339Y-89767196D01*
X86984417Y-91846210D01*
X88095667Y-91831768D01*
X88308237Y-91828942D01*
X88507600Y-91826170D01*
X88689830Y-91823515D01*
X88850999Y-91821040D01*
X88987180Y-91818807D01*
X89094447Y-91816881D01*
X89168871Y-91815323D01*
X89206527Y-91814197D01*
X89210431Y-91813871D01*
X89221602Y-91794019D01*
X89228023Y-91782055D01*
X89898361Y-91782055D01*
X89904486Y-91786450D01*
X89927863Y-91790120D01*
X89970336Y-91793057D01*
X90033747Y-91795253D01*
X90119938Y-91796699D01*
X90230754Y-91797389D01*
X90368036Y-91797313D01*
X90533628Y-91796464D01*
X90729372Y-91794833D01*
X90957111Y-91792414D01*
X91218689Y-91789197D01*
X91515947Y-91785175D01*
X91850730Y-91780339D01*
X92224879Y-91774682D01*
X92471274Y-91770855D01*
X92733995Y-91766564D01*
X92984439Y-91762131D01*
X93219385Y-91757634D01*
X93435612Y-91753150D01*
X93629901Y-91748757D01*
X93799032Y-91744532D01*
X93939784Y-91740554D01*
X94048937Y-91736900D01*
X94123270Y-91733648D01*
X94159564Y-91730875D01*
X94162650Y-91730073D01*
X94163796Y-91707663D01*
X94163629Y-91646430D01*
X94162255Y-91549861D01*
X94159776Y-91421443D01*
X94156296Y-91264662D01*
X94151920Y-91083006D01*
X94146751Y-90879961D01*
X94140894Y-90659014D01*
X94134451Y-90423652D01*
X94127526Y-90177361D01*
X94120224Y-89923629D01*
X94112649Y-89665942D01*
X94104904Y-89407787D01*
X94097092Y-89152651D01*
X94089319Y-88904020D01*
X94081688Y-88665382D01*
X94074301Y-88440223D01*
X94067265Y-88232030D01*
X94060681Y-88044290D01*
X94054655Y-87880489D01*
X94049290Y-87744115D01*
X94044689Y-87638654D01*
X94040957Y-87567594D01*
X94038198Y-87534420D01*
X94037641Y-87532419D01*
X94015348Y-87530933D01*
X93954996Y-87530140D01*
X93860853Y-87530017D01*
X93737190Y-87530539D01*
X93588273Y-87531681D01*
X93418372Y-87533418D01*
X93231755Y-87535726D01*
X93073597Y-87537963D01*
X92118254Y-87552209D01*
X91011836Y-89658243D01*
X90865835Y-89936188D01*
X90725346Y-90203715D01*
X90591623Y-90458431D01*
X90465920Y-90697943D01*
X90349493Y-90919858D01*
X90243595Y-91121784D01*
X90149481Y-91301327D01*
X90068405Y-91456096D01*
X90001622Y-91583697D01*
X89950386Y-91681738D01*
X89915951Y-91747827D01*
X89899573Y-91779569D01*
X89898361Y-91782055D01*
X89228023Y-91782055D01*
X89250781Y-91739654D01*
X89296459Y-91653659D01*
X89357129Y-91538914D01*
X89431280Y-91398300D01*
X89517406Y-91234699D01*
X89613997Y-91050990D01*
X89719545Y-90850056D01*
X89832541Y-90634777D01*
X89951478Y-90408035D01*
X90074846Y-90172710D01*
X90201138Y-89931683D01*
X90328844Y-89687835D01*
X90456456Y-89444048D01*
X90582466Y-89203203D01*
X90705365Y-88968180D01*
X90823645Y-88741861D01*
X90935797Y-88527126D01*
X91040313Y-88326857D01*
X91135684Y-88143934D01*
X91220402Y-87981239D01*
X91292959Y-87841653D01*
X91351846Y-87728057D01*
X91395554Y-87643331D01*
X91422575Y-87590357D01*
X91431409Y-87572020D01*
X91410020Y-87571699D01*
X91349025Y-87572066D01*
X91251148Y-87573075D01*
X91119109Y-87574684D01*
X90955631Y-87576847D01*
X90763434Y-87579521D01*
X90545242Y-87582662D01*
X90303776Y-87586224D01*
X90041758Y-87590165D01*
X89761909Y-87594439D01*
X89466953Y-87599003D01*
X89159609Y-87603813D01*
X88842601Y-87608824D01*
X88518650Y-87613992D01*
X88190478Y-87619272D01*
X87860807Y-87624622D01*
X87532358Y-87629996D01*
X87207854Y-87635351D01*
X86890017Y-87640641D01*
X86581568Y-87645824D01*
X86285229Y-87650854D01*
X86003722Y-87655688D01*
X85739769Y-87660282D01*
X85496091Y-87664590D01*
X85275411Y-87668570D01*
X85080451Y-87672177D01*
X84913932Y-87675366D01*
X84778576Y-87678094D01*
X84677105Y-87680316D01*
X84612241Y-87681988D01*
X84586706Y-87683066D01*
X84586423Y-87683138D01*
X74210334Y-87683138D01*
X74210334Y-87293252D01*
X74279125Y-87283090D01*
X74311164Y-87281133D01*
X74382027Y-87278693D01*
X74488210Y-87275840D01*
X74626207Y-87272644D01*
X74792514Y-87269177D01*
X74983625Y-87265508D01*
X75196035Y-87261707D01*
X75426239Y-87257845D01*
X75670733Y-87253992D01*
X75901718Y-87250566D01*
X76154245Y-87246824D01*
X76394250Y-87243057D01*
X76618401Y-87239330D01*
X76823368Y-87235710D01*
X77005821Y-87232261D01*
X77162429Y-87229049D01*
X77289860Y-87226139D01*
X77384786Y-87223596D01*
X77443875Y-87221485D01*
X77463781Y-87219941D01*
X77464011Y-87217250D01*
X78056737Y-87217250D01*
X78414244Y-87211585D01*
X78506554Y-87210100D01*
X78635492Y-87207992D01*
X78795360Y-87205356D01*
X78980458Y-87202287D01*
X79185088Y-87198879D01*
X79403550Y-87195228D01*
X79630146Y-87191428D01*
X79859177Y-87187573D01*
X79900656Y-87186874D01*
X80115311Y-87183023D01*
X80317077Y-87178959D01*
X80502018Y-87174793D01*
X80666195Y-87170634D01*
X80805668Y-87166592D01*
X80916499Y-87162777D01*
X80994750Y-87159299D01*
X81036482Y-87156268D01*
X81042373Y-87155016D01*
X81043799Y-87132562D01*
X81044311Y-87071467D01*
X81043978Y-86975412D01*
X81042872Y-86848077D01*
X81041062Y-86693145D01*
X81038619Y-86514295D01*
X81035614Y-86315209D01*
X81032116Y-86099568D01*
X81028196Y-85871052D01*
X81023924Y-85633343D01*
X81019372Y-85390121D01*
X81014608Y-85145067D01*
X81009704Y-84901863D01*
X81004729Y-84664188D01*
X80999754Y-84435725D01*
X80994850Y-84220154D01*
X80990087Y-84021156D01*
X80985535Y-83842412D01*
X80981265Y-83687602D01*
X80977346Y-83560408D01*
X80973849Y-83464511D01*
X80970846Y-83403592D01*
X80970604Y-83399981D01*
X80959335Y-83237289D01*
X81560732Y-83237289D01*
X81561435Y-83297641D01*
X81563021Y-83394136D01*
X81565426Y-83523684D01*
X81568587Y-83683194D01*
X81572440Y-83869577D01*
X81576922Y-84079744D01*
X81581970Y-84310605D01*
X81587519Y-84559070D01*
X81593507Y-84822050D01*
X81597773Y-85006580D01*
X81604151Y-85282824D01*
X81610235Y-85550399D01*
X81615952Y-85805784D01*
X81621228Y-86045455D01*
X81625986Y-86265892D01*
X81630154Y-86463572D01*
X81633655Y-86634973D01*
X81636415Y-86776573D01*
X81638360Y-86884851D01*
X81639415Y-86956284D01*
X81639589Y-86978735D01*
X81639834Y-87163553D01*
X82131959Y-87151977D01*
X82193220Y-87150691D01*
X82295015Y-87148752D01*
X82435552Y-87146191D01*
X82613037Y-87143038D01*
X82825676Y-87139323D01*
X83071676Y-87135076D01*
X83349245Y-87130327D01*
X83656588Y-87125105D01*
X83991912Y-87119442D01*
X84353424Y-87113367D01*
X84739331Y-87106911D01*
X85147839Y-87100102D01*
X85577155Y-87092972D01*
X86025486Y-87085551D01*
X86491038Y-87077868D01*
X86972018Y-87069953D01*
X87466633Y-87061837D01*
X87973089Y-87053550D01*
X88489593Y-87045122D01*
X89014352Y-87036582D01*
X89067807Y-87035714D01*
X89587361Y-87027246D01*
X90095935Y-87018904D01*
X90591902Y-87010716D01*
X91073636Y-87002712D01*
X91539509Y-86994919D01*
X91987896Y-86987366D01*
X92417168Y-86980082D01*
X92825701Y-86973095D01*
X93211866Y-86966433D01*
X93574038Y-86960126D01*
X93910589Y-86954201D01*
X94219893Y-86948687D01*
X94500324Y-86943613D01*
X94750254Y-86939008D01*
X94968057Y-86934898D01*
X95152106Y-86931315D01*
X95300774Y-86928285D01*
X95412436Y-86925837D01*
X95485463Y-86924000D01*
X95518230Y-86922802D01*
X95519964Y-86922592D01*
X95520664Y-86901071D01*
X95520838Y-86840865D01*
X95520529Y-86745582D01*
X95519777Y-86618829D01*
X95518623Y-86464214D01*
X95517109Y-86285343D01*
X95515275Y-86085825D01*
X95513163Y-85869266D01*
X95510813Y-85639275D01*
X95508268Y-85399459D01*
X95505567Y-85153425D01*
X95502753Y-84904781D01*
X95499866Y-84657134D01*
X95496947Y-84414092D01*
X95494038Y-84179262D01*
X95491179Y-83956251D01*
X95488412Y-83748668D01*
X95485777Y-83560119D01*
X95483317Y-83394212D01*
X95481071Y-83254555D01*
X95479082Y-83144754D01*
X95477390Y-83068418D01*
X95476036Y-83029154D01*
X95475541Y-83024535D01*
X95454301Y-83024622D01*
X95392642Y-83025274D01*
X95292471Y-83026467D01*
X95155694Y-83028173D01*
X94984221Y-83030366D01*
X94779956Y-83033021D01*
X94544809Y-83036110D01*
X94280686Y-83039608D01*
X93989495Y-83043489D01*
X93673142Y-83047725D01*
X93333536Y-83052291D01*
X92972582Y-83057160D01*
X92592190Y-83062307D01*
X92194265Y-83067705D01*
X91780716Y-83073327D01*
X91353449Y-83079148D01*
X90914371Y-83085141D01*
X90465391Y-83091279D01*
X90008416Y-83097538D01*
X89545351Y-83103890D01*
X89078106Y-83110308D01*
X88608587Y-83116768D01*
X88138701Y-83123242D01*
X87670357Y-83129705D01*
X87205460Y-83136129D01*
X86745918Y-83142490D01*
X86293640Y-83148759D01*
X85850531Y-83154912D01*
X85418499Y-83160922D01*
X84999451Y-83166763D01*
X84595296Y-83172408D01*
X84207939Y-83177831D01*
X83839289Y-83183006D01*
X83491252Y-83187906D01*
X83165737Y-83192506D01*
X82864649Y-83196779D01*
X82589897Y-83200699D01*
X82343387Y-83204240D01*
X82127028Y-83207374D01*
X81942726Y-83210077D01*
X81792388Y-83212321D01*
X81677923Y-83214081D01*
X81601236Y-83215330D01*
X81564236Y-83216042D01*
X81560976Y-83216168D01*
X81560732Y-83237289D01*
X80959335Y-83237289D01*
X80958371Y-83223379D01*
X79833310Y-83236332D01*
X79607337Y-83239104D01*
X79384811Y-83242155D01*
X79171119Y-83245389D01*
X78971650Y-83248712D01*
X78791790Y-83252028D01*
X78636927Y-83255241D01*
X78512449Y-83258256D01*
X78423743Y-83260978D01*
X78409711Y-83261522D01*
X78111172Y-83273759D01*
X78097419Y-84462338D01*
X78094399Y-84715635D01*
X78091055Y-84982634D01*
X78087496Y-85255381D01*
X78083832Y-85525921D01*
X78080173Y-85786300D01*
X78076629Y-86028564D01*
X78073309Y-86244758D01*
X78070324Y-86426927D01*
X78070201Y-86434084D01*
X78056737Y-87217250D01*
X77464011Y-87217250D01*
X77465682Y-87197710D01*
X77467959Y-87136926D01*
X77470557Y-87041368D01*
X77473422Y-86914813D01*
X77476500Y-86761041D01*
X77479738Y-86583828D01*
X77483080Y-86386955D01*
X77486474Y-86174198D01*
X77489864Y-85949337D01*
X77493197Y-85716149D01*
X77496418Y-85478414D01*
X77499474Y-85239908D01*
X77502311Y-85004411D01*
X77504873Y-84775701D01*
X77507108Y-84557555D01*
X77508961Y-84353754D01*
X77510377Y-84168074D01*
X77511304Y-84004294D01*
X77511678Y-83875226D01*
X77512334Y-83263702D01*
X76924959Y-83277082D01*
X76784666Y-83280029D01*
X76609012Y-83283315D01*
X76404964Y-83286832D01*
X76179492Y-83290471D01*
X75939563Y-83294122D01*
X75692148Y-83297678D01*
X75444214Y-83301028D01*
X75202731Y-83304064D01*
X75189292Y-83304226D01*
X74041000Y-83317989D01*
X74041000Y-83015667D01*
X96069603Y-83015667D01*
X96083300Y-84375625D01*
X96086015Y-84633167D01*
X96088997Y-84894806D01*
X96092164Y-85154628D01*
X96095437Y-85406719D01*
X96098733Y-85645166D01*
X96101970Y-85864055D01*
X96105069Y-86057472D01*
X96107947Y-86219504D01*
X96110161Y-86328250D01*
X96123323Y-86920917D01*
X96411620Y-86915826D01*
X96486446Y-86914518D01*
X96598718Y-86912573D01*
X96743553Y-86910075D01*
X96916072Y-86907109D01*
X97111392Y-86903758D01*
X97324632Y-86900105D01*
X97550910Y-86896234D01*
X97785345Y-86892230D01*
X97959334Y-86889262D01*
X98215505Y-86885131D01*
X98482140Y-86881266D01*
X98752067Y-86877742D01*
X99018114Y-86874637D01*
X99273110Y-86872028D01*
X99509882Y-86869991D01*
X99721259Y-86868603D01*
X99900070Y-86867940D01*
X99955185Y-86867895D01*
X100691620Y-86868000D01*
X100677251Y-84915375D01*
X100675114Y-84631715D01*
X100672972Y-84360303D01*
X100670854Y-84104101D01*
X100668789Y-83866072D01*
X100666807Y-83649177D01*
X100664935Y-83456380D01*
X100663202Y-83290642D01*
X100661639Y-83154925D01*
X100660273Y-83052192D01*
X100659133Y-82985404D01*
X100658249Y-82957525D01*
X100658136Y-82956876D01*
X100636776Y-82956376D01*
X100575862Y-82956483D01*
X100478168Y-82957165D01*
X100346469Y-82958389D01*
X100183539Y-82960121D01*
X99992153Y-82962329D01*
X99775084Y-82964979D01*
X99535107Y-82968040D01*
X99274998Y-82971478D01*
X98997529Y-82975260D01*
X98705476Y-82979353D01*
X98433237Y-82983264D01*
X98128825Y-82987679D01*
X97835396Y-82991916D01*
X97555839Y-82995936D01*
X97293039Y-82999697D01*
X97049883Y-83003159D01*
X96829260Y-83006281D01*
X96634055Y-83009022D01*
X96467155Y-83011342D01*
X96331448Y-83013200D01*
X96229820Y-83014554D01*
X96165159Y-83015365D01*
X96141343Y-83015597D01*
X96069603Y-83015667D01*
X74041000Y-83015667D01*
X74041000Y-82955964D01*
X101250750Y-82955964D01*
X101255248Y-84504524D01*
X101256195Y-84769646D01*
X101257468Y-85032026D01*
X101259024Y-85287084D01*
X101260820Y-85530239D01*
X101262815Y-85756910D01*
X101264965Y-85962517D01*
X101267228Y-86142479D01*
X101269561Y-86292215D01*
X101271922Y-86407145D01*
X101273436Y-86460542D01*
X101287125Y-86868000D01*
X104457500Y-86868000D01*
X104457012Y-86651042D01*
X104456664Y-86600724D01*
X104455771Y-86522516D01*
X104454314Y-86415319D01*
X104452277Y-86278035D01*
X104449639Y-86109565D01*
X104446383Y-85908811D01*
X104442491Y-85674676D01*
X104437943Y-85406060D01*
X104432721Y-85101866D01*
X104426807Y-84760995D01*
X104420183Y-84382349D01*
X104412829Y-83964829D01*
X104404728Y-83507339D01*
X104395860Y-83008778D01*
X104394520Y-82933588D01*
X104389136Y-82927694D01*
X104371325Y-82922763D01*
X104338253Y-82918764D01*
X104287090Y-82915665D01*
X104215003Y-82913434D01*
X104119159Y-82912037D01*
X103996728Y-82911444D01*
X103844877Y-82911623D01*
X103660773Y-82912540D01*
X103441586Y-82914164D01*
X103184482Y-82916462D01*
X103023459Y-82918026D01*
X102779906Y-82920601D01*
X102543901Y-82923398D01*
X102319688Y-82926348D01*
X102111511Y-82929381D01*
X101923615Y-82932428D01*
X101760242Y-82935419D01*
X101625638Y-82938284D01*
X101524046Y-82940955D01*
X101459710Y-82943361D01*
X101451834Y-82943795D01*
X101250750Y-82955964D01*
X74041000Y-82955964D01*
X74041000Y-82743546D01*
X74152125Y-82732325D01*
X74186213Y-82730741D01*
X74260126Y-82728708D01*
X74371359Y-82726267D01*
X74517407Y-82723454D01*
X74695765Y-82720309D01*
X74903928Y-82716871D01*
X75139391Y-82713177D01*
X75399648Y-82709268D01*
X75682194Y-82705180D01*
X75984524Y-82700954D01*
X76304134Y-82696627D01*
X76638517Y-82692238D01*
X76985169Y-82687826D01*
X77249926Y-82684547D01*
X80236602Y-82647991D01*
X80236665Y-82641073D01*
X80856667Y-82641073D01*
X81687459Y-82627395D01*
X81898202Y-82623986D01*
X82140884Y-82620163D01*
X82405113Y-82616084D01*
X82680499Y-82611906D01*
X82956650Y-82607787D01*
X83223175Y-82603884D01*
X83469684Y-82600354D01*
X83507792Y-82599817D01*
X84497334Y-82585916D01*
X84497334Y-82576577D01*
X85090000Y-82576577D01*
X86418209Y-82563010D01*
X86659119Y-82560384D01*
X86893348Y-82557514D01*
X87116455Y-82554476D01*
X87323998Y-82551343D01*
X87511535Y-82548191D01*
X87674627Y-82545095D01*
X87808831Y-82542130D01*
X87909706Y-82539369D01*
X87972811Y-82536888D01*
X87973959Y-82536825D01*
X88201500Y-82524207D01*
X88201500Y-79121501D01*
X87413042Y-79132346D01*
X87187746Y-79135510D01*
X86935094Y-79139169D01*
X86668290Y-79143126D01*
X86400535Y-79147180D01*
X86145032Y-79151135D01*
X85914984Y-79154791D01*
X85857292Y-79155729D01*
X85090000Y-79168266D01*
X85090000Y-82576577D01*
X84497334Y-82576577D01*
X84497334Y-79158574D01*
X83984042Y-79171409D01*
X83866744Y-79174008D01*
X83712874Y-79176893D01*
X83528190Y-79179982D01*
X83318454Y-79183192D01*
X83089423Y-79186441D01*
X82846857Y-79189646D01*
X82596515Y-79192725D01*
X82344158Y-79195596D01*
X82163709Y-79197494D01*
X80856667Y-79210745D01*
X80856667Y-82641073D01*
X80236665Y-82641073D01*
X80252092Y-80946259D01*
X80254346Y-80681610D01*
X80256192Y-80429259D01*
X80257626Y-80192397D01*
X80258643Y-79974217D01*
X80259236Y-79777910D01*
X80259402Y-79606667D01*
X80259134Y-79463681D01*
X80258428Y-79352143D01*
X80257278Y-79275245D01*
X80255680Y-79236179D01*
X80254894Y-79231838D01*
X80232642Y-79230509D01*
X80171025Y-79229663D01*
X80073009Y-79229275D01*
X79941559Y-79229317D01*
X79779640Y-79229763D01*
X79590218Y-79230584D01*
X79376257Y-79231755D01*
X79140724Y-79233247D01*
X78886583Y-79235035D01*
X78616801Y-79237091D01*
X78334342Y-79239387D01*
X78042172Y-79241897D01*
X77743256Y-79244594D01*
X77440559Y-79247451D01*
X77137047Y-79250440D01*
X76835686Y-79253535D01*
X76539440Y-79256709D01*
X76251276Y-79259934D01*
X75974157Y-79263183D01*
X75711051Y-79266430D01*
X75464921Y-79269647D01*
X75238734Y-79272808D01*
X75035455Y-79275885D01*
X74858049Y-79278851D01*
X74709481Y-79281679D01*
X74649542Y-79282974D01*
X74062167Y-79296298D01*
X74062167Y-78704552D01*
X74922886Y-78690526D01*
X75140973Y-78687240D01*
X75372553Y-78684227D01*
X75608040Y-78681581D01*
X75837848Y-78679394D01*
X76052392Y-78677758D01*
X76242086Y-78676767D01*
X76372802Y-78676500D01*
X76962000Y-78676500D01*
X76962000Y-78661283D01*
X77554667Y-78661283D01*
X78787625Y-78647637D01*
X79043824Y-78644709D01*
X79312550Y-78641468D01*
X79586206Y-78638018D01*
X79857198Y-78634459D01*
X80117932Y-78630895D01*
X80360811Y-78627427D01*
X80578243Y-78624158D01*
X80762631Y-78621190D01*
X80798459Y-78620580D01*
X80985664Y-78617352D01*
X82169000Y-78617352D01*
X82587042Y-78604685D01*
X82683153Y-78602231D01*
X82816555Y-78599510D01*
X82982208Y-78596594D01*
X83175072Y-78593555D01*
X83390105Y-78590466D01*
X83622268Y-78587397D01*
X83866519Y-78584423D01*
X84117819Y-78581614D01*
X84371127Y-78579042D01*
X84396792Y-78578797D01*
X85788500Y-78565576D01*
X85788500Y-78555743D01*
X86381167Y-78555743D01*
X88540167Y-78533605D01*
X88540167Y-78845834D01*
X88794167Y-78845834D01*
X88794167Y-82534339D01*
X89476792Y-82521088D01*
X89656599Y-82517716D01*
X89869004Y-82513928D01*
X90104274Y-82509887D01*
X90352678Y-82505754D01*
X90604483Y-82501691D01*
X90849959Y-82497861D01*
X91079372Y-82494424D01*
X91085459Y-82494336D01*
X92011500Y-82480834D01*
X92011500Y-82470588D01*
X92604167Y-82470588D01*
X94122875Y-82455016D01*
X94372721Y-82452327D01*
X94610190Y-82449526D01*
X94831889Y-82446668D01*
X95034426Y-82443808D01*
X95214410Y-82441001D01*
X95368448Y-82438303D01*
X95493148Y-82435770D01*
X95585118Y-82433456D01*
X95640966Y-82431417D01*
X95657459Y-82429972D01*
X95657579Y-82428893D01*
X96266000Y-82428893D01*
X97128542Y-82415295D01*
X97362086Y-82411598D01*
X97622377Y-82407453D01*
X97897051Y-82403058D01*
X98173745Y-82398611D01*
X98440098Y-82394312D01*
X98683746Y-82390358D01*
X98811292Y-82388276D01*
X99631500Y-82374857D01*
X99631500Y-82370084D01*
X100224134Y-82370084D01*
X100419942Y-82365208D01*
X100478274Y-82364042D01*
X100574255Y-82362475D01*
X100703204Y-82360570D01*
X100860441Y-82358389D01*
X101041284Y-82355995D01*
X101241051Y-82353451D01*
X101455062Y-82350819D01*
X101678635Y-82348161D01*
X101795792Y-82346806D01*
X102975834Y-82333279D01*
X102975834Y-78994000D01*
X100224167Y-78994000D01*
X100224150Y-80682042D01*
X100224134Y-82370084D01*
X99631500Y-82370084D01*
X99631500Y-79015167D01*
X96266000Y-79015167D01*
X96266000Y-82428893D01*
X95657579Y-82428893D01*
X95659925Y-82407836D01*
X95662274Y-82346549D01*
X95664476Y-82249295D01*
X95666502Y-82119257D01*
X95668322Y-81959618D01*
X95669906Y-81773562D01*
X95671226Y-81564270D01*
X95672251Y-81334927D01*
X95672952Y-81088715D01*
X95673300Y-80828817D01*
X95673334Y-80717834D01*
X95673334Y-79015167D01*
X94427847Y-79015167D01*
X94191685Y-79015408D01*
X93960010Y-79016101D01*
X93737750Y-79017202D01*
X93529832Y-79018667D01*
X93341185Y-79020450D01*
X93176737Y-79022508D01*
X93041415Y-79024795D01*
X92940148Y-79027268D01*
X92893264Y-79029032D01*
X92604167Y-79042896D01*
X92604167Y-82470588D01*
X92011500Y-82470588D01*
X92011500Y-79036334D01*
X91609334Y-79036334D01*
X91609334Y-78450230D01*
X94318667Y-78450230D01*
X94607764Y-78436365D01*
X94677716Y-78434042D01*
X94785756Y-78431840D01*
X94927639Y-78429793D01*
X95099120Y-78427934D01*
X95295954Y-78426294D01*
X95513896Y-78424906D01*
X95748700Y-78423803D01*
X95996122Y-78423017D01*
X96251916Y-78422581D01*
X96417514Y-78422500D01*
X97938167Y-78422500D01*
X98530834Y-78422500D01*
X99575132Y-78422500D01*
X99812115Y-78422181D01*
X100061471Y-78421267D01*
X100314856Y-78419828D01*
X100563926Y-78417931D01*
X100800339Y-78415645D01*
X101015751Y-78413037D01*
X101201819Y-78410176D01*
X101289632Y-78408498D01*
X101959834Y-78394496D01*
X101959834Y-75473396D01*
X100705709Y-75487428D01*
X100461902Y-75490065D01*
X100217135Y-75492541D01*
X99977127Y-75494809D01*
X99747595Y-75496823D01*
X99534256Y-75498535D01*
X99342828Y-75499899D01*
X99179028Y-75500869D01*
X99048574Y-75501396D01*
X98991209Y-75501481D01*
X98530834Y-75501500D01*
X98530834Y-78422500D01*
X97938167Y-78422500D01*
X97938167Y-75522667D01*
X97465407Y-75522667D01*
X97357152Y-75522901D01*
X97212023Y-75523576D01*
X97035476Y-75524650D01*
X96832967Y-75526079D01*
X96609953Y-75527821D01*
X96371889Y-75529835D01*
X96124232Y-75532077D01*
X95872438Y-75534506D01*
X95655657Y-75536723D01*
X94318667Y-75550778D01*
X94318667Y-78450230D01*
X91609334Y-78450230D01*
X91609334Y-78443667D01*
X93726000Y-78443667D01*
X93726000Y-75565000D01*
X93179149Y-75565000D01*
X93045775Y-75565290D01*
X92876992Y-75566119D01*
X92679720Y-75567431D01*
X92460877Y-75569165D01*
X92227385Y-75571264D01*
X91986162Y-75573669D01*
X91744129Y-75576321D01*
X91517566Y-75579045D01*
X90402834Y-75593090D01*
X90402834Y-77194834D01*
X89810167Y-77194834D01*
X89810183Y-76395792D01*
X89810200Y-75596750D01*
X88608975Y-75609795D01*
X88367202Y-75612368D01*
X88122072Y-75614882D01*
X87879820Y-75617277D01*
X87646682Y-75619496D01*
X87428893Y-75621482D01*
X87232688Y-75623177D01*
X87064302Y-75624522D01*
X86929972Y-75625461D01*
X86894459Y-75625670D01*
X86381167Y-75628500D01*
X86381167Y-78555743D01*
X85788500Y-78555743D01*
X85788500Y-75634166D01*
X85306959Y-75642027D01*
X85196687Y-75643681D01*
X85049612Y-75645662D01*
X84871263Y-75647906D01*
X84667167Y-75650349D01*
X84442855Y-75652928D01*
X84203853Y-75655579D01*
X83955691Y-75658237D01*
X83703897Y-75660840D01*
X83497209Y-75662901D01*
X82169000Y-75675915D01*
X82169000Y-78617352D01*
X80985664Y-78617352D01*
X81576334Y-78607167D01*
X81576334Y-75670163D01*
X81317042Y-75681210D01*
X81255342Y-75683088D01*
X81155069Y-75685186D01*
X81019985Y-75687457D01*
X80853849Y-75689857D01*
X80660422Y-75692342D01*
X80443464Y-75694865D01*
X80206735Y-75697382D01*
X79953995Y-75699848D01*
X79689005Y-75702219D01*
X79415525Y-75704448D01*
X79306209Y-75705278D01*
X77554667Y-75718299D01*
X77554667Y-78661283D01*
X76962000Y-78661283D01*
X76962000Y-75727380D01*
X75512084Y-75741304D01*
X74062167Y-75755228D01*
X74061594Y-75718299D01*
X74060199Y-75628500D01*
X74058991Y-75550778D01*
X74058387Y-75511947D01*
X74058219Y-75501500D01*
X74056740Y-75410122D01*
X74055164Y-75320151D01*
X74053855Y-75252716D01*
X74053095Y-75221042D01*
X74051584Y-75173417D01*
X75057000Y-75160575D01*
X75294696Y-75157693D01*
X75548848Y-75154887D01*
X75810169Y-75152242D01*
X76069367Y-75149841D01*
X76317156Y-75147770D01*
X76544244Y-75146114D01*
X76741343Y-75144957D01*
X76797959Y-75144700D01*
X77533500Y-75141667D01*
X77533500Y-75120500D01*
X78126167Y-75120500D01*
X78618292Y-75120482D01*
X78728717Y-75120252D01*
X78876089Y-75119595D01*
X79055023Y-75118552D01*
X79260134Y-75117163D01*
X79486038Y-75115468D01*
X79727350Y-75113508D01*
X79978686Y-75111323D01*
X80234661Y-75108954D01*
X80489891Y-75106442D01*
X80491542Y-75106425D01*
X81872667Y-75092385D01*
X81872667Y-75085113D01*
X82444167Y-75085113D01*
X83793542Y-75071075D01*
X84050490Y-75068506D01*
X84311828Y-75066089D01*
X84571572Y-75063866D01*
X84823740Y-75061881D01*
X85062349Y-75060176D01*
X85281414Y-75058795D01*
X85474954Y-75057781D01*
X85636985Y-75057177D01*
X85740875Y-75057018D01*
X86338834Y-75057000D01*
X86338834Y-75040260D01*
X86931500Y-75040260D01*
X88545459Y-75027158D01*
X88814162Y-75024848D01*
X89078744Y-75022327D01*
X89334906Y-75019652D01*
X89578348Y-75016877D01*
X89804771Y-75014059D01*
X90009876Y-75011253D01*
X90189363Y-75008516D01*
X90338932Y-75005902D01*
X90454285Y-75003468D01*
X90524542Y-75001503D01*
X90697666Y-74995551D01*
X91482334Y-74995551D01*
X92958709Y-74983371D01*
X93214518Y-74981119D01*
X93465151Y-74978641D01*
X93706227Y-74975998D01*
X93933365Y-74973249D01*
X94142184Y-74970456D01*
X94328302Y-74967677D01*
X94487339Y-74964974D01*
X94614913Y-74962406D01*
X94706643Y-74960033D01*
X94736709Y-74958979D01*
X94839819Y-74954804D01*
X95631000Y-74954804D01*
X97012125Y-74942035D01*
X97268980Y-74939535D01*
X97527897Y-74936782D01*
X97783309Y-74933848D01*
X98029646Y-74930809D01*
X98261342Y-74927736D01*
X98472828Y-74924705D01*
X98658536Y-74921789D01*
X98812898Y-74919062D01*
X98927709Y-74916660D01*
X99223598Y-74909681D01*
X100033667Y-74909681D01*
X101435959Y-74898062D01*
X101685764Y-74895843D01*
X101930699Y-74893384D01*
X102166212Y-74890748D01*
X102387750Y-74887999D01*
X102590759Y-74885199D01*
X102770688Y-74882414D01*
X102922982Y-74879706D01*
X103043091Y-74877139D01*
X103126459Y-74874776D01*
X103139875Y-74874271D01*
X103441500Y-74862099D01*
X103441500Y-72213800D01*
X102663625Y-72227785D01*
X102459067Y-72231014D01*
X102222922Y-72233981D01*
X101965939Y-72236598D01*
X101698864Y-72238777D01*
X101432445Y-72240429D01*
X101177428Y-72241467D01*
X100959709Y-72241802D01*
X100033667Y-72241834D01*
X100033667Y-74909681D01*
X99223598Y-74909681D01*
X99462167Y-74904054D01*
X99462167Y-72263000D01*
X98566062Y-72263000D01*
X98342273Y-72263349D01*
X98086785Y-72264345D01*
X97810223Y-72265909D01*
X97523215Y-72267964D01*
X97236387Y-72270432D01*
X96960368Y-72273235D01*
X96705783Y-72276295D01*
X96650478Y-72277039D01*
X95631000Y-72291078D01*
X95631000Y-74954804D01*
X94839819Y-74954804D01*
X95038334Y-74946766D01*
X95038334Y-72289240D01*
X93371459Y-72298015D01*
X93106640Y-72299544D01*
X92851989Y-72301277D01*
X92610988Y-72303175D01*
X92387122Y-72305197D01*
X92183873Y-72307304D01*
X92004725Y-72309456D01*
X91853161Y-72311615D01*
X91732665Y-72313741D01*
X91646719Y-72315793D01*
X91598807Y-72317734D01*
X91593459Y-72318168D01*
X91482334Y-72329546D01*
X91482334Y-74995551D01*
X90697666Y-74995551D01*
X90889667Y-74988950D01*
X90889667Y-72326500D01*
X90374577Y-72326500D01*
X90262673Y-72326715D01*
X90113642Y-72327333D01*
X89932688Y-72328318D01*
X89725016Y-72329634D01*
X89495830Y-72331243D01*
X89250334Y-72333108D01*
X88993731Y-72335192D01*
X88731227Y-72337458D01*
X88468025Y-72339870D01*
X88395494Y-72340561D01*
X86931500Y-72354621D01*
X86931500Y-75040260D01*
X86338834Y-75040260D01*
X86338842Y-73707625D01*
X86338851Y-72358250D01*
X85433967Y-72363178D01*
X85210730Y-72364583D01*
X84955565Y-72366512D01*
X84678874Y-72368866D01*
X84391057Y-72371547D01*
X84102518Y-72374458D01*
X83823655Y-72377500D01*
X83564872Y-72380574D01*
X83486625Y-72381566D01*
X82444167Y-72395026D01*
X82444167Y-75085113D01*
X81872667Y-75085113D01*
X81872667Y-72383122D01*
X81043700Y-72397144D01*
X80839471Y-72400180D01*
X80602591Y-72402989D01*
X80342742Y-72405500D01*
X80069609Y-72407640D01*
X79792873Y-72409337D01*
X79522216Y-72410518D01*
X79267321Y-72411111D01*
X79170450Y-72411167D01*
X78126167Y-72411167D01*
X78126167Y-75120500D01*
X77533500Y-75120500D01*
X77533500Y-72425466D01*
X75744917Y-72440234D01*
X73956334Y-72455001D01*
X73956334Y-71866051D01*
X76200000Y-71850250D01*
X78443667Y-71834449D01*
X78443667Y-71818500D01*
X79036334Y-71818500D01*
X79793042Y-71818485D01*
X79943762Y-71818281D01*
X80131155Y-71817696D01*
X80349561Y-71816764D01*
X80593323Y-71815520D01*
X80856782Y-71813996D01*
X81134278Y-71812226D01*
X81420153Y-71810244D01*
X81708749Y-71808084D01*
X81994406Y-71805780D01*
X82153125Y-71804420D01*
X83756500Y-71790370D01*
X83756500Y-71776167D01*
X84349167Y-71776167D01*
X85234677Y-71776167D01*
X85425915Y-71775914D01*
X85651959Y-71775187D01*
X85905283Y-71774033D01*
X86178361Y-71772500D01*
X86463669Y-71770636D01*
X86753682Y-71768487D01*
X87040874Y-71766103D01*
X87317721Y-71763530D01*
X87457177Y-71762111D01*
X88794167Y-71748055D01*
X88794167Y-71747260D01*
X89386834Y-71747260D01*
X90323459Y-71740404D01*
X90540449Y-71738722D01*
X90790558Y-71736623D01*
X91064575Y-71734193D01*
X91353288Y-71731519D01*
X91647485Y-71728688D01*
X91937956Y-71725787D01*
X92215489Y-71722902D01*
X92429542Y-71720580D01*
X93023379Y-71713995D01*
X94170500Y-71713995D01*
X95466959Y-71702275D01*
X95741105Y-71699739D01*
X96037306Y-71696894D01*
X96346647Y-71693833D01*
X96660213Y-71690648D01*
X96969091Y-71687430D01*
X97264366Y-71684272D01*
X97537123Y-71681265D01*
X97778450Y-71678502D01*
X97827042Y-71677929D01*
X98583212Y-71668952D01*
X99483334Y-71668952D01*
X101234875Y-71658407D01*
X101510034Y-71656622D01*
X101777722Y-71654638D01*
X102034234Y-71652497D01*
X102275863Y-71650240D01*
X102498906Y-71647911D01*
X102699656Y-71645550D01*
X102874409Y-71643200D01*
X103019458Y-71640904D01*
X103131099Y-71638702D01*
X103205627Y-71636638D01*
X103224542Y-71635843D01*
X103462667Y-71623824D01*
X103462667Y-67832337D01*
X102483709Y-67846230D01*
X102237385Y-67849720D01*
X101960343Y-67853634D01*
X101664195Y-67857808D01*
X101360550Y-67862081D01*
X101061020Y-67866287D01*
X100777216Y-67870265D01*
X100520750Y-67873850D01*
X100494042Y-67874222D01*
X99483334Y-67888321D01*
X99483334Y-71668952D01*
X98583212Y-71668952D01*
X98890667Y-71665302D01*
X98890667Y-67902667D01*
X98599625Y-67903124D01*
X98535475Y-67903525D01*
X98432543Y-67904560D01*
X98294374Y-67906180D01*
X98124515Y-67908336D01*
X97926510Y-67910977D01*
X97703905Y-67914056D01*
X97460246Y-67917524D01*
X97199079Y-67921331D01*
X96923949Y-67925428D01*
X96638402Y-67929766D01*
X96345983Y-67934296D01*
X96340084Y-67934388D01*
X96052755Y-67938874D01*
X95775895Y-67943173D01*
X95512645Y-67947239D01*
X95266146Y-67951024D01*
X95039541Y-67954481D01*
X94835970Y-67957562D01*
X94658575Y-67960219D01*
X94510497Y-67962406D01*
X94394877Y-67964074D01*
X94314857Y-67965176D01*
X94273578Y-67965665D01*
X94271042Y-67965682D01*
X94170500Y-67966167D01*
X94170500Y-71713995D01*
X93023379Y-71713995D01*
X93599000Y-71707612D01*
X93599000Y-67971119D01*
X93191542Y-67979644D01*
X93075558Y-67981913D01*
X92927132Y-67984566D01*
X92750572Y-67987541D01*
X92550186Y-67990779D01*
X92330280Y-67994219D01*
X92095162Y-67997799D01*
X91849140Y-68001459D01*
X91596521Y-68005140D01*
X91341611Y-68008779D01*
X91088720Y-68012316D01*
X90842153Y-68015691D01*
X90606220Y-68018843D01*
X90385225Y-68021712D01*
X90183479Y-68024236D01*
X90005287Y-68026355D01*
X89854957Y-68028009D01*
X89736796Y-68029136D01*
X89655113Y-68029676D01*
X89635542Y-68029716D01*
X89386834Y-68029667D01*
X89386834Y-71747260D01*
X88794167Y-71747260D01*
X88794167Y-68050834D01*
X88545459Y-68050455D01*
X88450430Y-68050657D01*
X88321226Y-68051460D01*
X88161758Y-68052808D01*
X87975939Y-68054646D01*
X87767682Y-68056918D01*
X87540899Y-68059570D01*
X87299505Y-68062545D01*
X87047410Y-68065789D01*
X86788528Y-68069246D01*
X86526773Y-68072860D01*
X86266055Y-68076577D01*
X86010289Y-68080340D01*
X85763387Y-68084095D01*
X85529262Y-68087786D01*
X85311826Y-68091357D01*
X85114993Y-68094754D01*
X84942675Y-68097921D01*
X84798785Y-68100802D01*
X84687235Y-68103342D01*
X84611939Y-68105486D01*
X84587292Y-68106482D01*
X84349167Y-68118510D01*
X84349167Y-71776167D01*
X83756500Y-71776167D01*
X83756500Y-68114334D01*
X83687709Y-68114790D01*
X83656888Y-68115183D01*
X83586816Y-68116193D01*
X83480569Y-68117775D01*
X83341223Y-68119880D01*
X83171854Y-68122462D01*
X82975540Y-68125474D01*
X82755356Y-68128867D01*
X82514379Y-68132596D01*
X82255685Y-68136612D01*
X81982350Y-68140869D01*
X81697452Y-68145319D01*
X81650417Y-68146055D01*
X81357013Y-68150597D01*
X81069782Y-68154948D01*
X80792342Y-68159058D01*
X80528306Y-68162878D01*
X80281291Y-68166359D01*
X80054913Y-68169451D01*
X79852786Y-68172104D01*
X79678526Y-68174270D01*
X79535749Y-68175899D01*
X79428070Y-68176941D01*
X79359125Y-68177348D01*
X79036334Y-68177834D01*
X79036334Y-71818500D01*
X78443667Y-71818500D01*
X78443667Y-68199000D01*
X78131459Y-68198951D01*
X78057765Y-68199264D01*
X77946002Y-68200181D01*
X77800425Y-68201644D01*
X77625293Y-68203594D01*
X77424864Y-68205973D01*
X77203395Y-68208723D01*
X76965144Y-68211786D01*
X76714369Y-68215104D01*
X76455326Y-68218617D01*
X76192275Y-68222268D01*
X75929472Y-68226000D01*
X75671175Y-68229752D01*
X75421642Y-68233468D01*
X75185131Y-68237089D01*
X74965899Y-68240557D01*
X74768204Y-68243813D01*
X74596303Y-68246800D01*
X74490792Y-68248752D01*
X74062167Y-68256957D01*
X74062167Y-67669834D01*
X74194459Y-67669377D01*
X74234715Y-67668982D01*
X74314092Y-67667964D01*
X74429383Y-67666372D01*
X74577382Y-67664252D01*
X74754880Y-67661654D01*
X74958672Y-67658623D01*
X75185549Y-67655209D01*
X75432306Y-67651458D01*
X75695735Y-67647419D01*
X75972629Y-67643140D01*
X76259781Y-67638667D01*
X76295250Y-67638112D01*
X76587477Y-67633581D01*
X76872695Y-67629240D01*
X77147382Y-67625138D01*
X77408016Y-67621325D01*
X77651074Y-67617849D01*
X77873034Y-67614759D01*
X78070372Y-67612105D01*
X78239568Y-67609935D01*
X78377097Y-67608298D01*
X78479438Y-67607244D01*
X78543068Y-67606821D01*
X78544209Y-67606819D01*
X78824667Y-67606334D01*
X78824667Y-64636625D01*
X79408306Y-64636625D01*
X79408346Y-64795523D01*
X79408664Y-64980453D01*
X79409256Y-65188157D01*
X79410118Y-65415374D01*
X79411246Y-65658843D01*
X79412637Y-65915306D01*
X79412903Y-65960625D01*
X79422553Y-67585167D01*
X79615735Y-67585790D01*
X79648584Y-67585531D01*
X79722508Y-67584688D01*
X79836253Y-67583279D01*
X79988564Y-67581321D01*
X80178187Y-67578832D01*
X80403868Y-67575828D01*
X80664353Y-67572328D01*
X80958388Y-67568349D01*
X81284718Y-67563907D01*
X81642089Y-67559021D01*
X82029247Y-67553707D01*
X82444937Y-67547984D01*
X82887906Y-67541867D01*
X83356899Y-67535376D01*
X83850662Y-67528526D01*
X84367941Y-67521336D01*
X84907481Y-67513823D01*
X85468029Y-67506004D01*
X86048330Y-67497897D01*
X86647130Y-67489518D01*
X87263174Y-67480885D01*
X87895209Y-67472017D01*
X88541980Y-67462929D01*
X89202233Y-67453639D01*
X89874714Y-67444165D01*
X90558168Y-67434524D01*
X91111917Y-67426704D01*
X91804369Y-67416905D01*
X92487298Y-67407211D01*
X93159430Y-67397642D01*
X93819492Y-67388217D01*
X94466212Y-67378953D01*
X95098315Y-67369871D01*
X95714529Y-67360988D01*
X96313580Y-67352325D01*
X96894195Y-67343899D01*
X97455101Y-67335729D01*
X97995024Y-67327834D01*
X98512692Y-67320234D01*
X99006830Y-67312947D01*
X99476166Y-67305992D01*
X99919427Y-67299387D01*
X100335339Y-67293152D01*
X100722630Y-67287306D01*
X101080024Y-67281867D01*
X101406251Y-67276854D01*
X101700036Y-67272286D01*
X101960105Y-67268182D01*
X102185187Y-67264560D01*
X102374007Y-67261440D01*
X102525292Y-67258841D01*
X102637770Y-67256781D01*
X102710166Y-67255280D01*
X102737709Y-67254519D01*
X103060500Y-67242043D01*
X103060500Y-63881000D01*
X102991709Y-63882071D01*
X102867134Y-63884079D01*
X102705496Y-63886797D01*
X102508256Y-63890200D01*
X102276874Y-63894258D01*
X102012810Y-63898946D01*
X101717525Y-63904234D01*
X101392479Y-63910095D01*
X101039132Y-63916503D01*
X100658944Y-63923429D01*
X100253376Y-63930846D01*
X99823889Y-63938727D01*
X99371942Y-63947043D01*
X98898996Y-63955768D01*
X98406511Y-63964873D01*
X97895948Y-63974332D01*
X97368767Y-63984117D01*
X96826429Y-63994200D01*
X96270392Y-64004553D01*
X95702119Y-64015150D01*
X95123070Y-64025962D01*
X94534704Y-64036963D01*
X93938481Y-64048124D01*
X93335864Y-64059418D01*
X92728311Y-64070818D01*
X92117283Y-64082296D01*
X91504240Y-64093824D01*
X90890643Y-64105376D01*
X90277952Y-64116922D01*
X89667628Y-64128437D01*
X89061130Y-64139892D01*
X88459920Y-64151260D01*
X87865457Y-64162513D01*
X87279201Y-64173624D01*
X86702614Y-64184566D01*
X86137155Y-64195310D01*
X85584285Y-64205829D01*
X85045465Y-64216096D01*
X84522153Y-64226083D01*
X84015812Y-64235763D01*
X83527900Y-64245108D01*
X83059879Y-64254091D01*
X82613209Y-64262684D01*
X82189351Y-64270859D01*
X81789763Y-64278589D01*
X81415908Y-64285847D01*
X81069245Y-64292604D01*
X80751234Y-64298835D01*
X80463336Y-64304510D01*
X80207012Y-64309602D01*
X79983721Y-64314084D01*
X79794924Y-64317929D01*
X79642081Y-64321108D01*
X79526653Y-64323595D01*
X79450100Y-64325361D01*
X79413882Y-64326380D01*
X79410998Y-64326560D01*
X79409889Y-64348727D01*
X79409073Y-64409967D01*
X79408547Y-64507020D01*
X79408306Y-64636625D01*
X78824667Y-64636625D01*
X78824667Y-64322073D01*
X78321959Y-64335392D01*
X78219625Y-64337920D01*
X78083314Y-64341002D01*
X77916923Y-64344568D01*
X77724354Y-64348545D01*
X77509505Y-64352862D01*
X77276278Y-64357449D01*
X77028570Y-64362233D01*
X76770283Y-64367144D01*
X76505316Y-64372111D01*
X76237569Y-64377060D01*
X75970942Y-64381923D01*
X75709333Y-64386626D01*
X75456645Y-64391100D01*
X75216775Y-64395271D01*
X74993624Y-64399070D01*
X74791091Y-64402425D01*
X74613077Y-64405264D01*
X74463482Y-64407517D01*
X74346204Y-64409111D01*
X74265144Y-64409976D01*
X74236792Y-64410115D01*
X74062167Y-64410167D01*
X74062167Y-63841713D01*
X74173292Y-63830464D01*
X74219545Y-63827604D01*
X74302645Y-63824380D01*
X74417112Y-63820930D01*
X74557463Y-63817391D01*
X74718216Y-63813902D01*
X74893888Y-63810599D01*
X75078998Y-63807621D01*
X75088750Y-63807478D01*
X75165102Y-63806286D01*
X75281333Y-63804359D01*
X75436143Y-63801721D01*
X75628232Y-63798396D01*
X75856301Y-63794407D01*
X76119051Y-63789778D01*
X76415183Y-63784533D01*
X76743396Y-63778696D01*
X77102392Y-63772290D01*
X77490871Y-63765339D01*
X77907533Y-63757867D01*
X78351080Y-63749897D01*
X78820212Y-63741454D01*
X79313629Y-63732560D01*
X79830033Y-63723241D01*
X80368122Y-63713519D01*
X80926599Y-63703418D01*
X81504164Y-63692962D01*
X82099518Y-63682175D01*
X82711360Y-63671080D01*
X83338391Y-63659701D01*
X83979313Y-63648062D01*
X84632826Y-63636187D01*
X85297630Y-63624099D01*
X85972425Y-63611823D01*
X86655914Y-63599381D01*
X87346795Y-63586797D01*
X88043770Y-63574096D01*
X88745539Y-63561301D01*
X89450803Y-63548436D01*
X90158263Y-63535524D01*
X90866618Y-63522590D01*
X91574570Y-63509656D01*
X92280819Y-63496747D01*
X92984066Y-63483887D01*
X93683011Y-63471099D01*
X94376355Y-63458406D01*
X95062799Y-63445833D01*
X95741043Y-63433404D01*
X96409787Y-63421142D01*
X97067733Y-63409071D01*
X97713580Y-63397214D01*
X98346030Y-63385595D01*
X98963783Y-63374239D01*
X99565540Y-63363168D01*
X100150001Y-63352407D01*
X100715866Y-63341979D01*
X101261837Y-63331908D01*
X101786614Y-63322218D01*
X102288897Y-63312932D01*
X102767388Y-63304075D01*
X103220786Y-63295669D01*
X103647793Y-63287739D01*
X104047108Y-63280308D01*
X104417433Y-63273401D01*
X104757468Y-63267040D01*
X105065914Y-63261250D01*
X105341471Y-63256055D01*
X105582839Y-63251477D01*
X105788720Y-63247542D01*
X105957814Y-63244271D01*
X106088822Y-63241690D01*
X106180444Y-63239822D01*
X106231380Y-63238691D01*
X106237856Y-63238519D01*
X106589462Y-63228305D01*
X106600741Y-63517611D01*
X106604522Y-63623263D01*
X106607073Y-63712399D01*
X106608217Y-63777182D01*
X106607778Y-63809772D01*
X106607332Y-63812081D01*
X106585931Y-63813301D01*
X106525721Y-63815100D01*
X106430219Y-63817410D01*
X106302946Y-63820160D01*
X106147419Y-63823280D01*
X105967158Y-63826702D01*
X105765680Y-63830354D01*
X105546506Y-63834167D01*
X105313153Y-63838072D01*
X105217864Y-63839624D01*
X104976988Y-63843658D01*
X104746680Y-63847786D01*
X104530750Y-63851924D01*
X104333014Y-63855985D01*
X104157282Y-63859883D01*
X104007369Y-63863533D01*
X103887087Y-63866849D01*
X103800249Y-63869745D01*
X103750667Y-63872135D01*
X103743125Y-63872799D01*
X103653167Y-63883594D01*
X103653167Y-67251880D01*
X104177042Y-67238720D01*
X104312761Y-67235576D01*
X104483164Y-67232053D01*
X104680603Y-67228286D01*
X104897431Y-67224410D01*
X105126001Y-67220560D01*
X105358666Y-67216869D01*
X105587778Y-67213474D01*
X105690459Y-67212041D01*
X106680000Y-67198522D01*
X106680000Y-67484626D01*
X106679721Y-67599531D01*
X106678144Y-67679053D01*
X106674164Y-67730141D01*
X106666671Y-67759745D01*
X106654559Y-67774813D01*
X106636721Y-67782296D01*
X106632375Y-67783492D01*
X106597317Y-67787377D01*
X106527114Y-67790815D01*
X106428956Y-67793610D01*
X106310030Y-67795569D01*
X106177526Y-67796499D01*
X106149008Y-67796544D01*
X106024027Y-67797002D01*
X105865042Y-67798172D01*
X105680372Y-67799961D01*
X105478341Y-67802275D01*
X105267269Y-67805018D01*
X105055476Y-67808098D01*
X104884300Y-67810856D01*
X104055334Y-67824878D01*
X104055334Y-71634912D01*
X106658834Y-71607962D01*
X106658834Y-72199500D01*
X106143714Y-72199500D01*
X105995362Y-72199918D01*
X105814272Y-72201102D01*
X105610034Y-72202950D01*
X105392235Y-72205360D01*
X105170463Y-72208230D01*
X104954305Y-72211456D01*
X104831381Y-72213519D01*
X104034167Y-72227538D01*
X104034167Y-74869641D01*
X105388834Y-74854270D01*
X106743500Y-74838899D01*
X106743500Y-75412537D01*
X106600625Y-75424743D01*
X106558701Y-75426677D01*
X106477690Y-75428814D01*
X106360836Y-75431112D01*
X106211385Y-75433533D01*
X106032581Y-75436035D01*
X105827670Y-75438579D01*
X105599897Y-75441125D01*
X105352507Y-75443632D01*
X105088745Y-75446060D01*
X104811856Y-75448370D01*
X104525086Y-75450521D01*
X104505125Y-75450661D01*
X102552500Y-75464373D01*
X102552500Y-78401334D01*
X106764667Y-78401334D01*
X106764667Y-78966224D01*
X106443801Y-78980112D01*
X106363354Y-78982653D01*
X106245516Y-78985043D01*
X106095231Y-78987241D01*
X105917442Y-78989204D01*
X105717092Y-78990888D01*
X105499124Y-78992252D01*
X105268481Y-78993252D01*
X105030106Y-78993846D01*
X104835135Y-78994000D01*
X103547334Y-78994000D01*
X103547334Y-82321743D01*
X104960209Y-82303580D01*
X105208802Y-82300431D01*
X105450886Y-82297456D01*
X105682151Y-82294701D01*
X105898286Y-82292213D01*
X106094980Y-82290041D01*
X106267922Y-82288230D01*
X106412802Y-82286829D01*
X106525308Y-82285884D01*
X106601131Y-82285444D01*
X106616500Y-82285417D01*
X106859917Y-82285417D01*
X106865784Y-82573038D01*
X106871650Y-82860659D01*
X106264382Y-82874663D01*
X106086231Y-82878478D01*
X105902160Y-82881897D01*
X105722154Y-82884772D01*
X105556202Y-82886955D01*
X105414289Y-82888298D01*
X105321890Y-82888667D01*
X104986667Y-82888667D01*
X104987155Y-83052709D01*
X104987604Y-83099280D01*
X104988758Y-83184644D01*
X104990559Y-83305263D01*
X104992948Y-83457604D01*
X104995869Y-83638130D01*
X104999261Y-83843307D01*
X105003069Y-84069600D01*
X105007232Y-84313473D01*
X105011694Y-84571391D01*
X105016395Y-84839820D01*
X105018385Y-84952417D01*
X105023146Y-85221963D01*
X105027694Y-85480864D01*
X105031972Y-85725772D01*
X105035922Y-85953338D01*
X105039487Y-86160214D01*
X105042610Y-86343051D01*
X105045233Y-86498501D01*
X105047299Y-86623215D01*
X105048750Y-86713845D01*
X105049530Y-86767042D01*
X105049647Y-86778042D01*
X105050167Y-86868000D01*
X106764667Y-86868000D01*
X106764667Y-87460667D01*
X105035585Y-87460667D01*
X105021787Y-87762292D01*
X105018760Y-87850459D01*
X105015959Y-87974472D01*
X105013459Y-88127847D01*
X105011333Y-88304097D01*
X105009656Y-88496737D01*
X105008503Y-88699280D01*
X105007949Y-88905240D01*
X105007911Y-88968792D01*
X105007834Y-89873667D01*
X106849334Y-89873667D01*
X106849334Y-90445167D01*
X99144667Y-90445167D01*
X99145293Y-90397542D01*
X99145821Y-90368774D01*
X99147143Y-90301256D01*
X99149186Y-90198564D01*
X99151877Y-90064270D01*
X99155146Y-89901951D01*
X99156272Y-89846213D01*
X99723158Y-89846213D01*
X99729985Y-89853992D01*
X99748145Y-89860151D01*
X99781565Y-89864876D01*
X99834176Y-89868357D01*
X99909906Y-89870781D01*
X100012683Y-89872335D01*
X100146437Y-89873209D01*
X100315095Y-89873590D01*
X100497907Y-89873667D01*
X101282500Y-89873667D01*
X101854000Y-89873667D01*
X104414360Y-89873667D01*
X104424598Y-89826042D01*
X104426633Y-89796367D01*
X104428753Y-89728401D01*
X104430904Y-89626187D01*
X104433032Y-89493767D01*
X104435081Y-89335184D01*
X104436997Y-89154480D01*
X104438725Y-88955697D01*
X104440210Y-88742879D01*
X104440913Y-88619542D01*
X104446991Y-87460667D01*
X101854000Y-87460667D01*
X101854000Y-89873667D01*
X101282500Y-89873667D01*
X101282500Y-87460667D01*
X99784599Y-87460667D01*
X99772238Y-87592959D01*
X99769499Y-87640556D01*
X99766438Y-87725719D01*
X99763158Y-87843682D01*
X99759761Y-87989680D01*
X99756350Y-88158948D01*
X99753029Y-88346719D01*
X99749899Y-88548228D01*
X99747064Y-88758710D01*
X99747018Y-88762417D01*
X99744258Y-88968976D01*
X99741279Y-89163333D01*
X99738173Y-89341246D01*
X99735031Y-89498473D01*
X99731947Y-89630769D01*
X99729011Y-89733892D01*
X99726315Y-89803598D01*
X99723952Y-89835646D01*
X99723735Y-89836625D01*
X99723158Y-89846213D01*
X99156272Y-89846213D01*
X99158920Y-89715180D01*
X99163126Y-89507532D01*
G36*
X99614362Y-93073136D02*
G01*
X99696514Y-93113550D01*
X99723858Y-93134592D01*
X99746848Y-93158322D01*
X99766043Y-93188606D01*
X99782002Y-93229312D01*
X99795284Y-93284307D01*
X99806450Y-93357459D01*
X99816058Y-93452634D01*
X99824669Y-93573700D01*
X99832841Y-93724525D01*
X99841135Y-93908976D01*
X99850109Y-94130919D01*
X99852484Y-94191667D01*
X99860321Y-94389801D01*
X99868177Y-94582622D01*
X99875796Y-94764249D01*
X99882922Y-94928799D01*
X99889300Y-95070392D01*
X99894673Y-95183147D01*
X99898784Y-95261183D01*
X99899703Y-95276459D01*
X99912719Y-95482834D01*
X99423197Y-95482834D01*
X99412129Y-95424625D01*
X99409392Y-95391106D01*
X99406276Y-95320157D01*
X99402907Y-95216678D01*
X99399413Y-95085568D01*
X99395921Y-94931729D01*
X99392558Y-94760059D01*
X99389453Y-94575459D01*
X99388612Y-94519750D01*
X99384956Y-94276697D01*
X99381541Y-94072424D01*
X99378070Y-93903378D01*
X99374242Y-93766011D01*
X99369760Y-93656771D01*
X99364325Y-93572107D01*
X99357637Y-93508468D01*
X99349400Y-93462305D01*
X99339313Y-93430066D01*
X99327078Y-93408201D01*
X99312397Y-93393158D01*
X99294971Y-93381388D01*
X99292749Y-93380067D01*
X99207269Y-93348365D01*
X99125018Y-93351441D01*
X99056745Y-93388582D01*
X99049078Y-93396283D01*
X99001551Y-93447565D01*
X99029667Y-94448669D01*
X99035214Y-94650181D01*
X99040179Y-94838357D01*
X99044465Y-95009048D01*
X99047981Y-95158109D01*
X99050631Y-95281392D01*
X99052322Y-95374750D01*
X99052960Y-95434036D01*
X99052464Y-95455092D01*
X99030515Y-95458432D01*
X98975065Y-95463422D01*
X98894879Y-95469346D01*
X98813315Y-95474612D01*
X98579484Y-95488814D01*
X98565528Y-94676199D01*
X98561877Y-94474611D01*
X98557810Y-94269019D01*
X98553507Y-94067399D01*
X98549152Y-93877728D01*
X98544925Y-93707981D01*
X98541009Y-93566136D01*
X98538194Y-93477292D01*
X98524815Y-93091000D01*
X99031502Y-93091000D01*
X99022182Y-93154500D01*
X99020847Y-93198939D01*
X99036783Y-93214675D01*
X99074055Y-93201449D01*
X99136726Y-93159004D01*
X99153768Y-93146146D01*
X99257151Y-93088975D01*
X99376591Y-93057256D01*
X99499768Y-93051730D01*
X99614362Y-93073136D01*
G37*
X99614362Y-93073136D02*
X99696514Y-93113550D01*
X99723858Y-93134592D01*
X99746848Y-93158322D01*
X99766043Y-93188606D01*
X99782002Y-93229312D01*
X99795284Y-93284307D01*
X99806450Y-93357459D01*
X99816058Y-93452634D01*
X99824669Y-93573700D01*
X99832841Y-93724525D01*
X99841135Y-93908976D01*
X99850109Y-94130919D01*
X99852484Y-94191667D01*
X99860321Y-94389801D01*
X99868177Y-94582622D01*
X99875796Y-94764249D01*
X99882922Y-94928799D01*
X99889300Y-95070392D01*
X99894673Y-95183147D01*
X99898784Y-95261183D01*
X99899703Y-95276459D01*
X99912719Y-95482834D01*
X99423197Y-95482834D01*
X99412129Y-95424625D01*
X99409392Y-95391106D01*
X99406276Y-95320157D01*
X99402907Y-95216678D01*
X99399413Y-95085568D01*
X99395921Y-94931729D01*
X99392558Y-94760059D01*
X99389453Y-94575459D01*
X99388612Y-94519750D01*
X99384956Y-94276697D01*
X99381541Y-94072424D01*
X99378070Y-93903378D01*
X99374242Y-93766011D01*
X99369760Y-93656771D01*
X99364325Y-93572107D01*
X99357637Y-93508468D01*
X99349400Y-93462305D01*
X99339313Y-93430066D01*
X99327078Y-93408201D01*
X99312397Y-93393158D01*
X99294971Y-93381388D01*
X99292749Y-93380067D01*
X99207269Y-93348365D01*
X99125018Y-93351441D01*
X99056745Y-93388582D01*
X99049078Y-93396283D01*
X99001551Y-93447565D01*
X99029667Y-94448669D01*
X99035214Y-94650181D01*
X99040179Y-94838357D01*
X99044465Y-95009048D01*
X99047981Y-95158109D01*
X99050631Y-95281392D01*
X99052322Y-95374750D01*
X99052960Y-95434036D01*
X99052464Y-95455092D01*
X99030515Y-95458432D01*
X98975065Y-95463422D01*
X98894879Y-95469346D01*
X98813315Y-95474612D01*
X98579484Y-95488814D01*
X98565528Y-94676199D01*
X98561877Y-94474611D01*
X98557810Y-94269019D01*
X98553507Y-94067399D01*
X98549152Y-93877728D01*
X98544925Y-93707981D01*
X98541009Y-93566136D01*
X98538194Y-93477292D01*
X98524815Y-93091000D01*
X99031502Y-93091000D01*
X99022182Y-93154500D01*
X99020847Y-93198939D01*
X99036783Y-93214675D01*
X99074055Y-93201449D01*
X99136726Y-93159004D01*
X99153768Y-93146146D01*
X99257151Y-93088975D01*
X99376591Y-93057256D01*
X99499768Y-93051730D01*
X99614362Y-93073136D01*
G36*
X101335359Y-61703582D02*
G01*
X101476482Y-61732624D01*
X101598935Y-61780091D01*
X101694665Y-61842085D01*
X101749530Y-61904122D01*
X101776769Y-61958455D01*
X101788127Y-62016122D01*
X101786933Y-62095287D01*
X101786288Y-62104577D01*
X101777649Y-62181210D01*
X101759922Y-62234413D01*
X101724849Y-62283083D01*
X101693871Y-62316102D01*
X101645217Y-62360048D01*
X101570710Y-62420236D01*
X101479702Y-62489402D01*
X101381548Y-62560283D01*
X101360478Y-62575002D01*
X101110373Y-62748584D01*
X101811667Y-62760190D01*
X101811667Y-63013167D01*
X100584000Y-63013167D01*
X100584000Y-62745647D01*
X100921418Y-62519209D01*
X101030069Y-62444953D01*
X101128912Y-62374890D01*
X101211534Y-62313766D01*
X101271522Y-62266323D01*
X101302418Y-62237364D01*
X101340556Y-62160770D01*
X101337461Y-62084379D01*
X101293399Y-62013854D01*
X101291849Y-62012288D01*
X101210534Y-61960455D01*
X101101734Y-61938298D01*
X100968166Y-61945828D01*
X100812548Y-61983059D01*
X100735306Y-62009786D01*
X100666472Y-62035283D01*
X100615102Y-62053539D01*
X100592147Y-62060665D01*
X100592063Y-62060667D01*
X100588059Y-62041302D01*
X100585172Y-61990409D01*
X100584003Y-61918788D01*
X100584000Y-61915013D01*
X100584000Y-61769359D01*
X100683743Y-61744244D01*
X100797608Y-61722620D01*
X100936399Y-61706723D01*
X101083538Y-61697586D01*
X101222451Y-61696245D01*
X101335359Y-61703582D01*
G37*
X101335359Y-61703582D02*
X101476482Y-61732624D01*
X101598935Y-61780091D01*
X101694665Y-61842085D01*
X101749530Y-61904122D01*
X101776769Y-61958455D01*
X101788127Y-62016122D01*
X101786933Y-62095287D01*
X101786288Y-62104577D01*
X101777649Y-62181210D01*
X101759922Y-62234413D01*
X101724849Y-62283083D01*
X101693871Y-62316102D01*
X101645217Y-62360048D01*
X101570710Y-62420236D01*
X101479702Y-62489402D01*
X101381548Y-62560283D01*
X101360478Y-62575002D01*
X101110373Y-62748584D01*
X101811667Y-62760190D01*
X101811667Y-63013167D01*
X100584000Y-63013167D01*
X100584000Y-62745647D01*
X100921418Y-62519209D01*
X101030069Y-62444953D01*
X101128912Y-62374890D01*
X101211534Y-62313766D01*
X101271522Y-62266323D01*
X101302418Y-62237364D01*
X101340556Y-62160770D01*
X101337461Y-62084379D01*
X101293399Y-62013854D01*
X101291849Y-62012288D01*
X101210534Y-61960455D01*
X101101734Y-61938298D01*
X100968166Y-61945828D01*
X100812548Y-61983059D01*
X100735306Y-62009786D01*
X100666472Y-62035283D01*
X100615102Y-62053539D01*
X100592147Y-62060665D01*
X100592063Y-62060667D01*
X100588059Y-62041302D01*
X100585172Y-61990409D01*
X100584003Y-61918788D01*
X100584000Y-61915013D01*
X100584000Y-61769359D01*
X100683743Y-61744244D01*
X100797608Y-61722620D01*
X100936399Y-61706723D01*
X101083538Y-61697586D01*
X101222451Y-61696245D01*
X101335359Y-61703582D01*
G36*
X83809065Y-65668484D02*
G01*
X83892410Y-65502340D01*
X84008704Y-65354167D01*
X84156173Y-65228846D01*
X84302666Y-65144891D01*
X84471900Y-65087487D01*
X84651693Y-65065192D01*
X84834315Y-65076324D01*
X85012039Y-65119202D01*
X85177136Y-65192145D01*
X85321879Y-65293470D01*
X85411714Y-65386197D01*
X85522296Y-65551891D01*
X85595221Y-65725429D01*
X85632459Y-65902523D01*
X85635978Y-66078886D01*
X85607750Y-66250230D01*
X85549742Y-66412267D01*
X85463925Y-66560710D01*
X85352269Y-66691272D01*
X85216742Y-66799665D01*
X85059315Y-66881602D01*
X84881957Y-66932794D01*
X84693793Y-66949029D01*
X84571629Y-66941368D01*
X84456212Y-66922182D01*
X84408385Y-66909298D01*
X84225083Y-66829691D01*
X84066293Y-66717250D01*
X83935628Y-66575122D01*
X83840690Y-66415144D01*
X83774482Y-66225930D01*
X83748326Y-66035161D01*
X83750155Y-66006859D01*
X84328465Y-66006859D01*
X84342791Y-66086106D01*
X84380555Y-66173867D01*
X84432390Y-66251900D01*
X84475781Y-66293726D01*
X84577730Y-66343319D01*
X84690679Y-66360664D01*
X84801951Y-66345609D01*
X84897862Y-66298751D01*
X84978818Y-66215783D01*
X85030533Y-66113988D01*
X85050245Y-66003782D01*
X85035190Y-65895578D01*
X85016677Y-65850970D01*
X84951422Y-65763774D01*
X84862218Y-65697309D01*
X84760381Y-65657048D01*
X84657230Y-65648466D01*
X84614029Y-65656222D01*
X84506168Y-65705204D01*
X84417990Y-65782624D01*
X84356633Y-65879718D01*
X84329235Y-65987723D01*
X84328465Y-66006859D01*
X83750155Y-66006859D01*
X83760445Y-65847719D01*
X83809065Y-65668484D01*
G37*
X83809065Y-65668484D02*
X83892410Y-65502340D01*
X84008704Y-65354167D01*
X84156173Y-65228846D01*
X84302666Y-65144891D01*
X84471900Y-65087487D01*
X84651693Y-65065192D01*
X84834315Y-65076324D01*
X85012039Y-65119202D01*
X85177136Y-65192145D01*
X85321879Y-65293470D01*
X85411714Y-65386197D01*
X85522296Y-65551891D01*
X85595221Y-65725429D01*
X85632459Y-65902523D01*
X85635978Y-66078886D01*
X85607750Y-66250230D01*
X85549742Y-66412267D01*
X85463925Y-66560710D01*
X85352269Y-66691272D01*
X85216742Y-66799665D01*
X85059315Y-66881602D01*
X84881957Y-66932794D01*
X84693793Y-66949029D01*
X84571629Y-66941368D01*
X84456212Y-66922182D01*
X84408385Y-66909298D01*
X84225083Y-66829691D01*
X84066293Y-66717250D01*
X83935628Y-66575122D01*
X83840690Y-66415144D01*
X83774482Y-66225930D01*
X83748326Y-66035161D01*
X83750155Y-66006859D01*
X84328465Y-66006859D01*
X84342791Y-66086106D01*
X84380555Y-66173867D01*
X84432390Y-66251900D01*
X84475781Y-66293726D01*
X84577730Y-66343319D01*
X84690679Y-66360664D01*
X84801951Y-66345609D01*
X84897862Y-66298751D01*
X84978818Y-66215783D01*
X85030533Y-66113988D01*
X85050245Y-66003782D01*
X85035190Y-65895578D01*
X85016677Y-65850970D01*
X84951422Y-65763774D01*
X84862218Y-65697309D01*
X84760381Y-65657048D01*
X84657230Y-65648466D01*
X84614029Y-65656222D01*
X84506168Y-65705204D01*
X84417990Y-65782624D01*
X84356633Y-65879718D01*
X84329235Y-65987723D01*
X84328465Y-66006859D01*
X83750155Y-66006859D01*
X83760445Y-65847719D01*
X83809065Y-65668484D01*
%LPC*%
D13*
X86690000Y-36000000D03*
D14*
X89230000Y-36000000D03*
X91770000Y-36000000D03*
X94310000Y-36000000D03*
D15*
X93218000Y-31750000D03*
D16*
X90678000Y-31750000D03*
D17*
X80000000Y-54350000D03*
X80000000Y-51810000D03*
X80000000Y-49270000D03*
X80000000Y-46730000D03*
X80000000Y-44190000D03*
X80000000Y-41650000D03*
X87750000Y-56850000D03*
X90290000Y-56850000D03*
X92830000Y-56850000D03*
D18*
X75438000Y-32250000D03*
D19*
X85598000Y-32250000D03*
M02*
